{
.appVersion = "1352";
DisplayStrings = (

glyphs = (
{
glyphname = .notdef;
lastChange = "2022-02-07 22:19:05 +0000";
layers = (
{
background = {
paths = (
{
closed = 1;
nodes = (
"50 0 LINE",
"424 0 LINE",
"424 702 LINE",
"50 702 LINE"
);
},
{
closed = 1;
nodes = (
"369 674 LINE",
"236 393 LINE",
"102 674 LINE"
);
},
{
closed = 1;
nodes = (
"387 638 LINE",
"387 75 LINE",
"253 357 LINE"
);
},
{
closed = 1;
nodes = (
"85 77 LINE",
"85 637 LINE",
"218 357 LINE"
);
},
{
closed = 1;
nodes = (
"370 40 LINE",
"101 40 LINE",
"236 322 LINE"
);
}
);
};
layerId = "6A041D6C-A676-4DB4-A570-80A8F8AA896B";
paths = (
{
closed = 1;
nodes = (
"424 0 LINE",
"424 702 LINE",
"50 702 LINE",
"50 0 LINE"
);
},
{
closed = 1;
nodes = (
"236 322 LINE",
"370 40 LINE",
"101 40 LINE"
);
},
{
closed = 1;
nodes = (
"85 637 LINE",
"218 357 LINE",
"85 77 LINE"
);
},
{
closed = 1;
nodes = (
"253 357 LINE",
"387 638 LINE",
"387 75 LINE"
);
},
{
closed = 1;
nodes = (
"102 674 LINE",
"369 674 LINE",
"236 393 LINE"
);
}
);
width = 474;
}
);
note = .notdef;
},
{
glyphname = A;
lastChange = "2022-02-07 22:19:06 +0000";
layers = (
{
background = {
paths = (
{
closed = 1;
nodes = (
"1083 659 OFFCURVE",
"1020 657 OFFCURVE",
"981 640 CURVE SMOOTH",
"904 607 OFFCURVE",
"782 459 OFFCURVE",
"563 201 CURVE",
"508 196 OFFCURVE",
"452 189 OFFCURVE",
"404 181 CURVE SMOOTH",
"383 177 OFFCURVE",
"385 148 OFFCURVE",
"405 152 CURVE SMOOTH",
"447 162 OFFCURVE",
"493 170 OFFCURVE",
"544 175 CURVE",
"437 59 OFFCURVE",
"296 -85 OFFCURVE",
"182 -85 CURVE SMOOTH",
"30 -85 OFFCURVE",
"10 78 OFFCURVE",
"74 223 CURVE SMOOTH",
"127 341 OFFCURVE",
"239 446 OFFCURVE",
"355 446 CURVE SMOOTH",
"505 446 OFFCURVE",
"475 320 OFFCURVE",
"417 305 CURVE SMOOTH",
"395 299 OFFCURVE",
"405 270 OFFCURVE",
"425 276 CURVE SMOOTH",
"511 301 OFFCURVE",
"551 470 OFFCURVE",
"358 470 CURVE SMOOTH",
"226 470 OFFCURVE",
"105 364 OFFCURVE",
"47 240 CURVE SMOOTH",
"-28 78 OFFCURVE",
"-2 -113 OFFCURVE",
"182 -113 CURVE SMOOTH",
"308 -113 OFFCURVE",
"469 49 OFFCURVE",
"577 170 CURVE SMOOTH",
"580 173 OFFCURVE",
"584 176 OFFCURVE",
"586 179 CURVE",
"655 185 OFFCURVE",
"727 185 OFFCURVE",
"782 185 CURVE",
"768 115 OFFCURVE",
"764 50 OFFCURVE",
"774 0 CURVE SMOOTH",
"794 -97 OFFCURVE",
"868 -94 OFFCURVE",
"898 -31 CURVE SMOOTH",
"906 -14 OFFCURVE",
"889 -7 OFFCURVE",
"876 -23 CURVE SMOOTH",
"831 -80 OFFCURVE",
"815 -42 OFFCURVE",
"805 8 CURVE SMOOTH",
"796 56 OFFCURVE",
"801 119 OFFCURVE",
"818 185 CURVE",
"837 185 OFFCURVE",
"854 184 OFFCURVE",
"867 184 CURVE SMOOTH",
"889 184 OFFCURVE",
"885 211 OFFCURVE",
"862 212 CURVE SMOOTH",
"853 213 OFFCURVE",
"841 212 OFFCURVE",
"823 212 CURVE",
"865 361 OFFCURVE",
"947 520 OFFCURVE",
"1020 595 CURVE SMOOTH"
);
},
{
closed = 1;
nodes = (
"1000 627 OFFCURVE",
"978 597 OFFCURVE",
"973 590 CURVE SMOOTH",
"908 512 OFFCURVE",
"825 358 OFFCURVE",
"789 213 CURVE",
"739 212 OFFCURVE",
"674 210 OFFCURVE",
"609 206 CURVE",
"808 445 OFFCURVE",
"925 594 OFFCURVE",
"997 625 CURVE"
);
}
);
};
layerId = "6A041D6C-A676-4DB4-A570-80A8F8AA896B";
paths = (
{
closed = 1;
nodes = (
"308 -113 OFFCURVE",
"469 49 OFFCURVE",
"577 170 CURVE SMOOTH",
"580 173 OFFCURVE",
"584 176 OFFCURVE",
"586 179 CURVE",
"655 185 OFFCURVE",
"727 185 OFFCURVE",
"782 185 CURVE",
"773 141 OFFCURVE",
"768 100 OFFCURVE",
"768 63 CURVE SMOOTH",
"768 40 OFFCURVE",
"770 19 OFFCURVE",
"774 0 CURVE SMOOTH",
"785 -53 OFFCURVE",
"812 -76 OFFCURVE",
"839 -76 CURVE SMOOTH",
"862 -76 OFFCURVE",
"884 -60 OFFCURVE",
"898 -31 CURVE SMOOTH",
"903 -21 OFFCURVE",
"898 -14 OFFCURVE",
"891 -14 CURVE SMOOTH",
"887 -14 OFFCURVE",
"881 -17 OFFCURVE",
"876 -23 CURVE SMOOTH",
"860 -43 OFFCURVE",
"848 -52 OFFCURVE",
"838 -52 CURVE SMOOTH",
"820 -52 OFFCURVE",
"811 -24 OFFCURVE",
"805 8 CURVE SMOOTH",
"802 24 OFFCURVE",
"801 41 OFFCURVE",
"801 60 CURVE SMOOTH",
"801 98 OFFCURVE",
"807 141 OFFCURVE",
"818 185 CURVE",
"837 185 OFFCURVE",
"854 184 OFFCURVE",
"867 184 CURVE SMOOTH",
"877 184 OFFCURVE",
"882 189 OFFCURVE",
"882 196 CURVE SMOOTH",
"882 203 OFFCURVE",
"875 211 OFFCURVE",
"862 212 CURVE SMOOTH",
"853 213 OFFCURVE",
"841 212 OFFCURVE",
"823 212 CURVE",
"865 361 OFFCURVE",
"947 520 OFFCURVE",
"1020 595 CURVE SMOOTH",
"1039 614 OFFCURVE",
"1047 628 OFFCURVE",
"1047 636 CURVE SMOOTH",
"1047 646 OFFCURVE",
"1038 650 OFFCURVE",
"1025 650 CURVE SMOOTH",
"1012 650 OFFCURVE",
"995 646 OFFCURVE",
"981 640 CURVE SMOOTH",
"904 607 OFFCURVE",
"782 459 OFFCURVE",
"563 201 CURVE",
"508 196 OFFCURVE",
"452 189 OFFCURVE",
"404 181 CURVE SMOOTH",
"394 179 OFFCURVE",
"389 171 OFFCURVE",
"389 164 CURVE SMOOTH",
"389 158 OFFCURVE",
"393 152 OFFCURVE",
"401 152 CURVE SMOOTH",
"405 152 LINE",
"447 162 OFFCURVE",
"493 170 OFFCURVE",
"544 175 CURVE",
"437 59 OFFCURVE",
"296 -85 OFFCURVE",
"182 -85 CURVE SMOOTH",
"83 -85 OFFCURVE",
"40 -15 OFFCURVE",
"40 73 CURVE SMOOTH",
"40 120 OFFCURVE",
"52 173 OFFCURVE",
"74 223 CURVE SMOOTH",
"127 341 OFFCURVE",
"239 446 OFFCURVE",
"355 446 CURVE SMOOTH",
"441 446 OFFCURVE",
"468 404 OFFCURVE",
"468 362 CURVE SMOOTH",
"468 319 OFFCURVE",
"440 275 OFFCURVE",
"420 275 CURVE SMOOTH",
"421 275 OFFCURVE",
"423 275 OFFCURVE",
"425 276 CURVE",
"466 288 OFFCURVE",
"496 332 OFFCURVE",
"496 376 CURVE SMOOTH",
"496 423 OFFCURVE",
"459 470 OFFCURVE",
"358 470 CURVE SMOOTH",
"226 470 OFFCURVE",
"105 364 OFFCURVE",
"47 240 CURVE SMOOTH",
"22 185 OFFCURVE",
"8 127 OFFCURVE",
"8 74 CURVE SMOOTH",
"8 -30 OFFCURVE",
"60 -113 OFFCURVE",
"182 -113 CURVE SMOOTH"
);
},
{
closed = 1;
nodes = (
"808 445 OFFCURVE",
"925 594 OFFCURVE",
"997 625 CURVE",
"1000 627 OFFCURVE",
"978 597 OFFCURVE",
"973 590 CURVE SMOOTH",
"908 512 OFFCURVE",
"825 358 OFFCURVE",
"789 213 CURVE",
"739 212 OFFCURVE",
"674 210 OFFCURVE",
"609 206 CURVE"
);
}
);
width = 922;
}
);
note = A;
unicode = 0041;
},
{
glyphname = AE;
lastChange = "2022-02-07 22:19:06 +0000";
layers = (
{
background = {
paths = (
{
closed = 1;
nodes = (
"1410 511 OFFCURVE",
"1406 515 OFFCURVE",
"1400 515 CURVE SMOOTH",
"1391 515 OFFCURVE",
"1384 507 OFFCURVE",
"1384 500 CURVE SMOOTH",
"1384 488 OFFCURVE",
"1400 484 OFFCURVE",
"1411 484 CURVE SMOOTH",
"1456 484 OFFCURVE",
"1490 526 OFFCURVE",
"1490 562 CURVE SMOOTH",
"1490 621 OFFCURVE",
"1422 633 OFFCURVE",
"1368 633 CURVE SMOOTH",
"1245 633 OFFCURVE",
"1081 579 OFFCURVE",
"1017 483 CURVE SMOOTH",
"1003 462 OFFCURVE",
"992 437 OFFCURVE",
"992 412 CURVE SMOOTH",
"992 386 OFFCURVE",
"1005 365 OFFCURVE",
"1028 348 CURVE",
"954 328 OFFCURVE",
"888 298 OFFCURVE",
"836 254 CURVE",
"880 390 OFFCURVE",
"954 527 OFFCURVE",
"1020 595 CURVE SMOOTH",
"1083 659 OFFCURVE",
"1020 657 OFFCURVE",
"981 640 CURVE SMOOTH",
"904 607 OFFCURVE",
"782 459 OFFCURVE",
"563 201 CURVE",
"508 196 OFFCURVE",
"452 189 OFFCURVE",
"404 181 CURVE SMOOTH",
"383 177 OFFCURVE",
"385 148 OFFCURVE",
"405 152 CURVE SMOOTH",
"447 162 OFFCURVE",
"493 170 OFFCURVE",
"544 175 CURVE",
"437 59 OFFCURVE",
"296 -85 OFFCURVE",
"182 -85 CURVE SMOOTH",
"30 -85 OFFCURVE",
"10 78 OFFCURVE",
"74 223 CURVE SMOOTH",
"127 341 OFFCURVE",
"239 446 OFFCURVE",
"355 446 CURVE SMOOTH",
"505 446 OFFCURVE",
"475 320 OFFCURVE",
"417 305 CURVE SMOOTH",
"395 299 OFFCURVE",
"405 270 OFFCURVE",
"425 276 CURVE SMOOTH",
"511 301 OFFCURVE",
"551 470 OFFCURVE",
"358 470 CURVE SMOOTH",
"226 470 OFFCURVE",
"105 364 OFFCURVE",
"47 240 CURVE SMOOTH",
"-28 78 OFFCURVE",
"-2 -113 OFFCURVE",
"182 -113 CURVE SMOOTH",
"308 -113 OFFCURVE",
"469 49 OFFCURVE",
"577 170 CURVE SMOOTH",
"580 173 OFFCURVE",
"584 176 OFFCURVE",
"586 179 CURVE",
"651 185 OFFCURVE",
"719 185 OFFCURVE",
"773 185 CURVE",
"762 169 OFFCURVE",
"752 152 OFFCURVE",
"744 133 CURVE SMOOTH",
"735 114 OFFCURVE",
"730 93 OFFCURVE",
"730 72 CURVE SMOOTH",
"730 -42 OFFCURVE",
"869 -85 OFFCURVE",
"979 -84 CURVE SMOOTH",
"991 -84 LINE SMOOTH",
"1125 -83 OFFCURVE",
"1251 -38 OFFCURVE",
"1353 38 CURVE SMOOTH",
"1380 58 OFFCURVE",
"1411 85 OFFCURVE",
"1428 112 CURVE SMOOTH",
"1440 132 OFFCURVE",
"1449 155 OFFCURVE",
"1449 178 CURVE SMOOTH",
"1449 218 OFFCURVE",
"1418 249 OFFCURVE",
"1370 249 CURVE SMOOTH",
"1361 249 OFFCURVE",
"1353 243 OFFCURVE",
"1353 234 CURVE SMOOTH",
"1353 208 OFFCURVE",
"1415 235 OFFCURVE",
"1415 178 CURVE SMOOTH",
"1415 160 OFFCURVE",
"1408 142 OFFCURVE",
"1398 126 CURVE SMOOTH",
"1385 104 OFFCURVE",
"1360 82 OFFCURVE",
"1339 65 CURVE SMOOTH",
"1243 -10 OFFCURVE",
"1118 -50 OFFCURVE",
"990 -55 CURVE SMOOTH",
"978 -55 LINE SMOOTH",
"886 -55 OFFCURVE",
"763 -23 OFFCURVE",
"763 74 CURVE SMOOTH",
"763 91 OFFCURVE",
"767 108 OFFCURVE",
"774 124 CURVE SMOOTH",
"820 231 OFFCURVE",
"922 290 OFFCURVE",
"1044 320 CURVE SMOOTH",
"1052 322 OFFCURVE",
"1059 324 OFFCURVE",
"1067 325 CURVE",
"1092 315 OFFCURVE",
"1120 312 OFFCURVE",
"1147 312 CURVE SMOOTH",
"1163 312 OFFCURVE",
"1180 313 OFFCURVE",
"1197 315 CURVE SMOOTH",
"1216 317 OFFCURVE",
"1261 331 OFFCURVE",
"1261 352 CURVE SMOOTH",
"1261 368 OFFCURVE",
"1230 369 OFFCURVE",
"1219 369 CURVE SMOOTH",
"1168 369 OFFCURVE",
"1118 365 OFFCURVE",
"1068 356 CURVE",
"1043 368 OFFCURVE",
"1026 386 OFFCURVE",
"1026 412 CURVE SMOOTH",
"1026 432 OFFCURVE",
"1035 451 OFFCURVE",
"1046 468 CURVE SMOOTH",
"1107 559 OFFCURVE",
"1262 606 OFFCURVE",
"1377 606 CURVE SMOOTH",
"1412 606 OFFCURVE",
"1458 600 OFFCURVE",
"1458 561 CURVE SMOOTH",
"1458 543 OFFCURVE",
"1442 511 OFFCURVE",
"1416 511 CURVE SMOOTH"
);
},
{
closed = 1;
nodes = (
"1000 627 OFFCURVE",
"978 597 OFFCURVE",
"973 590 CURVE SMOOTH",
"908 512 OFFCURVE",
"825 358 OFFCURVE",
"789 213 CURVE",
"739 212 OFFCURVE",
"674 210 OFFCURVE",
"609 206 CURVE",
"808 445 OFFCURVE",
"925 594 OFFCURVE",
"997 625 CURVE"
);
}
);
};
layerId = "6A041D6C-A676-4DB4-A570-80A8F8AA896B";
paths = (
{
closed = 1;
nodes = (
"308 -113 OFFCURVE",
"469 49 OFFCURVE",
"577 170 CURVE SMOOTH",
"580 173 OFFCURVE",
"584 176 OFFCURVE",
"586 179 CURVE",
"651 185 OFFCURVE",
"719 185 OFFCURVE",
"773 185 CURVE",
"762 169 OFFCURVE",
"752 152 OFFCURVE",
"744 133 CURVE SMOOTH",
"735 114 OFFCURVE",
"730 93 OFFCURVE",
"730 72 CURVE SMOOTH",
"730 -42 OFFCURVE",
"869 -85 OFFCURVE",
"979 -84 CURVE SMOOTH",
"991 -84 LINE SMOOTH",
"1125 -83 OFFCURVE",
"1251 -38 OFFCURVE",
"1353 38 CURVE SMOOTH",
"1380 58 OFFCURVE",
"1411 85 OFFCURVE",
"1428 112 CURVE SMOOTH",
"1440 132 OFFCURVE",
"1449 155 OFFCURVE",
"1449 178 CURVE SMOOTH",
"1449 218 OFFCURVE",
"1418 249 OFFCURVE",
"1370 249 CURVE SMOOTH",
"1361 249 OFFCURVE",
"1353 243 OFFCURVE",
"1353 234 CURVE SMOOTH",
"1353 208 OFFCURVE",
"1415 235 OFFCURVE",
"1415 178 CURVE SMOOTH",
"1415 160 OFFCURVE",
"1408 142 OFFCURVE",
"1398 126 CURVE SMOOTH",
"1385 104 OFFCURVE",
"1360 82 OFFCURVE",
"1339 65 CURVE SMOOTH",
"1243 -10 OFFCURVE",
"1118 -50 OFFCURVE",
"990 -55 CURVE SMOOTH",
"978 -55 LINE SMOOTH",
"886 -55 OFFCURVE",
"763 -23 OFFCURVE",
"763 74 CURVE SMOOTH",
"763 91 OFFCURVE",
"767 108 OFFCURVE",
"774 124 CURVE SMOOTH",
"820 231 OFFCURVE",
"922 290 OFFCURVE",
"1044 320 CURVE SMOOTH",
"1052 322 OFFCURVE",
"1059 324 OFFCURVE",
"1067 325 CURVE",
"1092 315 OFFCURVE",
"1120 312 OFFCURVE",
"1147 312 CURVE SMOOTH",
"1163 312 OFFCURVE",
"1180 313 OFFCURVE",
"1197 315 CURVE SMOOTH",
"1216 317 OFFCURVE",
"1261 331 OFFCURVE",
"1261 352 CURVE SMOOTH",
"1261 368 OFFCURVE",
"1230 369 OFFCURVE",
"1219 369 CURVE SMOOTH",
"1168 369 OFFCURVE",
"1118 365 OFFCURVE",
"1068 356 CURVE",
"1043 368 OFFCURVE",
"1026 386 OFFCURVE",
"1026 412 CURVE SMOOTH",
"1026 432 OFFCURVE",
"1035 451 OFFCURVE",
"1046 468 CURVE SMOOTH",
"1107 559 OFFCURVE",
"1262 606 OFFCURVE",
"1377 606 CURVE SMOOTH",
"1412 606 OFFCURVE",
"1458 600 OFFCURVE",
"1458 561 CURVE SMOOTH",
"1458 543 OFFCURVE",
"1442 511 OFFCURVE",
"1416 511 CURVE SMOOTH",
"1410 511 OFFCURVE",
"1406 515 OFFCURVE",
"1400 515 CURVE SMOOTH",
"1391 515 OFFCURVE",
"1384 507 OFFCURVE",
"1384 500 CURVE SMOOTH",
"1384 488 OFFCURVE",
"1400 484 OFFCURVE",
"1411 484 CURVE SMOOTH",
"1456 484 OFFCURVE",
"1490 526 OFFCURVE",
"1490 562 CURVE SMOOTH",
"1490 621 OFFCURVE",
"1422 633 OFFCURVE",
"1368 633 CURVE SMOOTH",
"1245 633 OFFCURVE",
"1081 579 OFFCURVE",
"1017 483 CURVE SMOOTH",
"1003 462 OFFCURVE",
"992 437 OFFCURVE",
"992 412 CURVE SMOOTH",
"992 386 OFFCURVE",
"1005 365 OFFCURVE",
"1028 348 CURVE",
"954 328 OFFCURVE",
"888 298 OFFCURVE",
"836 254 CURVE",
"880 390 OFFCURVE",
"954 527 OFFCURVE",
"1020 595 CURVE SMOOTH",
"1039 614 OFFCURVE",
"1047 628 OFFCURVE",
"1047 636 CURVE SMOOTH",
"1047 646 OFFCURVE",
"1038 650 OFFCURVE",
"1025 650 CURVE SMOOTH",
"1012 650 OFFCURVE",
"995 646 OFFCURVE",
"981 640 CURVE SMOOTH",
"904 607 OFFCURVE",
"782 459 OFFCURVE",
"563 201 CURVE",
"508 196 OFFCURVE",
"452 189 OFFCURVE",
"404 181 CURVE SMOOTH",
"394 179 OFFCURVE",
"389 171 OFFCURVE",
"389 164 CURVE SMOOTH",
"389 158 OFFCURVE",
"393 152 OFFCURVE",
"401 152 CURVE SMOOTH",
"405 152 LINE",
"447 162 OFFCURVE",
"493 170 OFFCURVE",
"544 175 CURVE",
"437 59 OFFCURVE",
"296 -85 OFFCURVE",
"182 -85 CURVE SMOOTH",
"83 -85 OFFCURVE",
"40 -15 OFFCURVE",
"40 73 CURVE SMOOTH",
"40 120 OFFCURVE",
"52 173 OFFCURVE",
"74 223 CURVE SMOOTH",
"127 341 OFFCURVE",
"239 446 OFFCURVE",
"355 446 CURVE SMOOTH",
"441 446 OFFCURVE",
"468 404 OFFCURVE",
"468 362 CURVE SMOOTH",
"468 319 OFFCURVE",
"440 275 OFFCURVE",
"420 275 CURVE SMOOTH",
"421 275 OFFCURVE",
"423 275 OFFCURVE",
"425 276 CURVE",
"466 288 OFFCURVE",
"496 332 OFFCURVE",
"496 376 CURVE SMOOTH",
"496 423 OFFCURVE",
"459 470 OFFCURVE",
"358 470 CURVE SMOOTH",
"226 470 OFFCURVE",
"105 364 OFFCURVE",
"47 240 CURVE SMOOTH",
"22 185 OFFCURVE",
"8 127 OFFCURVE",
"8 74 CURVE SMOOTH",
"8 -30 OFFCURVE",
"60 -113 OFFCURVE",
"182 -113 CURVE SMOOTH"
);
},
{
closed = 1;
nodes = (
"808 445 OFFCURVE",
"925 594 OFFCURVE",
"997 625 CURVE",
"1000 627 OFFCURVE",
"978 597 OFFCURVE",
"973 590 CURVE SMOOTH",
"908 512 OFFCURVE",
"825 358 OFFCURVE",
"789 213 CURVE",
"739 212 OFFCURVE",
"674 210 OFFCURVE",
"609 206 CURVE"
);
}
);
width = 1416;
}
);
note = AE;
unicode = 00C6;
},
{
glyphname = B;
lastChange = "2022-02-07 22:19:06 +0000";
layers = (
{
background = {
paths = (
{
closed = 1;
nodes = (
"775 620 OFFCURVE",
"648 665 OFFCURVE",
"555 674 CURVE SMOOTH",
"532 676 OFFCURVE",
"509 677 OFFCURVE",
"485 677 CURVE SMOOTH",
"372 677 OFFCURVE",
"261 650 OFFCURVE",
"170 590 CURVE SMOOTH",
"98 542 OFFCURVE",
"21 458 OFFCURVE",
"21 375 CURVE SMOOTH",
"21 356 OFFCURVE",
"36 309 OFFCURVE",
"64 309 CURVE SMOOTH",
"73 309 OFFCURVE",
"81 317 OFFCURVE",
"81 325 CURVE SMOOTH",
"81 339 OFFCURVE",
"54 339 OFFCURVE",
"54 376 CURVE SMOOTH",
"54 451 OFFCURVE",
"126 525 OFFCURVE",
"190 568 CURVE SMOOTH",
"273 624 OFFCURVE",
"377 649 OFFCURVE",
"481 649 CURVE SMOOTH",
"505 649 OFFCURVE",
"528 648 OFFCURVE",
"551 646 CURVE SMOOTH",
"625 638 OFFCURVE",
"742 603 OFFCURVE",
"742 523 CURVE SMOOTH",
"742 501 OFFCURVE",
"732 481 OFFCURVE",
"718 463 CURVE SMOOTH",
"676 412 OFFCURVE",
"591 383 OFFCURVE",
"523 369 CURVE SMOOTH",
"506 365 OFFCURVE",
"487 365 OFFCURVE",
"469 361 CURVE SMOOTH",
"460 359 OFFCURVE",
"454 356 OFFCURVE",
"454 347 CURVE SMOOTH",
"454 337 OFFCURVE",
"461 334 OFFCURVE",
"470 332 CURVE SMOOTH",
"485 329 OFFCURVE",
"500 328 OFFCURVE",
"515 324 CURVE SMOOTH",
"583 304 OFFCURVE",
"641 256 OFFCURVE",
"641 191 CURVE SMOOTH",
"641 26 OFFCURVE",
"309 -91 OFFCURVE",
"147 -91 CURVE SMOOTH",
"119 -91 OFFCURVE",
"58 -87 OFFCURVE",
"58 -52 CURVE SMOOTH",
"58 -11 OFFCURVE",
"129 38 OFFCURVE",
"164 57 CURVE",
"159 37 OFFCURVE",
"154 16 OFFCURVE",
"154 -5 CURVE SMOOTH",
"154 -28 OFFCURVE",
"167 -69 OFFCURVE",
"200 -69 CURVE SMOOTH",
"210 -69 OFFCURVE",
"216 -61 OFFCURVE",
"216 -53 CURVE SMOOTH",
"216 -32 OFFCURVE",
"187 -52 OFFCURVE",
"187 1 CURVE SMOOTH",
"187 26 OFFCURVE",
"195 54 OFFCURVE",
"204 78 CURVE",
"266 105 OFFCURVE",
"335 115 OFFCURVE",
"404 115 CURVE SMOOTH",
"429 115 OFFCURVE",
"477 116 OFFCURVE",
"492 95 CURVE SMOOTH",
"496 89 OFFCURVE",
"499 85 OFFCURVE",
"508 85 CURVE SMOOTH",
"517 85 OFFCURVE",
"524 92 OFFCURVE",
"524 100 CURVE SMOOTH",
"524 140 OFFCURVE",
"435 144 OFFCURVE",
"403 144 CURVE SMOOTH",
"344 144 OFFCURVE",
"274 135 OFFCURVE",
"220 116 CURVE",
"271 223 OFFCURVE",
"376 385 OFFCURVE",
"480 461 CURVE SMOOTH",
"494 472 OFFCURVE",
"509 480 OFFCURVE",
"526 488 CURVE SMOOTH",
"532 491 OFFCURVE",
"537 494 OFFCURVE",
"537 501 CURVE SMOOTH",
"537 509 OFFCURVE",
"530 515 OFFCURVE",
"521 515 CURVE SMOOTH",
"504 515 OFFCURVE",
"471 491 OFFCURVE",
"459 482 CURVE SMOOTH",
"346 395 OFFCURVE",
"226 218 OFFCURVE",
"175 97 CURVE",
"118 70 OFFCURVE",
"23 4 OFFCURVE",
"23 -58 CURVE SMOOTH",
"23 -111 OFFCURVE",
"102 -120 OFFCURVE",
"148 -120 CURVE SMOOTH",
"331 -120 OFFCURVE",
"674 8 OFFCURVE",
"674 192 CURVE SMOOTH",
"674 262 OFFCURVE",
"618 316 OFFCURVE",
"547 345 CURVE",
"642 369 OFFCURVE",
"775 423 OFFCURVE",
"775 524 CURVE SMOOTH"
);
}
);
};
layerId = "6A041D6C-A676-4DB4-A570-80A8F8AA896B";
paths = (
{
closed = 1;
nodes = (
"331 -120 OFFCURVE",
"674 8 OFFCURVE",
"674 192 CURVE SMOOTH",
"674 262 OFFCURVE",
"618 316 OFFCURVE",
"547 345 CURVE",
"642 369 OFFCURVE",
"775 423 OFFCURVE",
"775 524 CURVE SMOOTH",
"775 620 OFFCURVE",
"648 665 OFFCURVE",
"555 674 CURVE SMOOTH",
"532 676 OFFCURVE",
"509 677 OFFCURVE",
"485 677 CURVE SMOOTH",
"372 677 OFFCURVE",
"261 650 OFFCURVE",
"170 590 CURVE SMOOTH",
"98 542 OFFCURVE",
"21 458 OFFCURVE",
"21 375 CURVE SMOOTH",
"21 356 OFFCURVE",
"36 309 OFFCURVE",
"64 309 CURVE SMOOTH",
"73 309 OFFCURVE",
"81 317 OFFCURVE",
"81 325 CURVE SMOOTH",
"81 339 OFFCURVE",
"54 339 OFFCURVE",
"54 376 CURVE SMOOTH",
"54 451 OFFCURVE",
"126 525 OFFCURVE",
"190 568 CURVE SMOOTH",
"273 624 OFFCURVE",
"377 649 OFFCURVE",
"481 649 CURVE SMOOTH",
"505 649 OFFCURVE",
"528 648 OFFCURVE",
"551 646 CURVE SMOOTH",
"625 638 OFFCURVE",
"742 603 OFFCURVE",
"742 523 CURVE SMOOTH",
"742 501 OFFCURVE",
"732 481 OFFCURVE",
"718 463 CURVE SMOOTH",
"676 412 OFFCURVE",
"591 383 OFFCURVE",
"523 369 CURVE SMOOTH",
"506 365 OFFCURVE",
"487 365 OFFCURVE",
"469 361 CURVE SMOOTH",
"460 359 OFFCURVE",
"454 356 OFFCURVE",
"454 347 CURVE SMOOTH",
"454 337 OFFCURVE",
"461 334 OFFCURVE",
"470 332 CURVE SMOOTH",
"485 329 OFFCURVE",
"500 328 OFFCURVE",
"515 324 CURVE SMOOTH",
"583 304 OFFCURVE",
"641 256 OFFCURVE",
"641 191 CURVE SMOOTH",
"641 26 OFFCURVE",
"309 -91 OFFCURVE",
"147 -91 CURVE SMOOTH",
"119 -91 OFFCURVE",
"58 -87 OFFCURVE",
"58 -52 CURVE SMOOTH",
"58 -11 OFFCURVE",
"129 38 OFFCURVE",
"164 57 CURVE",
"159 37 OFFCURVE",
"154 16 OFFCURVE",
"154 -5 CURVE SMOOTH",
"154 -28 OFFCURVE",
"167 -69 OFFCURVE",
"200 -69 CURVE SMOOTH",
"210 -69 OFFCURVE",
"216 -61 OFFCURVE",
"216 -53 CURVE SMOOTH",
"216 -32 OFFCURVE",
"187 -52 OFFCURVE",
"187 1 CURVE SMOOTH",
"187 26 OFFCURVE",
"195 54 OFFCURVE",
"204 78 CURVE",
"268 106 OFFCURVE",
"339 115 OFFCURVE",
"411 115 CURVE SMOOTH",
"437 115 OFFCURVE",
"478 114 OFFCURVE",
"492 95 CURVE SMOOTH",
"496 89 OFFCURVE",
"499 85 OFFCURVE",
"508 85 CURVE SMOOTH",
"517 85 OFFCURVE",
"524 92 OFFCURVE",
"524 100 CURVE SMOOTH",
"524 140 OFFCURVE",
"435 144 OFFCURVE",
"403 144 CURVE SMOOTH",
"344 144 OFFCURVE",
"274 135 OFFCURVE",
"220 116 CURVE",
"271 223 OFFCURVE",
"376 385 OFFCURVE",
"480 461 CURVE SMOOTH",
"494 472 OFFCURVE",
"509 480 OFFCURVE",
"526 488 CURVE SMOOTH",
"532 491 OFFCURVE",
"537 494 OFFCURVE",
"537 501 CURVE SMOOTH",
"537 509 OFFCURVE",
"530 515 OFFCURVE",
"521 515 CURVE SMOOTH",
"504 515 OFFCURVE",
"471 491 OFFCURVE",
"459 482 CURVE SMOOTH",
"346 395 OFFCURVE",
"226 218 OFFCURVE",
"175 97 CURVE",
"118 70 OFFCURVE",
"23 4 OFFCURVE",
"23 -58 CURVE SMOOTH",
"23 -111 OFFCURVE",
"102 -120 OFFCURVE",
"148 -120 CURVE SMOOTH"
);
}
);
width = 674;
}
);
note = B;
unicode = 0042;
},
{
glyphname = C;
lastChange = "2022-02-07 22:19:06 +0000";
layers = (
{
background = {
paths = (
{
closed = 1;
nodes = (
"837 627 OFFCURVE",
"740 657 OFFCURVE",
"661 657 CURVE SMOOTH",
"641 657 OFFCURVE",
"621 656 OFFCURVE",
"601 653 CURVE SMOOTH",
"448 631 OFFCURVE",
"301 561 OFFCURVE",
"197 461 CURVE",
"197 469 OFFCURVE",
"198 476 OFFCURVE",
"198 484 CURVE SMOOTH",
"198 493 OFFCURVE",
"189 499 OFFCURVE",
"179 499 CURVE SMOOTH",
"163 499 OFFCURVE",
"164 485 OFFCURVE",
"164 474 CURVE SMOOTH",
"164 462 OFFCURVE",
"166 449 OFFCURVE",
"172 437 CURVE",
"100 360 OFFCURVE",
"44 250 OFFCURVE",
"44 149 CURVE SMOOTH",
"44 10 OFFCURVE",
"158 -103 OFFCURVE",
"322 -103 CURVE SMOOTH",
"499 -103 OFFCURVE",
"632 14 OFFCURVE",
"714 160 CURVE SMOOTH",
"716 163 OFFCURVE",
"717 166 OFFCURVE",
"717 169 CURVE SMOOTH",
"717 177 OFFCURVE",
"710 183 OFFCURVE",
"701 183 CURVE",
"696 182 OFFCURVE",
"692 180 OFFCURVE",
"690 176 CURVE SMOOTH",
"561 -21 OFFCURVE",
"433 -71 OFFCURVE",
"324 -71 CURVE SMOOTH",
"177 -71 OFFCURVE",
"78 27 OFFCURVE",
"78 152 CURVE SMOOTH",
"78 247 OFFCURVE",
"128 338 OFFCURVE",
"192 413 CURVE",
"245 361 OFFCURVE",
"354 335 OFFCURVE",
"432 335 CURVE SMOOTH",
"560 335 OFFCURVE",
"721 366 OFFCURVE",
"801 461 CURVE SMOOTH",
"822 485 OFFCURVE",
"837 515 OFFCURVE",
"837 546 CURVE SMOOTH"
);
},
{
closed = 1;
nodes = (
"803 516 OFFCURVE",
"789 490 OFFCURVE",
"770 469 CURVE SMOOTH",
"695 389 OFFCURVE",
"545 364 OFFCURVE",
"432 364 CURVE SMOOTH",
"366 364 OFFCURVE",
"252 383 OFFCURVE",
"212 432 CURVE",
"311 531 OFFCURVE",
"459 603 OFFCURVE",
"608 625 CURVE SMOOTH",
"626 628 OFFCURVE",
"645 629 OFFCURVE",
"663 629 CURVE SMOOTH",
"726 629 OFFCURVE",
"803 608 OFFCURVE",
"803 543 CURVE SMOOTH"
);
}
);
};
layerId = "6A041D6C-A676-4DB4-A570-80A8F8AA896B";
paths = (
{
closed = 1;
nodes = (
"499 -103 OFFCURVE",
"632 14 OFFCURVE",
"714 160 CURVE SMOOTH",
"716 163 OFFCURVE",
"717 166 OFFCURVE",
"717 169 CURVE SMOOTH",
"717 177 OFFCURVE",
"710 183 OFFCURVE",
"701 183 CURVE",
"696 182 OFFCURVE",
"692 180 OFFCURVE",
"690 176 CURVE SMOOTH",
"561 -21 OFFCURVE",
"433 -71 OFFCURVE",
"324 -71 CURVE SMOOTH",
"177 -71 OFFCURVE",
"78 27 OFFCURVE",
"78 152 CURVE SMOOTH",
"78 247 OFFCURVE",
"128 338 OFFCURVE",
"192 413 CURVE",
"245 361 OFFCURVE",
"354 335 OFFCURVE",
"432 335 CURVE SMOOTH",
"560 335 OFFCURVE",
"721 366 OFFCURVE",
"801 461 CURVE SMOOTH",
"822 485 OFFCURVE",
"837 515 OFFCURVE",
"837 546 CURVE SMOOTH",
"837 627 OFFCURVE",
"740 657 OFFCURVE",
"661 657 CURVE SMOOTH",
"641 657 OFFCURVE",
"621 656 OFFCURVE",
"601 653 CURVE SMOOTH",
"448 631 OFFCURVE",
"301 561 OFFCURVE",
"197 461 CURVE",
"197 469 OFFCURVE",
"198 476 OFFCURVE",
"198 484 CURVE SMOOTH",
"198 493 OFFCURVE",
"189 499 OFFCURVE",
"179 499 CURVE SMOOTH",
"165 499 OFFCURVE",
"164 488 OFFCURVE",
"164 478 CURVE SMOOTH",
"164 474 LINE SMOOTH",
"164 462 OFFCURVE",
"166 449 OFFCURVE",
"172 437 CURVE",
"100 360 OFFCURVE",
"44 250 OFFCURVE",
"44 149 CURVE SMOOTH",
"44 10 OFFCURVE",
"158 -103 OFFCURVE",
"322 -103 CURVE SMOOTH"
);
},
{
closed = 1;
nodes = (
"366 364 OFFCURVE",
"252 383 OFFCURVE",
"212 432 CURVE",
"311 531 OFFCURVE",
"459 603 OFFCURVE",
"608 625 CURVE SMOOTH",
"626 628 OFFCURVE",
"645 629 OFFCURVE",
"663 629 CURVE SMOOTH",
"726 629 OFFCURVE",
"803 608 OFFCURVE",
"803 543 CURVE SMOOTH",
"803 516 OFFCURVE",
"789 490 OFFCURVE",
"770 469 CURVE SMOOTH",
"695 389 OFFCURVE",
"545 364 OFFCURVE",
"432 364 CURVE SMOOTH"
);
}
);
width = 650;
}
);
note = C;
unicode = 0043;
},
{
glyphname = D;
lastChange = "2022-02-07 22:19:05 +0000";
layers = (
{
background = {
paths = (
{
closed = 1;
nodes = (
"923 497 OFFCURVE",
"789 553 OFFCURVE",
"657 572 CURVE",
"660 576 OFFCURVE",
"663 583 OFFCURVE",
"663 588 CURVE SMOOTH",
"663 595 OFFCURVE",
"656 601 OFFCURVE",
"648 601 CURVE SMOOTH",
"639 601 OFFCURVE",
"636 597 OFFCURVE",
"632 591 CURVE SMOOTH",
"627 585 OFFCURVE",
"621 581 OFFCURVE",
"615 576 CURVE",
"582 579 OFFCURVE",
"549 580 OFFCURVE",
"516 580 CURVE SMOOTH",
"493 580 OFFCURVE",
"470 580 OFFCURVE",
"447 578 CURVE SMOOTH",
"383 573 OFFCURVE",
"320 565 OFFCURVE",
"259 547 CURVE SMOOTH",
"134 510 OFFCURVE",
"22 428 OFFCURVE",
"22 305 CURVE SMOOTH",
"22 254 OFFCURVE",
"48 186 OFFCURVE",
"110 170 CURVE SMOOTH",
"111 170 OFFCURVE",
"113 169 OFFCURVE",
"115 169 CURVE SMOOTH",
"124 169 OFFCURVE",
"131 177 OFFCURVE",
"131 185 CURVE SMOOTH",
"131 193 OFFCURVE",
"126 195 OFFCURVE",
"119 198 CURVE SMOOTH",
"93 208 OFFCURVE",
"82 219 OFFCURVE",
"71 241 CURVE SMOOTH",
"60 261 OFFCURVE",
"56 283 OFFCURVE",
"56 305 CURVE SMOOTH",
"56 416 OFFCURVE",
"165 489 OFFCURVE",
"276 521 CURVE SMOOTH",
"333 537 OFFCURVE",
"390 545 OFFCURVE",
"449 550 CURVE SMOOTH",
"472 552 OFFCURVE",
"496 553 OFFCURVE",
"519 553 CURVE SMOOTH",
"542 553 OFFCURVE",
"565 552 OFFCURVE",
"587 550 CURVE",
"576 541 OFFCURVE",
"566 532 OFFCURVE",
"557 522 CURVE SMOOTH",
"527 488 OFFCURVE",
"500 450 OFFCURVE",
"473 414 CURVE SMOOTH",
"411 328 OFFCURVE",
"341 231 OFFCURVE",
"303 135 CURVE",
"302 131 OFFCURVE",
"300 128 OFFCURVE",
"298 124 CURVE",
"226 102 OFFCURVE",
"114 59 OFFCURVE",
"114 -21 CURVE SMOOTH",
"114 -76 OFFCURVE",
"195 -82 OFFCURVE",
"242 -82 CURVE SMOOTH",
"312 -82 OFFCURVE",
"386 -70 OFFCURVE",
"454 -53 CURVE SMOOTH",
"656 -4 OFFCURVE",
"923 162 OFFCURVE",
"923 363 CURVE SMOOTH"
);
},
{
closed = 1;
nodes = (
"890 176 OFFCURVE",
"632 20 OFFCURVE",
"446 -25 CURVE SMOOTH",
"378 -42 OFFCURVE",
"303 -55 OFFCURVE",
"232 -55 CURVE SMOOTH",
"208 -55 OFFCURVE",
"148 -53 OFFCURVE",
"148 -22 CURVE SMOOTH",
"148 38 OFFCURVE",
"237 71 OFFCURVE",
"290 88 CURVE",
"288 57 OFFCURVE",
"290 5 OFFCURVE",
"328 -10 CURVE SMOOTH",
"330 -11 OFFCURVE",
"333 -11 OFFCURVE",
"335 -11 CURVE SMOOTH",
"343 -11 OFFCURVE",
"350 -4 OFFCURVE",
"350 3 CURVE SMOOTH",
"350 22 OFFCURVE",
"318 8 OFFCURVE",
"318 55 CURVE SMOOTH",
"318 70 OFFCURVE",
"322 85 OFFCURVE",
"326 100 CURVE",
"382 112 OFFCURVE",
"441 120 OFFCURVE",
"498 120 CURVE SMOOTH",
"525 120 OFFCURVE",
"554 119 OFFCURVE",
"573 102 CURVE SMOOTH",
"577 98 OFFCURVE",
"580 96 OFFCURVE",
"587 96 CURVE SMOOTH",
"595 96 OFFCURVE",
"604 102 OFFCURVE",
"604 110 CURVE SMOOTH",
"604 114 OFFCURVE",
"602 116 OFFCURVE",
"600 119 CURVE",
"577 144 OFFCURVE",
"531 149 OFFCURVE",
"497 149 CURVE SMOOTH",
"444 149 OFFCURVE",
"390 142 OFFCURVE",
"338 133 CURVE",
"378 232 OFFCURVE",
"508 417 OFFCURVE",
"584 504 CURVE SMOOTH",
"597 519 OFFCURVE",
"611 533 OFFCURVE",
"626 547 CURVE",
"749 534 OFFCURVE",
"890 491 OFFCURVE",
"890 363 CURVE SMOOTH"
);
}
);
};
layerId = "6A041D6C-A676-4DB4-A570-80A8F8AA896B";
paths = (
{
closed = 1;
nodes = (
"312 -82 OFFCURVE",
"386 -70 OFFCURVE",
"454 -53 CURVE SMOOTH",
"656 -4 OFFCURVE",
"923 162 OFFCURVE",
"923 363 CURVE SMOOTH",
"923 497 OFFCURVE",
"789 553 OFFCURVE",
"657 572 CURVE",
"660 576 OFFCURVE",
"663 583 OFFCURVE",
"663 588 CURVE SMOOTH",
"663 595 OFFCURVE",
"656 601 OFFCURVE",
"648 601 CURVE SMOOTH",
"639 601 OFFCURVE",
"636 597 OFFCURVE",
"632 591 CURVE SMOOTH",
"627 585 OFFCURVE",
"621 581 OFFCURVE",
"615 576 CURVE",
"582 579 OFFCURVE",
"549 580 OFFCURVE",
"516 580 CURVE SMOOTH",
"493 580 OFFCURVE",
"470 580 OFFCURVE",
"447 578 CURVE SMOOTH",
"383 573 OFFCURVE",
"320 565 OFFCURVE",
"259 547 CURVE SMOOTH",
"134 510 OFFCURVE",
"22 428 OFFCURVE",
"22 305 CURVE SMOOTH",
"22 254 OFFCURVE",
"48 186 OFFCURVE",
"110 170 CURVE SMOOTH",
"111 170 OFFCURVE",
"113 169 OFFCURVE",
"115 169 CURVE SMOOTH",
"124 169 OFFCURVE",
"131 177 OFFCURVE",
"131 185 CURVE SMOOTH",
"131 193 OFFCURVE",
"126 195 OFFCURVE",
"119 198 CURVE SMOOTH",
"93 208 OFFCURVE",
"82 219 OFFCURVE",
"71 241 CURVE SMOOTH",
"60 261 OFFCURVE",
"56 283 OFFCURVE",
"56 305 CURVE SMOOTH",
"56 416 OFFCURVE",
"165 489 OFFCURVE",
"276 521 CURVE SMOOTH",
"333 537 OFFCURVE",
"390 545 OFFCURVE",
"449 550 CURVE SMOOTH",
"472 552 OFFCURVE",
"496 553 OFFCURVE",
"519 553 CURVE SMOOTH",
"542 553 OFFCURVE",
"565 552 OFFCURVE",
"587 550 CURVE",
"576 541 OFFCURVE",
"566 532 OFFCURVE",
"557 522 CURVE SMOOTH",
"527 488 OFFCURVE",
"500 450 OFFCURVE",
"473 414 CURVE SMOOTH",
"411 328 OFFCURVE",
"341 231 OFFCURVE",
"303 135 CURVE",
"302 131 OFFCURVE",
"300 128 OFFCURVE",
"298 124 CURVE",
"226 102 OFFCURVE",
"114 59 OFFCURVE",
"114 -21 CURVE SMOOTH",
"114 -76 OFFCURVE",
"195 -82 OFFCURVE",
"242 -82 CURVE SMOOTH"
);
},
{
closed = 1;
nodes = (
"208 -55 OFFCURVE",
"148 -53 OFFCURVE",
"148 -22 CURVE SMOOTH",
"148 38 OFFCURVE",
"237 71 OFFCURVE",
"290 88 CURVE",
"288 57 OFFCURVE",
"290 5 OFFCURVE",
"328 -10 CURVE SMOOTH",
"330 -11 OFFCURVE",
"333 -11 OFFCURVE",
"335 -11 CURVE SMOOTH",
"343 -11 OFFCURVE",
"350 -4 OFFCURVE",
"350 3 CURVE SMOOTH",
"350 22 OFFCURVE",
"318 8 OFFCURVE",
"318 55 CURVE SMOOTH",
"318 70 OFFCURVE",
"322 85 OFFCURVE",
"326 100 CURVE",
"382 112 OFFCURVE",
"441 120 OFFCURVE",
"498 120 CURVE SMOOTH",
"525 120 OFFCURVE",
"554 119 OFFCURVE",
"573 102 CURVE SMOOTH",
"577 98 OFFCURVE",
"580 96 OFFCURVE",
"587 96 CURVE SMOOTH",
"595 96 OFFCURVE",
"604 102 OFFCURVE",
"604 110 CURVE SMOOTH",
"604 114 OFFCURVE",
"602 116 OFFCURVE",
"600 119 CURVE",
"577 144 OFFCURVE",
"531 149 OFFCURVE",
"497 149 CURVE SMOOTH",
"444 149 OFFCURVE",
"390 142 OFFCURVE",
"338 133 CURVE",
"378 232 OFFCURVE",
"508 417 OFFCURVE",
"584 504 CURVE SMOOTH",
"597 519 OFFCURVE",
"611 533 OFFCURVE",
"626 547 CURVE",
"749 534 OFFCURVE",
"890 491 OFFCURVE",
"890 363 CURVE SMOOTH",
"890 176 OFFCURVE",
"632 20 OFFCURVE",
"446 -25 CURVE SMOOTH",
"378 -42 OFFCURVE",
"303 -55 OFFCURVE",
"232 -55 CURVE SMOOTH"
);
}
);
width = 910;
}
);
note = D;
unicode = 0044;
},
{
glyphname = Eth;
lastChange = "2022-02-07 22:19:06 +0000";
layers = (
{
background = {
paths = (
{
closed = 1;
nodes = (
"462 183 OFFCURVE",
"404 182 OFFCURVE",
"396 182 CURVE SMOOTH",
"385 182 OFFCURVE",
"375 181 OFFCURVE",
"364 181 CURVE",
"402 258 OFFCURVE",
"468 367 OFFCURVE",
"584 504 CURVE SMOOTH",
"597 519 OFFCURVE",
"611 533 OFFCURVE",
"626 547 CURVE",
"749 534 OFFCURVE",
"890 491 OFFCURVE",
"890 363 CURVE SMOOTH",
"890 176 OFFCURVE",
"632 20 OFFCURVE",
"446 -25 CURVE SMOOTH",
"378 -42 OFFCURVE",
"303 -55 OFFCURVE",
"232 -55 CURVE SMOOTH",
"208 -55 OFFCURVE",
"148 -53 OFFCURVE",
"148 -22 CURVE SMOOTH",
"148 -5 OFFCURVE",
"127 11 OFFCURVE",
"114 -21 CURVE",
"114 -76 OFFCURVE",
"195 -82 OFFCURVE",
"242 -82 CURVE SMOOTH",
"312 -82 OFFCURVE",
"386 -70 OFFCURVE",
"454 -53 CURVE SMOOTH",
"656 -4 OFFCURVE",
"923 162 OFFCURVE",
"923 363 CURVE SMOOTH",
"923 497 OFFCURVE",
"789 553 OFFCURVE",
"657 572 CURVE",
"660 576 OFFCURVE",
"663 583 OFFCURVE",
"663 588 CURVE SMOOTH",
"663 595 OFFCURVE",
"656 601 OFFCURVE",
"648 601 CURVE SMOOTH",
"639 601 OFFCURVE",
"636 597 OFFCURVE",
"632 591 CURVE SMOOTH",
"627 585 OFFCURVE",
"621 581 OFFCURVE",
"615 576 CURVE",
"582 579 OFFCURVE",
"549 580 OFFCURVE",
"516 580 CURVE SMOOTH",
"493 580 OFFCURVE",
"470 580 OFFCURVE",
"447 578 CURVE SMOOTH",
"383 573 OFFCURVE",
"320 565 OFFCURVE",
"259 547 CURVE SMOOTH",
"134 510 OFFCURVE",
"22 428 OFFCURVE",
"22 305 CURVE SMOOTH",
"22 254 OFFCURVE",
"48 186 OFFCURVE",
"110 170 CURVE SMOOTH",
"111 170 OFFCURVE",
"113 169 OFFCURVE",
"115 169 CURVE SMOOTH",
"124 169 OFFCURVE",
"131 177 OFFCURVE",
"131 185 CURVE SMOOTH",
"131 193 OFFCURVE",
"126 195 OFFCURVE",
"119 198 CURVE SMOOTH",
"93 208 OFFCURVE",
"82 219 OFFCURVE",
"71 241 CURVE SMOOTH",
"60 261 OFFCURVE",
"56 283 OFFCURVE",
"56 305 CURVE SMOOTH",
"56 416 OFFCURVE",
"165 489 OFFCURVE",
"276 521 CURVE SMOOTH",
"333 537 OFFCURVE",
"390 545 OFFCURVE",
"449 550 CURVE SMOOTH",
"472 552 OFFCURVE",
"496 553 OFFCURVE",
"519 553 CURVE SMOOTH",
"542 553 OFFCURVE",
"565 552 OFFCURVE",
"587 550 CURVE",
"576 541 OFFCURVE",
"566 532 OFFCURVE",
"557 522 CURVE SMOOTH",
"484 440 OFFCURVE",
"378 287 OFFCURVE",
"326 180 CURVE",
"295 179 OFFCURVE",
"265 173 OFFCURVE",
"234 173 CURVE SMOOTH",
"230 173 OFFCURVE",
"230 167 OFFCURVE",
"230 164 CURVE SMOOTH",
"230 158 OFFCURVE",
"232 145 OFFCURVE",
"238 145 CURVE SMOOTH",
"247 145 OFFCURVE",
"277 146 OFFCURVE",
"312 147 CURVE",
"305 131 OFFCURVE",
"300 117 OFFCURVE",
"298 105 CURVE SMOOTH",
"279 15 OFFCURVE",
"306 -1 OFFCURVE",
"328 -10 CURVE SMOOTH",
"330 -11 OFFCURVE",
"333 -11 OFFCURVE",
"335 -11 CURVE SMOOTH",
"343 -11 OFFCURVE",
"350 -4 OFFCURVE",
"350 3 CURVE SMOOTH",
"350 22 OFFCURVE",
"313 32 OFFCURVE",
"318 55 CURVE SMOOTH",
"321 70 OFFCURVE",
"329 102 OFFCURVE",
"350 149 CURVE",
"402 152 OFFCURVE",
"454 157 OFFCURVE",
"459 161 CURVE SMOOTH",
"460 162 OFFCURVE",
"462 165 OFFCURVE",
"462 168 CURVE SMOOTH"
);
}
);
};
layerId = "6A041D6C-A676-4DB4-A570-80A8F8AA896B";
paths = (
{
closed = 1;
nodes = (
"312 -82 OFFCURVE",
"386 -70 OFFCURVE",
"454 -53 CURVE SMOOTH",
"656 -4 OFFCURVE",
"923 162 OFFCURVE",
"923 363 CURVE SMOOTH",
"923 497 OFFCURVE",
"789 553 OFFCURVE",
"657 572 CURVE",
"660 576 OFFCURVE",
"663 583 OFFCURVE",
"663 588 CURVE SMOOTH",
"663 595 OFFCURVE",
"656 601 OFFCURVE",
"648 601 CURVE SMOOTH",
"639 601 OFFCURVE",
"636 597 OFFCURVE",
"632 591 CURVE SMOOTH",
"627 585 OFFCURVE",
"621 581 OFFCURVE",
"615 576 CURVE",
"582 579 OFFCURVE",
"549 580 OFFCURVE",
"516 580 CURVE SMOOTH",
"493 580 OFFCURVE",
"470 580 OFFCURVE",
"447 578 CURVE SMOOTH",
"383 573 OFFCURVE",
"320 565 OFFCURVE",
"259 547 CURVE SMOOTH",
"134 510 OFFCURVE",
"22 428 OFFCURVE",
"22 305 CURVE SMOOTH",
"22 254 OFFCURVE",
"48 186 OFFCURVE",
"110 170 CURVE SMOOTH",
"111 170 OFFCURVE",
"113 169 OFFCURVE",
"115 169 CURVE SMOOTH",
"124 169 OFFCURVE",
"131 177 OFFCURVE",
"131 185 CURVE SMOOTH",
"131 193 OFFCURVE",
"126 195 OFFCURVE",
"119 198 CURVE SMOOTH",
"93 208 OFFCURVE",
"82 219 OFFCURVE",
"71 241 CURVE SMOOTH",
"60 261 OFFCURVE",
"56 283 OFFCURVE",
"56 305 CURVE SMOOTH",
"56 416 OFFCURVE",
"165 489 OFFCURVE",
"276 521 CURVE SMOOTH",
"333 537 OFFCURVE",
"390 545 OFFCURVE",
"449 550 CURVE SMOOTH",
"472 552 OFFCURVE",
"496 553 OFFCURVE",
"519 553 CURVE SMOOTH",
"542 553 OFFCURVE",
"565 552 OFFCURVE",
"587 550 CURVE",
"576 541 OFFCURVE",
"566 532 OFFCURVE",
"557 522 CURVE SMOOTH",
"484 440 OFFCURVE",
"378 287 OFFCURVE",
"326 180 CURVE",
"295 179 OFFCURVE",
"265 173 OFFCURVE",
"234 173 CURVE SMOOTH",
"230 173 OFFCURVE",
"230 167 OFFCURVE",
"230 164 CURVE SMOOTH",
"230 158 OFFCURVE",
"232 145 OFFCURVE",
"238 145 CURVE SMOOTH",
"312 147 LINE",
"305 131 OFFCURVE",
"300 117 OFFCURVE",
"298 105 CURVE SMOOTH",
"293 84 OFFCURVE",
"292 66 OFFCURVE",
"292 52 CURVE SMOOTH",
"292 8 OFFCURVE",
"311 -3 OFFCURVE",
"328 -10 CURVE SMOOTH",
"330 -11 OFFCURVE",
"333 -11 OFFCURVE",
"335 -11 CURVE SMOOTH",
"343 -11 OFFCURVE",
"350 -4 OFFCURVE",
"350 3 CURVE SMOOTH",
"350 22 OFFCURVE",
"313 32 OFFCURVE",
"318 55 CURVE SMOOTH",
"321 70 OFFCURVE",
"329 102 OFFCURVE",
"350 149 CURVE",
"402 152 OFFCURVE",
"454 157 OFFCURVE",
"459 161 CURVE SMOOTH",
"460 162 OFFCURVE",
"462 165 OFFCURVE",
"462 168 CURVE SMOOTH",
"462 181 OFFCURVE",
"417 182 OFFCURVE",
"401 182 CURVE SMOOTH",
"388 182 OFFCURVE",
"377 181 OFFCURVE",
"364 181 CURVE",
"402 258 OFFCURVE",
"468 367 OFFCURVE",
"584 504 CURVE SMOOTH",
"597 519 OFFCURVE",
"611 533 OFFCURVE",
"626 547 CURVE",
"749 534 OFFCURVE",
"890 491 OFFCURVE",
"890 363 CURVE SMOOTH",
"890 176 OFFCURVE",
"632 20 OFFCURVE",
"446 -25 CURVE SMOOTH",
"378 -42 OFFCURVE",
"303 -55 OFFCURVE",
"232 -55 CURVE SMOOTH",
"208 -55 OFFCURVE",
"148 -53 OFFCURVE",
"148 -22 CURVE SMOOTH",
"148 -12 OFFCURVE",
"141 -3 OFFCURVE",
"132 -3 CURVE SMOOTH",
"126 -3 OFFCURVE",
"119 -8 OFFCURVE",
"114 -21 CURVE",
"114 -76 OFFCURVE",
"195 -82 OFFCURVE",
"242 -82 CURVE SMOOTH"
);
}
);
width = 910;
}
);
note = Eth;
unicode = 00D0;
},
{
glyphname = E;
lastChange = "2022-02-07 22:19:05 +0000";
layers = (
{
background = {
paths = (
{
closed = 1;
nodes = (
"798 621 OFFCURVE",
"730 633 OFFCURVE",
"676 633 CURVE SMOOTH",
"553 633 OFFCURVE",
"389 579 OFFCURVE",
"325 483 CURVE SMOOTH",
"311 462 OFFCURVE",
"300 437 OFFCURVE",
"300 412 CURVE SMOOTH",
"300 386 OFFCURVE",
"313 365 OFFCURVE",
"336 348 CURVE",
"206 313 OFFCURVE",
"102 246 OFFCURVE",
"52 133 CURVE SMOOTH",
"43 114 OFFCURVE",
"38 93 OFFCURVE",
"38 72 CURVE SMOOTH",
"38 -42 OFFCURVE",
"177 -85 OFFCURVE",
"287 -84 CURVE SMOOTH",
"299 -84 LINE SMOOTH",
"433 -83 OFFCURVE",
"559 -38 OFFCURVE",
"661 38 CURVE SMOOTH",
"688 58 OFFCURVE",
"719 85 OFFCURVE",
"736 112 CURVE SMOOTH",
"748 132 OFFCURVE",
"757 155 OFFCURVE",
"757 178 CURVE SMOOTH",
"757 218 OFFCURVE",
"726 249 OFFCURVE",
"678 249 CURVE SMOOTH",
"669 249 OFFCURVE",
"661 243 OFFCURVE",
"661 234 CURVE SMOOTH",
"661 208 OFFCURVE",
"723 235 OFFCURVE",
"723 178 CURVE SMOOTH",
"723 160 OFFCURVE",
"716 142 OFFCURVE",
"706 126 CURVE SMOOTH",
"693 104 OFFCURVE",
"668 82 OFFCURVE",
"647 65 CURVE SMOOTH",
"551 -10 OFFCURVE",
"426 -50 OFFCURVE",
"298 -55 CURVE SMOOTH",
"294 -55 OFFCURVE",
"290 -55 OFFCURVE",
"286 -55 CURVE SMOOTH",
"194 -55 OFFCURVE",
"71 -23 OFFCURVE",
"71 74 CURVE SMOOTH",
"71 91 OFFCURVE",
"75 108 OFFCURVE",
"82 124 CURVE SMOOTH",
"128 231 OFFCURVE",
"230 290 OFFCURVE",
"352 320 CURVE SMOOTH",
"360 322 OFFCURVE",
"367 324 OFFCURVE",
"375 325 CURVE",
"400 315 OFFCURVE",
"428 312 OFFCURVE",
"455 312 CURVE SMOOTH",
"471 312 OFFCURVE",
"488 313 OFFCURVE",
"505 315 CURVE SMOOTH",
"524 317 OFFCURVE",
"569 331 OFFCURVE",
"569 352 CURVE SMOOTH",
"569 368 OFFCURVE",
"538 369 OFFCURVE",
"527 369 CURVE SMOOTH",
"476 369 OFFCURVE",
"426 365 OFFCURVE",
"376 356 CURVE",
"351 368 OFFCURVE",
"334 386 OFFCURVE",
"334 412 CURVE SMOOTH",
"334 432 OFFCURVE",
"343 451 OFFCURVE",
"354 468 CURVE SMOOTH",
"415 559 OFFCURVE",
"570 606 OFFCURVE",
"685 606 CURVE SMOOTH",
"720 606 OFFCURVE",
"766 600 OFFCURVE",
"766 561 CURVE SMOOTH",
"766 543 OFFCURVE",
"750 511 OFFCURVE",
"724 511 CURVE SMOOTH",
"718 511 OFFCURVE",
"714 515 OFFCURVE",
"708 515 CURVE SMOOTH",
"699 515 OFFCURVE",
"692 507 OFFCURVE",
"692 500 CURVE SMOOTH",
"692 488 OFFCURVE",
"708 484 OFFCURVE",
"719 484 CURVE SMOOTH",
"764 484 OFFCURVE",
"798 526 OFFCURVE",
"798 562 CURVE SMOOTH"
);
}
);
};
layerId = "6A041D6C-A676-4DB4-A570-80A8F8AA896B";
paths = (
{
closed = 1;
nodes = (
"299 -84 LINE SMOOTH",
"433 -83 OFFCURVE",
"559 -38 OFFCURVE",
"661 38 CURVE SMOOTH",
"688 58 OFFCURVE",
"719 85 OFFCURVE",
"736 112 CURVE SMOOTH",
"748 132 OFFCURVE",
"757 155 OFFCURVE",
"757 178 CURVE SMOOTH",
"757 218 OFFCURVE",
"726 249 OFFCURVE",
"678 249 CURVE SMOOTH",
"669 249 OFFCURVE",
"661 243 OFFCURVE",
"661 234 CURVE SMOOTH",
"661 208 OFFCURVE",
"723 235 OFFCURVE",
"723 178 CURVE SMOOTH",
"723 160 OFFCURVE",
"716 142 OFFCURVE",
"706 126 CURVE SMOOTH",
"693 104 OFFCURVE",
"668 82 OFFCURVE",
"647 65 CURVE SMOOTH",
"551 -10 OFFCURVE",
"426 -50 OFFCURVE",
"298 -55 CURVE SMOOTH",
"286 -55 LINE SMOOTH",
"194 -55 OFFCURVE",
"71 -23 OFFCURVE",
"71 74 CURVE SMOOTH",
"71 91 OFFCURVE",
"75 108 OFFCURVE",
"82 124 CURVE SMOOTH",
"128 231 OFFCURVE",
"230 290 OFFCURVE",
"352 320 CURVE SMOOTH",
"360 322 OFFCURVE",
"367 324 OFFCURVE",
"375 325 CURVE",
"400 315 OFFCURVE",
"428 312 OFFCURVE",
"455 312 CURVE SMOOTH",
"471 312 OFFCURVE",
"488 313 OFFCURVE",
"505 315 CURVE SMOOTH",
"524 317 OFFCURVE",
"569 331 OFFCURVE",
"569 352 CURVE SMOOTH",
"569 368 OFFCURVE",
"538 369 OFFCURVE",
"527 369 CURVE SMOOTH",
"476 369 OFFCURVE",
"426 365 OFFCURVE",
"376 356 CURVE",
"351 368 OFFCURVE",
"334 386 OFFCURVE",
"334 412 CURVE SMOOTH",
"334 432 OFFCURVE",
"343 451 OFFCURVE",
"354 468 CURVE SMOOTH",
"415 559 OFFCURVE",
"570 606 OFFCURVE",
"685 606 CURVE SMOOTH",
"720 606 OFFCURVE",
"766 600 OFFCURVE",
"766 561 CURVE SMOOTH",
"766 543 OFFCURVE",
"750 511 OFFCURVE",
"724 511 CURVE SMOOTH",
"718 511 OFFCURVE",
"714 515 OFFCURVE",
"708 515 CURVE SMOOTH",
"699 515 OFFCURVE",
"692 507 OFFCURVE",
"692 500 CURVE SMOOTH",
"692 488 OFFCURVE",
"708 484 OFFCURVE",
"719 484 CURVE SMOOTH",
"764 484 OFFCURVE",
"798 526 OFFCURVE",
"798 562 CURVE SMOOTH",
"798 621 OFFCURVE",
"730 633 OFFCURVE",
"676 633 CURVE SMOOTH",
"553 633 OFFCURVE",
"389 579 OFFCURVE",
"325 483 CURVE SMOOTH",
"311 462 OFFCURVE",
"300 437 OFFCURVE",
"300 412 CURVE SMOOTH",
"300 386 OFFCURVE",
"313 365 OFFCURVE",
"336 348 CURVE",
"206 313 OFFCURVE",
"102 246 OFFCURVE",
"52 133 CURVE SMOOTH",
"43 114 OFFCURVE",
"38 93 OFFCURVE",
"38 72 CURVE SMOOTH",
"38 -42 OFFCURVE",
"177 -85 OFFCURVE",
"287 -84 CURVE SMOOTH"
);
}
);
width = 724;
}
);
note = E;
unicode = 0045;
},
{
glyphname = F;
lastChange = "2022-02-07 22:19:05 +0000";
layers = (
{
background = {
paths = (
{
closed = 1;
nodes = (
"1157 553 OFFCURVE",
"1147 559 OFFCURVE",
"1138 559 CURVE SMOOTH",
"1129 559 OFFCURVE",
"1126 555 OFFCURVE",
"1122 548 CURVE SMOOTH",
"1109 523 OFFCURVE",
"1082 516 OFFCURVE",
"1052 516 CURVE SMOOTH",
"970 516 OFFCURVE",
"793 581 OFFCURVE",
"712 607 CURVE",
"715 620 OFFCURVE",
"721 636 OFFCURVE",
"721 649 CURVE SMOOTH",
"721 657 OFFCURVE",
"713 662 OFFCURVE",
"704 662 CURVE SMOOTH",
"695 662 OFFCURVE",
"691 658 OFFCURVE",
"688 651 CURVE SMOOTH",
"684 641 OFFCURVE",
"681 628 OFFCURVE",
"678 618 CURVE",
"570 651 OFFCURVE",
"438 685 OFFCURVE",
"323 685 CURVE SMOOTH",
"304 685 OFFCURVE",
"285 684 OFFCURVE",
"267 682 CURVE SMOOTH",
"189 673 OFFCURVE",
"83 616 OFFCURVE",
"83 540 CURVE SMOOTH",
"83 487 OFFCURVE",
"136 445 OFFCURVE",
"195 445 CURVE SMOOTH",
"205 445 OFFCURVE",
"212 451 OFFCURVE",
"212 459 CURVE SMOOTH",
"212 467 OFFCURVE",
"205 473 OFFCURVE",
"195 473 CURVE SMOOTH",
"153 473 OFFCURVE",
"116 504 OFFCURVE",
"116 542 CURVE SMOOTH",
"116 603 OFFCURVE",
"211 645 OFFCURVE",
"271 653 CURVE SMOOTH",
"291 655 OFFCURVE",
"310 656 OFFCURVE",
"330 656 CURVE SMOOTH",
"441 656 OFFCURVE",
"567 622 OFFCURVE",
"673 591 CURVE",
"648 489 OFFCURVE",
"616 387 OFFCURVE",
"573 290 CURVE",
"527 286 OFFCURVE",
"481 282 OFFCURVE",
"435 282 CURVE SMOOTH",
"426 282 OFFCURVE",
"398 282 OFFCURVE",
"398 293 CURVE SMOOTH",
"398 305 OFFCURVE",
"422 306 OFFCURVE",
"422 319 CURVE SMOOTH",
"422 327 OFFCURVE",
"415 334 OFFCURVE",
"406 334 CURVE SMOOTH",
"386 334 OFFCURVE",
"361 305 OFFCURVE",
"361 289 CURVE SMOOTH",
"361 258 OFFCURVE",
"406 253 OFFCURVE",
"433 253 CURVE SMOOTH",
"474 253 OFFCURVE",
"516 255 OFFCURVE",
"558 258 CURVE",
"552 247 OFFCURVE",
"547 236 OFFCURVE",
"540 226 CURVE SMOOTH",
"474 118 OFFCURVE",
"355 -18 OFFCURVE",
"198 -18 CURVE SMOOTH",
"112 -18 OFFCURVE",
"63 33 OFFCURVE",
"63 105 CURVE SMOOTH",
"63 111 OFFCURVE",
"63 117 OFFCURVE",
"64 123 CURVE SMOOTH",
"72 167 OFFCURVE",
"113 215 OFFCURVE",
"156 238 CURVE SMOOTH",
"165 243 OFFCURVE",
"174 245 OFFCURVE",
"184 249 CURVE SMOOTH",
"192 252 OFFCURVE",
"196 255 OFFCURVE",
"196 263 CURVE SMOOTH",
"196 271 OFFCURVE",
"190 278 OFFCURVE",
"180 278 CURVE SMOOTH",
"179 278 OFFCURVE",
"177 277 OFFCURVE",
"175 277 CURVE",
"98 256 OFFCURVE",
"31 176 OFFCURVE",
"31 107 CURVE SMOOTH",
"31 18 OFFCURVE",
"90 -47 OFFCURVE",
"198 -47 CURVE SMOOTH",
"389 -47 OFFCURVE",
"528 128 OFFCURVE",
"597 263 CURVE",
"639 266 OFFCURVE",
"698 273 OFFCURVE",
"739 273 CURVE SMOOTH",
"749 273 OFFCURVE",
"756 279 OFFCURVE",
"756 288 CURVE SMOOTH",
"756 296 OFFCURVE",
"749 302 OFFCURVE",
"739 302 CURVE SMOOTH",
"697 302 OFFCURVE",
"654 297 OFFCURVE",
"612 294 CURVE",
"654 387 OFFCURVE",
"681 485 OFFCURVE",
"706 582 CURVE",
"790 557 OFFCURVE",
"981 487 OFFCURVE",
"1063 487 CURVE SMOOTH",
"1103 487 OFFCURVE",
"1142 507 OFFCURVE",
"1156 540 CURVE",
"1156 541 OFFCURVE",
"1157 543 OFFCURVE",
"1157 545 CURVE SMOOTH"
);
}
);
};
layerId = "6A041D6C-A676-4DB4-A570-80A8F8AA896B";
paths = (
{
closed = 1;
nodes = (
"389 -47 OFFCURVE",
"528 128 OFFCURVE",
"597 263 CURVE",
"639 266 OFFCURVE",
"698 273 OFFCURVE",
"739 273 CURVE SMOOTH",
"749 273 OFFCURVE",
"756 279 OFFCURVE",
"756 288 CURVE SMOOTH",
"756 296 OFFCURVE",
"749 302 OFFCURVE",
"739 302 CURVE SMOOTH",
"697 302 OFFCURVE",
"654 297 OFFCURVE",
"612 294 CURVE",
"654 387 OFFCURVE",
"681 485 OFFCURVE",
"706 582 CURVE",
"790 557 OFFCURVE",
"981 487 OFFCURVE",
"1063 487 CURVE SMOOTH",
"1103 487 OFFCURVE",
"1142 507 OFFCURVE",
"1156 540 CURVE",
"1156 541 OFFCURVE",
"1157 543 OFFCURVE",
"1157 545 CURVE SMOOTH",
"1157 553 OFFCURVE",
"1147 559 OFFCURVE",
"1138 559 CURVE SMOOTH",
"1129 559 OFFCURVE",
"1126 555 OFFCURVE",
"1122 548 CURVE SMOOTH",
"1109 523 OFFCURVE",
"1082 516 OFFCURVE",
"1052 516 CURVE SMOOTH",
"970 516 OFFCURVE",
"793 581 OFFCURVE",
"712 607 CURVE",
"715 620 OFFCURVE",
"721 636 OFFCURVE",
"721 649 CURVE SMOOTH",
"721 657 OFFCURVE",
"713 662 OFFCURVE",
"704 662 CURVE SMOOTH",
"695 662 OFFCURVE",
"691 658 OFFCURVE",
"688 651 CURVE SMOOTH",
"684 641 OFFCURVE",
"681 628 OFFCURVE",
"678 618 CURVE",
"570 651 OFFCURVE",
"438 685 OFFCURVE",
"323 685 CURVE SMOOTH",
"304 685 OFFCURVE",
"285 684 OFFCURVE",
"267 682 CURVE SMOOTH",
"189 673 OFFCURVE",
"83 616 OFFCURVE",
"83 540 CURVE SMOOTH",
"83 487 OFFCURVE",
"136 445 OFFCURVE",
"195 445 CURVE SMOOTH",
"205 445 OFFCURVE",
"212 451 OFFCURVE",
"212 459 CURVE SMOOTH",
"212 467 OFFCURVE",
"205 473 OFFCURVE",
"195 473 CURVE SMOOTH",
"153 473 OFFCURVE",
"116 504 OFFCURVE",
"116 542 CURVE SMOOTH",
"116 603 OFFCURVE",
"211 645 OFFCURVE",
"271 653 CURVE SMOOTH",
"291 655 OFFCURVE",
"310 656 OFFCURVE",
"330 656 CURVE SMOOTH",
"441 656 OFFCURVE",
"567 622 OFFCURVE",
"673 591 CURVE",
"648 489 OFFCURVE",
"616 387 OFFCURVE",
"573 290 CURVE",
"527 286 OFFCURVE",
"481 282 OFFCURVE",
"435 282 CURVE SMOOTH",
"426 282 OFFCURVE",
"398 282 OFFCURVE",
"398 293 CURVE SMOOTH",
"398 305 OFFCURVE",
"422 306 OFFCURVE",
"422 319 CURVE SMOOTH",
"422 327 OFFCURVE",
"415 334 OFFCURVE",
"406 334 CURVE SMOOTH",
"386 334 OFFCURVE",
"361 305 OFFCURVE",
"361 289 CURVE SMOOTH",
"361 258 OFFCURVE",
"406 253 OFFCURVE",
"433 253 CURVE SMOOTH",
"474 253 OFFCURVE",
"516 255 OFFCURVE",
"558 258 CURVE",
"552 247 OFFCURVE",
"547 236 OFFCURVE",
"540 226 CURVE SMOOTH",
"474 118 OFFCURVE",
"355 -18 OFFCURVE",
"198 -18 CURVE SMOOTH",
"112 -18 OFFCURVE",
"63 33 OFFCURVE",
"63 105 CURVE SMOOTH",
"63 111 OFFCURVE",
"63 117 OFFCURVE",
"64 123 CURVE SMOOTH",
"72 167 OFFCURVE",
"113 215 OFFCURVE",
"156 238 CURVE SMOOTH",
"165 243 OFFCURVE",
"174 245 OFFCURVE",
"184 249 CURVE SMOOTH",
"192 252 OFFCURVE",
"196 255 OFFCURVE",
"196 263 CURVE SMOOTH",
"196 271 OFFCURVE",
"190 278 OFFCURVE",
"180 278 CURVE SMOOTH",
"179 278 OFFCURVE",
"177 277 OFFCURVE",
"175 277 CURVE",
"98 256 OFFCURVE",
"31 176 OFFCURVE",
"31 107 CURVE SMOOTH",
"31 18 OFFCURVE",
"90 -47 OFFCURVE",
"198 -47 CURVE SMOOTH"
);
}
);
width = 647;
}
);
note = F;
unicode = 0046;
},
{
glyphname = G;
lastChange = "2022-02-07 22:19:06 +0000";
layers = (
{
background = {
paths = (
{
closed = 1;
nodes = (
"922 623 OFFCURVE",
"852 649 OFFCURVE",
"784 649 CURVE SMOOTH",
"762 649 OFFCURVE",
"740 647 OFFCURVE",
"719 643 CURVE SMOOTH",
"561 613 OFFCURVE",
"436 532 OFFCURVE",
"332 427 CURVE",
"305 446 OFFCURVE",
"285 470 OFFCURVE",
"285 501 CURVE SMOOTH",
"285 518 OFFCURVE",
"295 528 OFFCURVE",
"295 538 CURVE SMOOTH",
"295 546 OFFCURVE",
"286 553 OFFCURVE",
"277 553 CURVE SMOOTH",
"258 553 OFFCURVE",
"252 513 OFFCURVE",
"252 500 CURVE SMOOTH",
"252 462 OFFCURVE",
"279 430 OFFCURVE",
"312 407 CURVE",
"289 381 OFFCURVE",
"266 355 OFFCURVE",
"245 328 CURVE SMOOTH",
"197 266 OFFCURVE",
"152 166 OFFCURVE",
"152 91 CURVE SMOOTH",
"152 39 OFFCURVE",
"174 -8 OFFCURVE",
"242 -8 CURVE SMOOTH",
"347 -8 OFFCURVE",
"475 84 OFFCURVE",
"545 146 CURVE SMOOTH",
"610 204 OFFCURVE",
"714 313 OFFCURVE",
"750 388 CURVE",
"762 391 LINE",
"718 241 OFFCURVE",
"653 84 OFFCURVE",
"557 -46 CURVE",
"492 -45 OFFCURVE",
"426 -47 OFFCURVE",
"362 -54 CURVE SMOOTH",
"234 -69 OFFCURVE",
"81 -105 OFFCURVE",
"-5 -196 CURVE SMOOTH",
"-22 -215 OFFCURVE",
"-39 -238 OFFCURVE",
"-43 -262 CURVE SMOOTH",
"-43 -264 OFFCURVE",
"-43 -267 OFFCURVE",
"-43 -269 CURVE SMOOTH",
"-43 -331 OFFCURVE",
"44 -351 OFFCURVE",
"100 -351 CURVE SMOOTH",
"106 -351 OFFCURVE",
"112 -350 OFFCURVE",
"118 -350 CURVE SMOOTH",
"154 -348 OFFCURVE",
"191 -338 OFFCURVE",
"224 -327 CURVE SMOOTH",
"346 -286 OFFCURVE",
"452 -214 OFFCURVE",
"534 -126 CURVE SMOOTH",
"548 -110 OFFCURVE",
"562 -94 OFFCURVE",
"575 -77 CURVE",
"617 -80 OFFCURVE",
"663 -86 OFFCURVE",
"703 -99 CURVE SMOOTH",
"724 -106 OFFCURVE",
"744 -114 OFFCURVE",
"762 -126 CURVE SMOOTH",
"766 -128 OFFCURVE",
"769 -130 OFFCURVE",
"773 -130 CURVE SMOOTH",
"782 -130 OFFCURVE",
"788 -123 OFFCURVE",
"788 -116 CURVE SMOOTH",
"788 -112 OFFCURVE",
"786 -108 OFFCURVE",
"782 -105 CURVE SMOOTH",
"744 -73 OFFCURVE",
"650 -52 OFFCURVE",
"598 -48 CURVE",
"693 87 OFFCURVE",
"761 253 OFFCURVE",
"799 408 CURVE",
"859 438 OFFCURVE",
"922 492 OFFCURVE",
"922 556 CURVE SMOOTH"
);
},
{
closed = 1;
nodes = (
"772 431 OFFCURVE",
"771 429 OFFCURVE",
"770 427 CURVE",
"766 426 LINE",
"767 432 OFFCURVE",
"769 438 OFFCURVE",
"770 444 CURVE",
"771 444 OFFCURVE",
"772 435 OFFCURVE",
"772 433 CURVE SMOOTH"
);
},
{
closed = 1;
nodes = (
"888 510 OFFCURVE",
"844 469 OFFCURVE",
"803 446 CURVE",
"800 454 OFFCURVE",
"793 462 OFFCURVE",
"782 462 CURVE SMOOTH",
"758 462 OFFCURVE",
"734 426 OFFCURVE",
"724 410 CURVE",
"660 390 OFFCURVE",
"579 381 OFFCURVE",
"511 381 CURVE SMOOTH",
"459 381 OFFCURVE",
"406 390 OFFCURVE",
"359 411 CURVE",
"457 510 OFFCURVE",
"576 585 OFFCURVE",
"724 614 CURVE SMOOTH",
"744 618 OFFCURVE",
"764 620 OFFCURVE",
"785 620 CURVE SMOOTH",
"832 620 OFFCURVE",
"888 605 OFFCURVE",
"888 555 CURVE SMOOTH"
);
},
{
closed = 1;
nodes = (
"623 247 OFFCURVE",
"449 65 OFFCURVE",
"281 27 CURVE SMOOTH",
"269 24 OFFCURVE",
"258 22 OFFCURVE",
"246 22 CURVE SMOOTH",
"198 22 OFFCURVE",
"185 56 OFFCURVE",
"185 91 CURVE SMOOTH",
"185 194 OFFCURVE",
"266 312 OFFCURVE",
"339 389 CURVE",
"392 362 OFFCURVE",
"456 352 OFFCURVE",
"516 352 CURVE SMOOTH",
"580 352 OFFCURVE",
"645 360 OFFCURVE",
"706 374 CURVE"
);
},
{
closed = 1;
nodes = (
"526 -86 OFFCURVE",
"517 -98 OFFCURVE",
"507 -109 CURVE SMOOTH",
"431 -191 OFFCURVE",
"330 -260 OFFCURVE",
"216 -298 CURVE SMOOTH",
"185 -309 OFFCURVE",
"150 -319 OFFCURVE",
"116 -321 CURVE SMOOTH",
"109 -322 OFFCURVE",
"101 -322 OFFCURVE",
"94 -322 CURVE SMOOTH",
"58 -322 OFFCURVE",
"-11 -314 OFFCURVE",
"-11 -272 CURVE SMOOTH",
"-11 -270 OFFCURVE",
"-11 -268 OFFCURVE",
"-10 -266 CURVE",
"-7 -244 OFFCURVE",
"10 -224 OFFCURVE",
"26 -208 CURVE SMOOTH",
"107 -128 OFFCURVE",
"251 -96 OFFCURVE",
"367 -83 CURVE SMOOTH",
"410 -78 OFFCURVE",
"453 -75 OFFCURVE",
"497 -75 CURVE SMOOTH",
"510 -75 OFFCURVE",
"524 -75 OFFCURVE",
"537 -76 CURVE"
);
}
);
};
layerId = "6A041D6C-A676-4DB4-A570-80A8F8AA896B";
paths = (
{
closed = 1;
nodes = (
"106 -351 OFFCURVE",
"112 -350 OFFCURVE",
"118 -350 CURVE SMOOTH",
"154 -348 OFFCURVE",
"191 -338 OFFCURVE",
"224 -327 CURVE SMOOTH",
"346 -286 OFFCURVE",
"452 -214 OFFCURVE",
"534 -126 CURVE SMOOTH",
"548 -110 OFFCURVE",
"562 -94 OFFCURVE",
"575 -77 CURVE",
"617 -80 OFFCURVE",
"663 -86 OFFCURVE",
"703 -99 CURVE SMOOTH",
"724 -106 OFFCURVE",
"744 -114 OFFCURVE",
"762 -126 CURVE SMOOTH",
"766 -128 OFFCURVE",
"769 -130 OFFCURVE",
"773 -130 CURVE SMOOTH",
"782 -130 OFFCURVE",
"788 -123 OFFCURVE",
"788 -116 CURVE SMOOTH",
"788 -112 OFFCURVE",
"786 -108 OFFCURVE",
"782 -105 CURVE SMOOTH",
"744 -73 OFFCURVE",
"650 -52 OFFCURVE",
"598 -48 CURVE",
"693 87 OFFCURVE",
"761 253 OFFCURVE",
"799 408 CURVE",
"859 438 OFFCURVE",
"922 492 OFFCURVE",
"922 556 CURVE SMOOTH",
"922 623 OFFCURVE",
"852 649 OFFCURVE",
"784 649 CURVE SMOOTH",
"762 649 OFFCURVE",
"740 647 OFFCURVE",
"719 643 CURVE SMOOTH",
"561 613 OFFCURVE",
"436 532 OFFCURVE",
"332 427 CURVE",
"305 446 OFFCURVE",
"285 470 OFFCURVE",
"285 501 CURVE SMOOTH",
"285 518 OFFCURVE",
"295 528 OFFCURVE",
"295 538 CURVE SMOOTH",
"295 546 OFFCURVE",
"286 553 OFFCURVE",
"277 553 CURVE SMOOTH",
"258 553 OFFCURVE",
"252 513 OFFCURVE",
"252 500 CURVE SMOOTH",
"252 462 OFFCURVE",
"279 430 OFFCURVE",
"312 407 CURVE",
"289 381 OFFCURVE",
"266 355 OFFCURVE",
"245 328 CURVE SMOOTH",
"197 266 OFFCURVE",
"152 166 OFFCURVE",
"152 91 CURVE SMOOTH",
"152 39 OFFCURVE",
"174 -8 OFFCURVE",
"242 -8 CURVE SMOOTH",
"347 -8 OFFCURVE",
"475 84 OFFCURVE",
"545 146 CURVE SMOOTH",
"610 204 OFFCURVE",
"714 313 OFFCURVE",
"750 388 CURVE",
"762 391 LINE",
"718 241 OFFCURVE",
"653 84 OFFCURVE",
"557 -46 CURVE",
"526 -46 LINE SMOOTH",
"471 -46 OFFCURVE",
"416 -48 OFFCURVE",
"362 -54 CURVE SMOOTH",
"234 -69 OFFCURVE",
"81 -105 OFFCURVE",
"-5 -196 CURVE SMOOTH",
"-22 -215 OFFCURVE",
"-39 -238 OFFCURVE",
"-43 -262 CURVE",
"-43 -269 LINE SMOOTH",
"-43 -331 OFFCURVE",
"44 -351 OFFCURVE",
"100 -351 CURVE SMOOTH"
);
},
{
closed = 1;
nodes = (
"58 -322 OFFCURVE",
"-11 -314 OFFCURVE",
"-11 -272 CURVE SMOOTH",
"-11 -270 OFFCURVE",
"-11 -268 OFFCURVE",
"-10 -266 CURVE",
"-7 -244 OFFCURVE",
"10 -224 OFFCURVE",
"26 -208 CURVE SMOOTH",
"107 -128 OFFCURVE",
"251 -96 OFFCURVE",
"367 -83 CURVE SMOOTH",
"410 -78 OFFCURVE",
"453 -75 OFFCURVE",
"497 -75 CURVE SMOOTH",
"510 -75 OFFCURVE",
"524 -75 OFFCURVE",
"537 -76 CURVE",
"526 -86 OFFCURVE",
"517 -98 OFFCURVE",
"507 -109 CURVE SMOOTH",
"431 -191 OFFCURVE",
"330 -260 OFFCURVE",
"216 -298 CURVE SMOOTH",
"185 -309 OFFCURVE",
"150 -319 OFFCURVE",
"116 -321 CURVE SMOOTH",
"109 -322 OFFCURVE",
"101 -322 OFFCURVE",
"94 -322 CURVE SMOOTH"
);
},
{
closed = 1;
nodes = (
"198 22 OFFCURVE",
"185 56 OFFCURVE",
"185 91 CURVE SMOOTH",
"185 194 OFFCURVE",
"266 312 OFFCURVE",
"339 389 CURVE",
"392 362 OFFCURVE",
"456 352 OFFCURVE",
"516 352 CURVE SMOOTH",
"580 352 OFFCURVE",
"645 360 OFFCURVE",
"706 374 CURVE",
"623 247 OFFCURVE",
"449 65 OFFCURVE",
"281 27 CURVE SMOOTH",
"269 24 OFFCURVE",
"258 22 OFFCURVE",
"246 22 CURVE SMOOTH"
);
},
{
closed = 1;
nodes = (
"459 381 OFFCURVE",
"406 390 OFFCURVE",
"359 411 CURVE",
"457 510 OFFCURVE",
"576 585 OFFCURVE",
"724 614 CURVE SMOOTH",
"744 618 OFFCURVE",
"764 620 OFFCURVE",
"785 620 CURVE SMOOTH",
"832 620 OFFCURVE",
"888 605 OFFCURVE",
"888 555 CURVE SMOOTH",
"888 510 OFFCURVE",
"844 469 OFFCURVE",
"803 446 CURVE",
"800 454 OFFCURVE",
"793 462 OFFCURVE",
"782 462 CURVE SMOOTH",
"758 462 OFFCURVE",
"734 426 OFFCURVE",
"724 410 CURVE",
"660 390 OFFCURVE",
"579 381 OFFCURVE",
"511 381 CURVE SMOOTH"
);
},
{
closed = 1;
nodes = (
"767 432 OFFCURVE",
"769 438 OFFCURVE",
"770 444 CURVE",
"771 444 OFFCURVE",
"772 435 OFFCURVE",
"772 433 CURVE SMOOTH",
"772 431 OFFCURVE",
"771 429 OFFCURVE",
"770 427 CURVE",
"766 426 LINE"
);
}
);
width = 727;
}
);
note = G;
unicode = 0047;
},
{
glyphname = H;
lastChange = "2022-02-07 22:19:05 +0000";
layers = (
{
background = {
paths = (
{
closed = 1;
nodes = (
"983 629 OFFCURVE",
"976 636 OFFCURVE",
"967 636 CURVE SMOOTH",
"962 636 OFFCURVE",
"958 633 OFFCURVE",
"954 630 CURVE SMOOTH",
"925 604 OFFCURVE",
"898 575 OFFCURVE",
"872 547 CURVE SMOOTH",
"787 457 OFFCURVE",
"714 346 OFFCURVE",
"655 242 CURVE",
"528 267 OFFCURVE",
"404 304 OFFCURVE",
"278 334 CURVE",
"321 400 OFFCURVE",
"367 468 OFFCURVE",
"423 527 CURVE SMOOTH",
"439 543 OFFCURVE",
"455 559 OFFCURVE",
"472 575 CURVE SMOOTH",
"483 585 OFFCURVE",
"495 594 OFFCURVE",
"506 605 CURVE SMOOTH",
"509 608 OFFCURVE",
"511 611 OFFCURVE",
"511 614 CURVE SMOOTH",
"511 622 OFFCURVE",
"502 629 OFFCURVE",
"494 629 CURVE SMOOTH",
"489 629 OFFCURVE",
"485 627 OFFCURVE",
"482 624 CURVE SMOOTH",
"388 547 OFFCURVE",
"305 440 OFFCURVE",
"243 342 CURVE",
"211 350 OFFCURVE",
"178 357 OFFCURVE",
"145 357 CURVE SMOOTH",
"122 357 OFFCURVE",
"81 352 OFFCURVE",
"81 326 CURVE SMOOTH",
"81 309 OFFCURVE",
"98 297 OFFCURVE",
"114 290 CURVE SMOOTH",
"140 280 OFFCURVE",
"166 269 OFFCURVE",
"192 259 CURVE",
"152 188 OFFCURVE",
"83 52 OFFCURVE",
"83 -26 CURVE SMOOTH",
"83 -44 OFFCURVE",
"86 -101 OFFCURVE",
"116 -101 CURVE SMOOTH",
"127 -101 OFFCURVE",
"135 -92 OFFCURVE",
"135 -83 CURVE SMOOTH",
"135 -70 OFFCURVE",
"115 -69 OFFCURVE",
"115 -32 CURVE SMOOTH",
"115 38 OFFCURVE",
"187 182 OFFCURVE",
"223 246 CURVE",
"344 192 OFFCURVE",
"489 112 OFFCURVE",
"553 5 CURVE",
"551 -4 OFFCURVE",
"549 -13 OFFCURVE",
"549 -22 CURVE SMOOTH",
"549 -34 OFFCURVE",
"552 -47 OFFCURVE",
"555 -58 CURVE SMOOTH",
"559 -71 OFFCURVE",
"568 -81 OFFCURVE",
"585 -81 CURVE SMOOTH",
"608 -81 OFFCURVE",
"622 -63 OFFCURVE",
"622 -44 CURVE SMOOTH",
"622 -24 OFFCURVE",
"608 -6 OFFCURVE",
"595 10 CURVE",
"614 78 OFFCURVE",
"644 144 OFFCURVE",
"677 208 CURVE",
"708 201 OFFCURVE",
"741 194 OFFCURVE",
"773 194 CURVE SMOOTH",
"808 194 OFFCURVE",
"850 211 OFFCURVE",
"850 247 CURVE SMOOTH",
"850 263 OFFCURVE",
"830 295 OFFCURVE",
"809 295 CURVE SMOOTH",
"801 295 OFFCURVE",
"793 288 OFFCURVE",
"793 280 CURVE SMOOTH",
"793 267 OFFCURVE",
"820 263 OFFCURVE",
"820 246 CURVE SMOOTH",
"820 228 OFFCURVE",
"790 223 OFFCURVE",
"775 223 CURVE SMOOTH",
"748 223 OFFCURVE",
"719 231 OFFCURVE",
"692 235 CURVE",
"749 338 OFFCURVE",
"816 441 OFFCURVE",
"898 530 CURVE SMOOTH",
"924 558 OFFCURVE",
"953 585 OFFCURVE",
"979 613 CURVE",
"981 616 OFFCURVE",
"983 619 OFFCURVE",
"983 622 CURVE SMOOTH"
);
},
{
closed = 1;
nodes = (
"611 160 OFFCURVE",
"587 103 OFFCURVE",
"566 46 CURVE",
"482 142 OFFCURVE",
"360 216 OFFCURVE",
"238 270 CURVE",
"245 284 OFFCURVE",
"253 297 OFFCURVE",
"262 310 CURVE",
"389 279 OFFCURVE",
"513 242 OFFCURVE",
"641 214 CURVE"
);
},
{
closed = 1;
nodes = (
"220 306 OFFCURVE",
"214 295 OFFCURVE",
"207 284 CURVE",
"182 294 OFFCURVE",
"155 302 OFFCURVE",
"130 313 CURVE SMOOTH",
"126 315 OFFCURVE",
"117 318 OFFCURVE",
"117 323 CURVE SMOOTH",
"117 330 OFFCURVE",
"138 331 OFFCURVE",
"143 331 CURVE SMOOTH",
"171 331 OFFCURVE",
"201 323 OFFCURVE",
"228 317 CURVE"
);
}
);
};
layerId = "6A041D6C-A676-4DB4-A570-80A8F8AA896B";
paths = (
{
closed = 1;
nodes = (
"127 -101 OFFCURVE",
"135 -92 OFFCURVE",
"135 -83 CURVE SMOOTH",
"135 -70 OFFCURVE",
"115 -69 OFFCURVE",
"115 -32 CURVE SMOOTH",
"115 38 OFFCURVE",
"187 182 OFFCURVE",
"223 246 CURVE",
"344 192 OFFCURVE",
"489 112 OFFCURVE",
"553 5 CURVE",
"551 -4 OFFCURVE",
"549 -13 OFFCURVE",
"549 -22 CURVE SMOOTH",
"549 -34 OFFCURVE",
"552 -47 OFFCURVE",
"555 -58 CURVE SMOOTH",
"559 -71 OFFCURVE",
"568 -81 OFFCURVE",
"585 -81 CURVE SMOOTH",
"608 -81 OFFCURVE",
"622 -63 OFFCURVE",
"622 -44 CURVE SMOOTH",
"622 -24 OFFCURVE",
"608 -6 OFFCURVE",
"595 10 CURVE",
"614 78 OFFCURVE",
"644 144 OFFCURVE",
"677 208 CURVE",
"708 201 OFFCURVE",
"741 194 OFFCURVE",
"773 194 CURVE SMOOTH",
"808 194 OFFCURVE",
"850 211 OFFCURVE",
"850 247 CURVE SMOOTH",
"850 263 OFFCURVE",
"830 295 OFFCURVE",
"809 295 CURVE SMOOTH",
"801 295 OFFCURVE",
"793 288 OFFCURVE",
"793 280 CURVE SMOOTH",
"793 267 OFFCURVE",
"820 263 OFFCURVE",
"820 246 CURVE SMOOTH",
"820 228 OFFCURVE",
"790 223 OFFCURVE",
"775 223 CURVE SMOOTH",
"748 223 OFFCURVE",
"719 231 OFFCURVE",
"692 235 CURVE",
"749 338 OFFCURVE",
"816 441 OFFCURVE",
"898 530 CURVE SMOOTH",
"924 558 OFFCURVE",
"953 585 OFFCURVE",
"979 613 CURVE",
"981 616 OFFCURVE",
"983 619 OFFCURVE",
"983 622 CURVE SMOOTH",
"983 629 OFFCURVE",
"976 636 OFFCURVE",
"967 636 CURVE SMOOTH",
"962 636 OFFCURVE",
"958 633 OFFCURVE",
"954 630 CURVE SMOOTH",
"925 604 OFFCURVE",
"898 575 OFFCURVE",
"872 547 CURVE SMOOTH",
"787 457 OFFCURVE",
"714 346 OFFCURVE",
"655 242 CURVE",
"528 267 OFFCURVE",
"404 304 OFFCURVE",
"278 334 CURVE",
"321 400 OFFCURVE",
"367 468 OFFCURVE",
"423 527 CURVE SMOOTH",
"439 543 OFFCURVE",
"455 559 OFFCURVE",
"472 575 CURVE SMOOTH",
"483 585 OFFCURVE",
"495 594 OFFCURVE",
"506 605 CURVE SMOOTH",
"509 608 OFFCURVE",
"511 611 OFFCURVE",
"511 614 CURVE SMOOTH",
"511 622 OFFCURVE",
"502 629 OFFCURVE",
"494 629 CURVE SMOOTH",
"489 629 OFFCURVE",
"485 627 OFFCURVE",
"482 624 CURVE SMOOTH",
"388 547 OFFCURVE",
"305 440 OFFCURVE",
"243 342 CURVE",
"211 350 OFFCURVE",
"178 357 OFFCURVE",
"145 357 CURVE SMOOTH",
"122 357 OFFCURVE",
"81 352 OFFCURVE",
"81 326 CURVE SMOOTH",
"81 309 OFFCURVE",
"98 297 OFFCURVE",
"114 290 CURVE SMOOTH",
"140 280 OFFCURVE",
"166 269 OFFCURVE",
"192 259 CURVE",
"152 188 OFFCURVE",
"83 52 OFFCURVE",
"83 -26 CURVE SMOOTH",
"83 -44 OFFCURVE",
"86 -101 OFFCURVE",
"116 -101 CURVE SMOOTH"
);
},
{
closed = 1;
nodes = (
"182 294 OFFCURVE",
"155 302 OFFCURVE",
"130 313 CURVE SMOOTH",
"126 315 OFFCURVE",
"117 318 OFFCURVE",
"117 323 CURVE SMOOTH",
"117 330 OFFCURVE",
"138 331 OFFCURVE",
"143 331 CURVE SMOOTH",
"171 331 OFFCURVE",
"201 323 OFFCURVE",
"228 317 CURVE",
"220 306 OFFCURVE",
"214 295 OFFCURVE",
"207 284 CURVE"
);
},
{
closed = 1;
nodes = (
"482 142 OFFCURVE",
"360 216 OFFCURVE",
"238 270 CURVE",
"245 284 OFFCURVE",
"253 297 OFFCURVE",
"262 310 CURVE",
"389 279 OFFCURVE",
"513 242 OFFCURVE",
"641 214 CURVE",
"611 160 OFFCURVE",
"587 103 OFFCURVE",
"566 46 CURVE"
);
}
);
width = 793;
}
);
note = H;
unicode = 0048;
},
{
glyphname = I;
lastChange = "2022-02-07 22:19:06 +0000";
layers = (
{
background = {
paths = (
{
closed = 1;
nodes = (
"767 663 OFFCURVE",
"762 662 OFFCURVE",
"756 662 CURVE SMOOTH",
"692 662 OFFCURVE",
"627 624 OFFCURVE",
"583 587 CURVE SMOOTH",
"546 555 OFFCURVE",
"489 498 OFFCURVE",
"489 450 CURVE SMOOTH",
"489 420 OFFCURVE",
"516 392 OFFCURVE",
"552 392 CURVE SMOOTH",
"567 392 OFFCURVE",
"613 403 OFFCURVE",
"613 420 CURVE SMOOTH",
"613 427 OFFCURVE",
"605 434 OFFCURVE",
"597 434 CURVE SMOOTH",
"585 434 OFFCURVE",
"575 420 OFFCURVE",
"554 420 CURVE SMOOTH",
"537 420 OFFCURVE",
"524 430 OFFCURVE",
"524 445 CURVE SMOOTH",
"524 478 OFFCURVE",
"571 539 OFFCURVE",
"598 562 CURVE SMOOTH",
"632 591 OFFCURVE",
"685 625 OFFCURVE",
"733 634 CURVE",
"723 622 OFFCURVE",
"717 612 OFFCURVE",
"713 598 CURVE SMOOTH",
"678 483 OFFCURVE",
"623 329 OFFCURVE",
"554 227 CURVE SMOOTH",
"488 129 OFFCURVE",
"358 -22 OFFCURVE",
"209 -22 CURVE SMOOTH",
"145 -22 OFFCURVE",
"115 22 OFFCURVE",
"115 72 CURVE SMOOTH",
"115 133 OFFCURVE",
"148 189 OFFCURVE",
"153 249 CURVE",
"181 247 OFFCURVE",
"211 249 OFFCURVE",
"240 249 CURVE SMOOTH",
"261 249 OFFCURVE",
"396 249 OFFCURVE",
"396 223 CURVE SMOOTH",
"396 214 OFFCURVE",
"400 206 OFFCURVE",
"411 206 CURVE SMOOTH",
"425 206 OFFCURVE",
"430 219 OFFCURVE",
"430 229 CURVE SMOOTH",
"430 277 OFFCURVE",
"304 278 OFFCURVE",
"266 278 CURVE SMOOTH",
"243 278 OFFCURVE",
"220 277 OFFCURVE",
"197 277 CURVE SMOOTH",
"176 277 OFFCURVE",
"155 278 OFFCURVE",
"135 281 CURVE SMOOTH",
"133 281 OFFCURVE",
"131 281 OFFCURVE",
"129 281 CURVE SMOOTH",
"121 281 OFFCURVE",
"115 277 OFFCURVE",
"115 270 CURVE SMOOTH",
"115 260 OFFCURVE",
"123 259 OFFCURVE",
"123 250 CURVE SMOOTH",
"123 239 OFFCURVE",
"114 220 OFFCURVE",
"110 208 CURVE SMOOTH",
"98 165 OFFCURVE",
"85 120 OFFCURVE",
"85 76 CURVE SMOOTH",
"85 9 OFFCURVE",
"124 -51 OFFCURVE",
"209 -51 CURVE SMOOTH",
"373 -51 OFFCURVE",
"509 101 OFFCURVE",
"583 211 CURVE SMOOTH",
"651 313 OFFCURVE",
"714 476 OFFCURVE",
"746 592 CURVE SMOOTH",
"751 608 OFFCURVE",
"767 643 OFFCURVE",
"767 657 CURVE SMOOTH"
);
}
);
};
layerId = "6A041D6C-A676-4DB4-A570-80A8F8AA896B";
paths = (
{
closed = 1;
nodes = (
"373 -51 OFFCURVE",
"509 101 OFFCURVE",
"583 211 CURVE SMOOTH",
"651 313 OFFCURVE",
"714 476 OFFCURVE",
"746 592 CURVE SMOOTH",
"751 608 OFFCURVE",
"767 643 OFFCURVE",
"767 657 CURVE SMOOTH",
"767 662 OFFCURVE",
"764 662 OFFCURVE",
"760 662 CURVE SMOOTH",
"756 662 LINE SMOOTH",
"692 662 OFFCURVE",
"627 624 OFFCURVE",
"583 587 CURVE SMOOTH",
"546 555 OFFCURVE",
"489 498 OFFCURVE",
"489 450 CURVE SMOOTH",
"489 420 OFFCURVE",
"516 392 OFFCURVE",
"552 392 CURVE SMOOTH",
"567 392 OFFCURVE",
"613 403 OFFCURVE",
"613 420 CURVE SMOOTH",
"613 427 OFFCURVE",
"605 434 OFFCURVE",
"597 434 CURVE SMOOTH",
"585 434 OFFCURVE",
"575 420 OFFCURVE",
"554 420 CURVE SMOOTH",
"537 420 OFFCURVE",
"524 430 OFFCURVE",
"524 445 CURVE SMOOTH",
"524 478 OFFCURVE",
"571 539 OFFCURVE",
"598 562 CURVE SMOOTH",
"632 591 OFFCURVE",
"685 625 OFFCURVE",
"733 634 CURVE",
"723 622 OFFCURVE",
"717 612 OFFCURVE",
"713 598 CURVE SMOOTH",
"678 483 OFFCURVE",
"623 329 OFFCURVE",
"554 227 CURVE SMOOTH",
"488 129 OFFCURVE",
"358 -22 OFFCURVE",
"209 -22 CURVE SMOOTH",
"145 -22 OFFCURVE",
"115 22 OFFCURVE",
"115 72 CURVE SMOOTH",
"115 133 OFFCURVE",
"148 189 OFFCURVE",
"153 249 CURVE",
"181 247 OFFCURVE",
"211 249 OFFCURVE",
"240 249 CURVE SMOOTH",
"261 249 OFFCURVE",
"396 249 OFFCURVE",
"396 223 CURVE SMOOTH",
"396 214 OFFCURVE",
"400 206 OFFCURVE",
"411 206 CURVE SMOOTH",
"425 206 OFFCURVE",
"430 219 OFFCURVE",
"430 229 CURVE SMOOTH",
"430 277 OFFCURVE",
"304 278 OFFCURVE",
"266 278 CURVE SMOOTH",
"243 278 OFFCURVE",
"220 277 OFFCURVE",
"197 277 CURVE SMOOTH",
"176 277 OFFCURVE",
"155 278 OFFCURVE",
"135 281 CURVE",
"129 281 LINE SMOOTH",
"121 281 OFFCURVE",
"115 277 OFFCURVE",
"115 270 CURVE SMOOTH",
"115 260 OFFCURVE",
"123 259 OFFCURVE",
"123 250 CURVE SMOOTH",
"123 239 OFFCURVE",
"114 220 OFFCURVE",
"110 208 CURVE SMOOTH",
"98 165 OFFCURVE",
"85 120 OFFCURVE",
"85 76 CURVE SMOOTH",
"85 9 OFFCURVE",
"124 -51 OFFCURVE",
"209 -51 CURVE SMOOTH"
);
}
);
width = 624;
}
);
note = I;
unicode = 0049;
},
{
glyphname = J;
lastChange = "2022-02-07 22:19:06 +0000";
layers = (
{
background = {
paths = (
{
closed = 1;
nodes = (
"695 553 OFFCURVE",
"686 502 OFFCURVE",
"671 451 CURVE SMOOTH",
"628 301 OFFCURVE",
"562 144 OFFCURVE",
"465 14 CURVE",
"401 15 OFFCURVE",
"335 13 OFFCURVE",
"271 6 CURVE SMOOTH",
"143 -9 OFFCURVE",
"-10 -45 OFFCURVE",
"-96 -136 CURVE SMOOTH",
"-113 -155 OFFCURVE",
"-130 -178 OFFCURVE",
"-134 -202 CURVE SMOOTH",
"-134 -204 OFFCURVE",
"-134 -207 OFFCURVE",
"-134 -209 CURVE SMOOTH",
"-134 -271 OFFCURVE",
"-47 -291 OFFCURVE",
"9 -291 CURVE SMOOTH",
"15 -291 OFFCURVE",
"21 -290 OFFCURVE",
"27 -290 CURVE SMOOTH",
"63 -288 OFFCURVE",
"100 -278 OFFCURVE",
"133 -267 CURVE SMOOTH",
"255 -226 OFFCURVE",
"361 -154 OFFCURVE",
"442 -66 CURVE SMOOTH",
"457 -50 OFFCURVE",
"471 -34 OFFCURVE",
"484 -17 CURVE",
"526 -20 OFFCURVE",
"572 -26 OFFCURVE",
"611 -39 CURVE SMOOTH",
"633 -46 OFFCURVE",
"652 -54 OFFCURVE",
"671 -66 CURVE SMOOTH",
"675 -68 OFFCURVE",
"678 -70 OFFCURVE",
"682 -70 CURVE SMOOTH",
"690 -70 OFFCURVE",
"697 -63 OFFCURVE",
"697 -56 CURVE SMOOTH",
"697 -52 OFFCURVE",
"694 -48 OFFCURVE",
"691 -45 CURVE SMOOTH",
"653 -13 OFFCURVE",
"559 8 OFFCURVE",
"507 12 CURVE",
"602 147 OFFCURVE",
"669 313 OFFCURVE",
"708 468 CURVE SMOOTH",
"720 515 OFFCURVE",
"728 560 OFFCURVE",
"728 598 CURVE SMOOTH",
"728 623 OFFCURVE",
"722 643 OFFCURVE",
"687 643 CURVE SMOOTH",
"639 643 OFFCURVE",
"552 600 OFFCURVE",
"512 578 CURVE SMOOTH",
"435 537 OFFCURVE",
"359 441 OFFCURVE",
"359 361 CURVE SMOOTH",
"359 320 OFFCURVE",
"378 285 OFFCURVE",
"431 285 CURVE SMOOTH",
"447 285 OFFCURVE",
"500 289 OFFCURVE",
"500 308 CURVE SMOOTH",
"500 316 OFFCURVE",
"494 324 OFFCURVE",
"484 324 CURVE SMOOTH",
"470 324 OFFCURVE",
"450 313 OFFCURVE",
"430 313 CURVE SMOOTH",
"399 313 OFFCURVE",
"391 343 OFFCURVE",
"391 365 CURVE SMOOTH",
"391 432 OFFCURVE",
"469 515 OFFCURVE",
"529 553 CURVE SMOOTH",
"563 575 OFFCURVE",
"635 614 OFFCURVE",
"679 614 CURVE SMOOTH",
"698 614 OFFCURVE",
"695 605 OFFCURVE",
"695 593 CURVE SMOOTH"
);
},
{
closed = 1;
nodes = (
"435 -26 OFFCURVE",
"426 -38 OFFCURVE",
"416 -49 CURVE SMOOTH",
"340 -131 OFFCURVE",
"238 -200 OFFCURVE",
"125 -238 CURVE SMOOTH",
"93 -249 OFFCURVE",
"59 -259 OFFCURVE",
"25 -261 CURVE SMOOTH",
"18 -262 OFFCURVE",
"10 -262 OFFCURVE",
"3 -262 CURVE SMOOTH",
"-33 -262 OFFCURVE",
"-102 -254 OFFCURVE",
"-102 -212 CURVE SMOOTH",
"-102 -210 OFFCURVE",
"-102 -208 OFFCURVE",
"-102 -206 CURVE SMOOTH",
"-98 -184 OFFCURVE",
"-81 -164 OFFCURVE",
"-65 -148 CURVE SMOOTH",
"16 -68 OFFCURVE",
"160 -36 OFFCURVE",
"276 -23 CURVE SMOOTH",
"319 -18 OFFCURVE",
"362 -15 OFFCURVE",
"405 -15 CURVE SMOOTH",
"419 -15 OFFCURVE",
"432 -15 OFFCURVE",
"446 -16 CURVE"
);
}
);
};
layerId = "6A041D6C-A676-4DB4-A570-80A8F8AA896B";
paths = (
{
closed = 1;
nodes = (
"15 -291 OFFCURVE",
"21 -290 OFFCURVE",
"27 -290 CURVE SMOOTH",
"63 -288 OFFCURVE",
"100 -278 OFFCURVE",
"133 -267 CURVE SMOOTH",
"255 -226 OFFCURVE",
"361 -154 OFFCURVE",
"442 -66 CURVE SMOOTH",
"457 -50 OFFCURVE",
"471 -34 OFFCURVE",
"484 -17 CURVE",
"526 -20 OFFCURVE",
"572 -26 OFFCURVE",
"611 -39 CURVE SMOOTH",
"633 -46 OFFCURVE",
"652 -54 OFFCURVE",
"671 -66 CURVE SMOOTH",
"675 -68 OFFCURVE",
"678 -70 OFFCURVE",
"682 -70 CURVE SMOOTH",
"690 -70 OFFCURVE",
"697 -63 OFFCURVE",
"697 -56 CURVE SMOOTH",
"697 -52 OFFCURVE",
"694 -48 OFFCURVE",
"691 -45 CURVE SMOOTH",
"653 -13 OFFCURVE",
"559 8 OFFCURVE",
"507 12 CURVE",
"602 147 OFFCURVE",
"669 313 OFFCURVE",
"708 468 CURVE SMOOTH",
"720 515 OFFCURVE",
"728 560 OFFCURVE",
"728 598 CURVE SMOOTH",
"728 623 OFFCURVE",
"722 643 OFFCURVE",
"687 643 CURVE SMOOTH",
"639 643 OFFCURVE",
"552 600 OFFCURVE",
"512 578 CURVE SMOOTH",
"435 537 OFFCURVE",
"359 441 OFFCURVE",
"359 361 CURVE SMOOTH",
"359 320 OFFCURVE",
"378 285 OFFCURVE",
"431 285 CURVE SMOOTH",
"447 285 OFFCURVE",
"500 289 OFFCURVE",
"500 308 CURVE SMOOTH",
"500 316 OFFCURVE",
"494 324 OFFCURVE",
"484 324 CURVE SMOOTH",
"470 324 OFFCURVE",
"450 313 OFFCURVE",
"430 313 CURVE SMOOTH",
"399 313 OFFCURVE",
"391 343 OFFCURVE",
"391 365 CURVE SMOOTH",
"391 432 OFFCURVE",
"469 515 OFFCURVE",
"529 553 CURVE SMOOTH",
"563 575 OFFCURVE",
"635 614 OFFCURVE",
"679 614 CURVE SMOOTH",
"693 614 OFFCURVE",
"695 609 OFFCURVE",
"695 601 CURVE SMOOTH",
"695 593 LINE SMOOTH",
"695 553 OFFCURVE",
"686 502 OFFCURVE",
"671 451 CURVE SMOOTH",
"628 301 OFFCURVE",
"562 144 OFFCURVE",
"465 14 CURVE",
"434 14 LINE SMOOTH",
"380 14 OFFCURVE",
"325 12 OFFCURVE",
"271 6 CURVE SMOOTH",
"143 -9 OFFCURVE",
"-10 -45 OFFCURVE",
"-96 -136 CURVE SMOOTH",
"-113 -155 OFFCURVE",
"-130 -178 OFFCURVE",
"-134 -202 CURVE",
"-134 -209 LINE SMOOTH",
"-134 -271 OFFCURVE",
"-47 -291 OFFCURVE",
"9 -291 CURVE SMOOTH"
);
},
{
closed = 1;
nodes = (
"-33 -262 OFFCURVE",
"-102 -254 OFFCURVE",
"-102 -212 CURVE SMOOTH",
"-102 -206 LINE",
"-98 -184 OFFCURVE",
"-81 -164 OFFCURVE",
"-65 -148 CURVE SMOOTH",
"16 -68 OFFCURVE",
"160 -36 OFFCURVE",
"276 -23 CURVE SMOOTH",
"319 -18 OFFCURVE",
"362 -15 OFFCURVE",
"405 -15 CURVE SMOOTH",
"419 -15 OFFCURVE",
"432 -15 OFFCURVE",
"446 -16 CURVE",
"435 -26 OFFCURVE",
"426 -38 OFFCURVE",
"416 -49 CURVE SMOOTH",
"340 -131 OFFCURVE",
"238 -200 OFFCURVE",
"125 -238 CURVE SMOOTH",
"93 -249 OFFCURVE",
"59 -259 OFFCURVE",
"25 -261 CURVE SMOOTH",
"18 -262 OFFCURVE",
"10 -262 OFFCURVE",
"3 -262 CURVE SMOOTH"
);
}
);
width = 687;
}
);
note = J;
unicode = 004A;
},
{
glyphname = K;
lastChange = "2022-02-07 22:19:06 +0000";
layers = (
{
background = {
paths = (
{
closed = 1;
nodes = (
"930 639 OFFCURVE",
"673 506 OFFCURVE",
"540 431 CURVE",
"593 500 OFFCURVE",
"638 569 OFFCURVE",
"638 621 CURVE SMOOTH",
"638 671 OFFCURVE",
"574 698 OFFCURVE",
"511 698 CURVE SMOOTH",
"364 698 OFFCURVE",
"140 577 OFFCURVE",
"55 460 CURVE SMOOTH",
"28 422 OFFCURVE",
"-7 367 OFFCURVE",
"-7 322 CURVE SMOOTH",
"-7 268 OFFCURVE",
"47 243 OFFCURVE",
"103 243 CURVE SMOOTH",
"138 243 OFFCURVE",
"186 255 OFFCURVE",
"212 276 CURVE SMOOTH",
"215 279 OFFCURVE",
"218 283 OFFCURVE",
"218 287 CURVE SMOOTH",
"218 294 OFFCURVE",
"211 301 OFFCURVE",
"203 301 CURVE SMOOTH",
"194 301 OFFCURVE",
"157 271 OFFCURVE",
"106 271 CURVE SMOOTH",
"67 271 OFFCURVE",
"28 285 OFFCURVE",
"28 324 CURVE SMOOTH",
"28 362 OFFCURVE",
"60 413 OFFCURVE",
"83 445 CURVE SMOOTH",
"158 550 OFFCURVE",
"376 672 OFFCURVE",
"511 672 CURVE SMOOTH",
"556 672 OFFCURVE",
"599 654 OFFCURVE",
"599 615 CURVE SMOOTH",
"599 574 OFFCURVE",
"554 503 OFFCURVE",
"528 469 CURVE SMOOTH",
"508 443 OFFCURVE",
"488 416 OFFCURVE",
"469 389 CURVE",
"445 373 OFFCURVE",
"415 353 OFFCURVE",
"394 334 CURVE SMOOTH",
"389 329 OFFCURVE",
"388 325 OFFCURVE",
"388 318 CURVE SMOOTH",
"388 307 OFFCURVE",
"393 294 OFFCURVE",
"397 283 CURVE",
"355 218 OFFCURVE",
"251 61 OFFCURVE",
"251 -11 CURVE SMOOTH",
"251 -31 OFFCURVE",
"263 -71 OFFCURVE",
"293 -71 CURVE SMOOTH",
"302 -71 OFFCURVE",
"308 -64 OFFCURVE",
"308 -56 CURVE SMOOTH",
"308 -38 OFFCURVE",
"283 -50 OFFCURVE",
"283 -13 CURVE SMOOTH",
"283 49 OFFCURVE",
"379 195 OFFCURVE",
"416 251 CURVE",
"418 250 LINE",
"449 141 OFFCURVE",
"552 -30 OFFCURVE",
"638 -30 CURVE SMOOTH",
"727 -30 OFFCURVE",
"824 115 OFFCURVE",
"848 164 CURVE SMOOTH",
"856 182 OFFCURVE",
"836 194 OFFCURVE",
"825 178 CURVE SMOOTH",
"754 73 OFFCURVE",
"705 6 OFFCURVE",
"642 6 CURVE SMOOTH",
"567 6 OFFCURVE",
"441 215 OFFCURVE",
"441 289 CURVE",
"459 316 OFFCURVE",
"476 344 OFFCURVE",
"496 370 CURVE",
"601 438 OFFCURVE",
"914 610 OFFCURVE",
"1041 610 CURVE SMOOTH",
"1063 610 OFFCURVE",
"1077 593 OFFCURVE",
"1077 575 CURVE SMOOTH",
"1077 567 OFFCURVE",
"1071 562 OFFCURVE",
"1071 555 CURVE SMOOTH",
"1071 547 OFFCURVE",
"1081 541 OFFCURVE",
"1089 541 CURVE SMOOTH",
"1106 541 OFFCURVE",
"1109 560 OFFCURVE",
"1109 571 CURVE SMOOTH",
"1109 605 OFFCURVE",
"1084 639 OFFCURVE",
"1041 639 CURVE SMOOTH"
);
}
);
};
layerId = "6A041D6C-A676-4DB4-A570-80A8F8AA896B";
paths = (
{
closed = 1;
nodes = (
"302 -71 OFFCURVE",
"308 -64 OFFCURVE",
"308 -56 CURVE SMOOTH",
"308 -38 OFFCURVE",
"283 -50 OFFCURVE",
"283 -13 CURVE SMOOTH",
"283 49 OFFCURVE",
"379 195 OFFCURVE",
"416 251 CURVE",
"418 250 LINE",
"449 141 OFFCURVE",
"552 -30 OFFCURVE",
"638 -30 CURVE SMOOTH",
"727 -30 OFFCURVE",
"824 115 OFFCURVE",
"848 164 CURVE SMOOTH",
"853 176 OFFCURVE",
"846 185 OFFCURVE",
"837 185 CURVE SMOOTH",
"833 185 OFFCURVE",
"829 183 OFFCURVE",
"825 178 CURVE SMOOTH",
"754 73 OFFCURVE",
"705 6 OFFCURVE",
"642 6 CURVE SMOOTH",
"567 6 OFFCURVE",
"441 215 OFFCURVE",
"441 289 CURVE",
"459 316 OFFCURVE",
"476 344 OFFCURVE",
"496 370 CURVE",
"601 438 OFFCURVE",
"914 610 OFFCURVE",
"1041 610 CURVE SMOOTH",
"1063 610 OFFCURVE",
"1077 593 OFFCURVE",
"1077 575 CURVE SMOOTH",
"1077 567 OFFCURVE",
"1071 562 OFFCURVE",
"1071 555 CURVE SMOOTH",
"1071 547 OFFCURVE",
"1081 541 OFFCURVE",
"1089 541 CURVE SMOOTH",
"1106 541 OFFCURVE",
"1109 560 OFFCURVE",
"1109 571 CURVE SMOOTH",
"1109 605 OFFCURVE",
"1084 639 OFFCURVE",
"1041 639 CURVE SMOOTH",
"930 639 OFFCURVE",
"673 506 OFFCURVE",
"540 431 CURVE",
"593 500 OFFCURVE",
"638 569 OFFCURVE",
"638 621 CURVE SMOOTH",
"638 671 OFFCURVE",
"574 698 OFFCURVE",
"511 698 CURVE SMOOTH",
"364 698 OFFCURVE",
"140 577 OFFCURVE",
"55 460 CURVE SMOOTH",
"28 422 OFFCURVE",
"-7 367 OFFCURVE",
"-7 322 CURVE SMOOTH",
"-7 268 OFFCURVE",
"47 243 OFFCURVE",
"103 243 CURVE SMOOTH",
"138 243 OFFCURVE",
"186 255 OFFCURVE",
"212 276 CURVE SMOOTH",
"215 279 OFFCURVE",
"218 283 OFFCURVE",
"218 287 CURVE SMOOTH",
"218 294 OFFCURVE",
"211 301 OFFCURVE",
"203 301 CURVE SMOOTH",
"194 301 OFFCURVE",
"157 271 OFFCURVE",
"106 271 CURVE SMOOTH",
"67 271 OFFCURVE",
"28 285 OFFCURVE",
"28 324 CURVE SMOOTH",
"28 362 OFFCURVE",
"60 413 OFFCURVE",
"83 445 CURVE SMOOTH",
"158 550 OFFCURVE",
"376 672 OFFCURVE",
"511 672 CURVE SMOOTH",
"556 672 OFFCURVE",
"599 654 OFFCURVE",
"599 615 CURVE SMOOTH",
"599 574 OFFCURVE",
"554 503 OFFCURVE",
"528 469 CURVE SMOOTH",
"508 443 OFFCURVE",
"488 416 OFFCURVE",
"469 389 CURVE",
"445 373 OFFCURVE",
"415 353 OFFCURVE",
"394 334 CURVE SMOOTH",
"389 329 OFFCURVE",
"388 325 OFFCURVE",
"388 318 CURVE SMOOTH",
"388 307 OFFCURVE",
"393 294 OFFCURVE",
"397 283 CURVE",
"355 218 OFFCURVE",
"251 61 OFFCURVE",
"251 -11 CURVE SMOOTH",
"251 -31 OFFCURVE",
"263 -71 OFFCURVE",
"293 -71 CURVE SMOOTH"
);
}
);
width = 783;
}
);
note = K;
unicode = 004B;
},
{
glyphname = L;
lastChange = "2022-02-07 22:19:05 +0000";
layers = (
{
background = {
paths = (
{
closed = 1;
nodes = (
"954 -44 OFFCURVE",
"946 -37 OFFCURVE",
"937 -37 CURVE SMOOTH",
"931 -37 OFFCURVE",
"928 -39 OFFCURVE",
"925 -42 CURVE SMOOTH",
"897 -64 OFFCURVE",
"854 -73 OFFCURVE",
"817 -73 CURVE SMOOTH",
"654 -73 OFFCURVE",
"491 22 OFFCURVE",
"351 85 CURVE",
"394 134 OFFCURVE",
"429 188 OFFCURVE",
"462 243 CURVE",
"579 243 OFFCURVE",
"691 299 OFFCURVE",
"768 372 CURVE SMOOTH",
"831 431 OFFCURVE",
"901 531 OFFCURVE",
"901 615 CURVE SMOOTH",
"901 665 OFFCURVE",
"870 704 OFFCURVE",
"808 704 CURVE SMOOTH",
"728 704 OFFCURVE",
"648 613 OFFCURVE",
"611 560 CURVE SMOOTH",
"546 469 OFFCURVE",
"492 370 OFFCURVE",
"440 273 CURVE",
"356 280 OFFCURVE",
"279 307 OFFCURVE",
"279 392 CURVE SMOOTH",
"279 449 OFFCURVE",
"317 507 OFFCURVE",
"375 534 CURVE SMOOTH",
"393 543 OFFCURVE",
"411 545 OFFCURVE",
"430 550 CURVE SMOOTH",
"439 552 OFFCURVE",
"444 556 OFFCURVE",
"444 565 CURVE SMOOTH",
"444 573 OFFCURVE",
"438 579 OFFCURVE",
"428 579 CURVE SMOOTH",
"408 579 OFFCURVE",
"377 568 OFFCURVE",
"359 559 CURVE SMOOTH",
"291 526 OFFCURVE",
"249 460 OFFCURVE",
"249 393 CURVE SMOOTH",
"249 301 OFFCURVE",
"323 254 OFFCURVE",
"422 244 CURVE",
"392 193 OFFCURVE",
"358 143 OFFCURVE",
"320 97 CURVE",
"259 120 OFFCURVE",
"179 146 OFFCURVE",
"112 146 CURVE SMOOTH",
"38 146 OFFCURVE",
"-39 112 OFFCURVE",
"-39 39 CURVE SMOOTH",
"-39 -26 OFFCURVE",
"26 -62 OFFCURVE",
"96 -62 CURVE SMOOTH",
"189 -62 OFFCURVE",
"270 0 OFFCURVE",
"327 59 CURVE",
"475 -3 OFFCURVE",
"649 -102 OFFCURVE",
"817 -102 CURVE SMOOTH",
"823 -102 OFFCURVE",
"829 -102 OFFCURVE",
"835 -102 CURVE SMOOTH",
"869 -100 OFFCURVE",
"925 -84 OFFCURVE",
"949 -61 CURVE SMOOTH",
"952 -58 OFFCURVE",
"954 -55 OFFCURVE",
"954 -51 CURVE SMOOTH"
);
},
{
closed = 1;
nodes = (
"865 555 OFFCURVE",
"795 438 OFFCURVE",
"744 391 CURVE SMOOTH",
"675 327 OFFCURVE",
"582 281 OFFCURVE",
"481 274 CURVE",
"529 361 OFFCURVE",
"582 464 OFFCURVE",
"639 545 CURVE SMOOTH",
"670 588 OFFCURVE",
"739 675 OFFCURVE",
"806 675 CURVE SMOOTH",
"846 675 OFFCURVE",
"865 652 OFFCURVE",
"865 619 CURVE SMOOTH"
);
},
{
closed = 1;
nodes = (
"249 20 OFFCURVE",
"181 -33 OFFCURVE",
"99 -33 CURVE SMOOTH",
"49 -33 OFFCURVE",
"-5 -10 OFFCURVE",
"-5 39 CURVE SMOOTH",
"-5 94 OFFCURVE",
"56 118 OFFCURVE",
"111 118 CURVE SMOOTH",
"173 118 OFFCURVE",
"244 93 OFFCURVE",
"300 71 CURVE"
);
}
);
};
layerId = "6A041D6C-A676-4DB4-A570-80A8F8AA896B";
paths = (
{
closed = 1;
nodes = (
"835 -102 LINE SMOOTH",
"869 -100 OFFCURVE",
"925 -84 OFFCURVE",
"949 -61 CURVE SMOOTH",
"952 -58 OFFCURVE",
"954 -55 OFFCURVE",
"954 -51 CURVE SMOOTH",
"954 -44 OFFCURVE",
"946 -37 OFFCURVE",
"937 -37 CURVE SMOOTH",
"931 -37 OFFCURVE",
"928 -39 OFFCURVE",
"925 -42 CURVE SMOOTH",
"897 -64 OFFCURVE",
"854 -73 OFFCURVE",
"817 -73 CURVE SMOOTH",
"654 -73 OFFCURVE",
"491 22 OFFCURVE",
"351 85 CURVE",
"394 134 OFFCURVE",
"429 188 OFFCURVE",
"462 243 CURVE",
"579 243 OFFCURVE",
"691 299 OFFCURVE",
"768 372 CURVE SMOOTH",
"831 431 OFFCURVE",
"901 531 OFFCURVE",
"901 615 CURVE SMOOTH",
"901 665 OFFCURVE",
"870 704 OFFCURVE",
"808 704 CURVE SMOOTH",
"728 704 OFFCURVE",
"648 613 OFFCURVE",
"611 560 CURVE SMOOTH",
"546 469 OFFCURVE",
"492 370 OFFCURVE",
"440 273 CURVE",
"356 280 OFFCURVE",
"279 307 OFFCURVE",
"279 392 CURVE SMOOTH",
"279 449 OFFCURVE",
"317 507 OFFCURVE",
"375 534 CURVE SMOOTH",
"393 543 OFFCURVE",
"411 545 OFFCURVE",
"430 550 CURVE SMOOTH",
"439 552 OFFCURVE",
"444 556 OFFCURVE",
"444 565 CURVE SMOOTH",
"444 573 OFFCURVE",
"438 579 OFFCURVE",
"428 579 CURVE SMOOTH",
"408 579 OFFCURVE",
"377 568 OFFCURVE",
"359 559 CURVE SMOOTH",
"291 526 OFFCURVE",
"249 460 OFFCURVE",
"249 393 CURVE SMOOTH",
"249 301 OFFCURVE",
"323 254 OFFCURVE",
"422 244 CURVE",
"392 193 OFFCURVE",
"358 143 OFFCURVE",
"320 97 CURVE",
"259 120 OFFCURVE",
"179 146 OFFCURVE",
"112 146 CURVE SMOOTH",
"38 146 OFFCURVE",
"-39 112 OFFCURVE",
"-39 39 CURVE SMOOTH",
"-39 -26 OFFCURVE",
"26 -62 OFFCURVE",
"96 -62 CURVE SMOOTH",
"189 -62 OFFCURVE",
"270 0 OFFCURVE",
"327 59 CURVE",
"475 -3 OFFCURVE",
"649 -102 OFFCURVE",
"817 -102 CURVE SMOOTH"
);
},
{
closed = 1;
nodes = (
"49 -33 OFFCURVE",
"-5 -10 OFFCURVE",
"-5 39 CURVE SMOOTH",
"-5 94 OFFCURVE",
"56 118 OFFCURVE",
"111 118 CURVE SMOOTH",
"173 118 OFFCURVE",
"244 93 OFFCURVE",
"300 71 CURVE",
"249 20 OFFCURVE",
"181 -33 OFFCURVE",
"99 -33 CURVE SMOOTH"
);
},
{
closed = 1;
nodes = (
"529 361 OFFCURVE",
"582 464 OFFCURVE",
"639 545 CURVE SMOOTH",
"670 588 OFFCURVE",
"739 675 OFFCURVE",
"806 675 CURVE SMOOTH",
"846 675 OFFCURVE",
"865 652 OFFCURVE",
"865 619 CURVE SMOOTH",
"865 555 OFFCURVE",
"795 438 OFFCURVE",
"744 391 CURVE SMOOTH",
"675 327 OFFCURVE",
"582 281 OFFCURVE",
"481 274 CURVE"
);
}
);
width = 669;
}
);
note = L;
unicode = 004C;
},
{
glyphname = M;
lastChange = "2022-02-07 22:19:05 +0000";
layers = (
{
background = {
paths = (
{
closed = 1;
nodes = (
"1098 578 OFFCURVE",
"1078 591 OFFCURVE",
"1052 591 CURVE SMOOTH",
"1015 591 OFFCURVE",
"981 569 OFFCURVE",
"957 547 CURVE SMOOTH",
"856 459 OFFCURVE",
"738 307 OFFCURVE",
"665 198 CURVE",
"660 200 LINE",
"678 254 OFFCURVE",
"696 308 OFFCURVE",
"714 363 CURVE SMOOTH",
"722 389 OFFCURVE",
"733 416 OFFCURVE",
"739 443 CURVE SMOOTH",
"742 457 OFFCURVE",
"745 470 OFFCURVE",
"745 484 CURVE SMOOTH",
"745 512 OFFCURVE",
"734 547 OFFCURVE",
"695 547 CURVE SMOOTH",
"618 547 OFFCURVE",
"484 383 OFFCURVE",
"445 333 CURVE",
"440 335 LINE",
"474 400 OFFCURVE",
"546 538 OFFCURVE",
"546 608 CURVE SMOOTH",
"546 663 OFFCURVE",
"501 682 OFFCURVE",
"445 682 CURVE SMOOTH",
"376 682 OFFCURVE",
"289 655 OFFCURVE",
"230 625 CURVE SMOOTH",
"151 585 OFFCURVE",
"56 509 OFFCURVE",
"9 440 CURVE SMOOTH",
"-14 406 OFFCURVE",
"-28 365 OFFCURVE",
"-28 326 CURVE SMOOTH",
"-28 269 OFFCURVE",
"6 228 OFFCURVE",
"76 228 CURVE SMOOTH",
"92 228 OFFCURVE",
"154 237 OFFCURVE",
"154 256 CURVE SMOOTH",
"154 264 OFFCURVE",
"146 272 OFFCURVE",
"137 272 CURVE SMOOTH",
"127 272 OFFCURVE",
"107 256 OFFCURVE",
"75 256 CURVE SMOOTH",
"26 256 OFFCURVE",
"2 284 OFFCURVE",
"2 324 CURVE SMOOTH",
"2 430 OFFCURVE",
"140 551 OFFCURVE",
"238 600 CURVE SMOOTH",
"292 627 OFFCURVE",
"379 659 OFFCURVE",
"442 659 CURVE SMOOTH",
"486 659 OFFCURVE",
"513 643 OFFCURVE",
"513 603 CURVE SMOOTH",
"513 517 OFFCURVE",
"382 294 OFFCURVE",
"338 212 CURVE SMOOTH",
"296 133 OFFCURVE",
"250 53 OFFCURVE",
"218 -30 CURVE",
"218 -31 OFFCURVE",
"218 -33 OFFCURVE",
"218 -34 CURVE SMOOTH",
"218 -43 OFFCURVE",
"230 -45 OFFCURVE",
"237 -45 CURVE SMOOTH",
"242 -45 OFFCURVE",
"247 -44 OFFCURVE",
"252 -42 CURVE",
"296 44 OFFCURVE",
"346 128 OFFCURVE",
"394 212 CURVE SMOOTH",
"444 297 OFFCURVE",
"513 375 OFFCURVE",
"586 446 CURVE SMOOTH",
"605 463 OFFCURVE",
"625 482 OFFCURVE",
"646 497 CURVE SMOOTH",
"658 505 OFFCURVE",
"674 515 OFFCURVE",
"690 515 CURVE SMOOTH",
"708 515 OFFCURVE",
"713 500 OFFCURVE",
"713 486 CURVE SMOOTH",
"713 474 OFFCURVE",
"710 462 OFFCURVE",
"706 450 CURVE SMOOTH",
"665 319 OFFCURVE",
"621 188 OFFCURVE",
"576 58 CURVE",
"576 56 OFFCURVE",
"575 55 OFFCURVE",
"575 53 CURVE SMOOTH",
"575 45 OFFCURVE",
"583 38 OFFCURVE",
"592 38 CURVE SMOOTH",
"600 38 OFFCURVE",
"605 42 OFFCURVE",
"608 48 CURVE",
"626 75 OFFCURVE",
"644 108 OFFCURVE",
"662 136 CURVE SMOOTH",
"703 199 OFFCURVE",
"747 260 OFFCURVE",
"793 320 CURVE SMOOTH",
"846 387 OFFCURVE",
"913 471 OFFCURVE",
"980 528 CURVE SMOOTH",
"995 541 OFFCURVE",
"1018 558 OFFCURVE",
"1041 558 CURVE SMOOTH",
"1051 558 OFFCURVE",
"1060 554 OFFCURVE",
"1060 545 CURVE SMOOTH",
"1060 539 OFFCURVE",
"1058 534 OFFCURVE",
"1055 530 CURVE SMOOTH",
"951 380 OFFCURVE",
"872 211 OFFCURVE",
"843 37 CURVE SMOOTH",
"839 14 OFFCURVE",
"836 -9 OFFCURVE",
"836 -31 CURVE SMOOTH",
"836 -69 OFFCURVE",
"845 -93 OFFCURVE",
"885 -109 CURVE SMOOTH",
"888 -110 OFFCURVE",
"890 -110 OFFCURVE",
"893 -110 CURVE SMOOTH",
"901 -110 OFFCURVE",
"906 -104 OFFCURVE",
"906 -97 CURVE SMOOTH",
"906 -74 OFFCURVE",
"869 -87 OFFCURVE",
"869 -26 CURVE SMOOTH",
"869 -7 OFFCURVE",
"872 13 OFFCURVE",
"876 32 CURVE SMOOTH",
"908 193 OFFCURVE",
"988 376 OFFCURVE",
"1083 515 CURVE SMOOTH",
"1091 527 OFFCURVE",
"1098 540 OFFCURVE",
"1098 554 CURVE SMOOTH"
);
}
);
};
layerId = "6A041D6C-A676-4DB4-A570-80A8F8AA896B";
paths = (
{
closed = 1;
nodes = (
"901 -110 OFFCURVE",
"906 -104 OFFCURVE",
"906 -97 CURVE SMOOTH",
"906 -74 OFFCURVE",
"869 -87 OFFCURVE",
"869 -26 CURVE SMOOTH",
"869 -7 OFFCURVE",
"872 13 OFFCURVE",
"876 32 CURVE SMOOTH",
"908 193 OFFCURVE",
"988 376 OFFCURVE",
"1083 515 CURVE SMOOTH",
"1091 527 OFFCURVE",
"1098 540 OFFCURVE",
"1098 554 CURVE SMOOTH",
"1098 578 OFFCURVE",
"1078 591 OFFCURVE",
"1052 591 CURVE SMOOTH",
"1015 591 OFFCURVE",
"981 569 OFFCURVE",
"957 547 CURVE SMOOTH",
"856 459 OFFCURVE",
"738 307 OFFCURVE",
"665 198 CURVE",
"660 200 LINE",
"714 363 LINE SMOOTH",
"722 389 OFFCURVE",
"733 416 OFFCURVE",
"739 443 CURVE SMOOTH",
"742 457 OFFCURVE",
"745 470 OFFCURVE",
"745 484 CURVE SMOOTH",
"745 512 OFFCURVE",
"734 547 OFFCURVE",
"695 547 CURVE SMOOTH",
"618 547 OFFCURVE",
"484 383 OFFCURVE",
"445 333 CURVE",
"440 335 LINE",
"474 400 OFFCURVE",
"546 538 OFFCURVE",
"546 608 CURVE SMOOTH",
"546 663 OFFCURVE",
"501 682 OFFCURVE",
"445 682 CURVE SMOOTH",
"376 682 OFFCURVE",
"289 655 OFFCURVE",
"230 625 CURVE SMOOTH",
"151 585 OFFCURVE",
"56 509 OFFCURVE",
"9 440 CURVE SMOOTH",
"-14 406 OFFCURVE",
"-28 365 OFFCURVE",
"-28 326 CURVE SMOOTH",
"-28 269 OFFCURVE",
"6 228 OFFCURVE",
"76 228 CURVE SMOOTH",
"92 228 OFFCURVE",
"154 237 OFFCURVE",
"154 256 CURVE SMOOTH",
"154 264 OFFCURVE",
"146 272 OFFCURVE",
"137 272 CURVE SMOOTH",
"127 272 OFFCURVE",
"107 256 OFFCURVE",
"75 256 CURVE SMOOTH",
"26 256 OFFCURVE",
"2 284 OFFCURVE",
"2 324 CURVE SMOOTH",
"2 430 OFFCURVE",
"140 551 OFFCURVE",
"238 600 CURVE SMOOTH",
"292 627 OFFCURVE",
"379 659 OFFCURVE",
"442 659 CURVE SMOOTH",
"486 659 OFFCURVE",
"513 643 OFFCURVE",
"513 603 CURVE SMOOTH",
"513 517 OFFCURVE",
"382 294 OFFCURVE",
"338 212 CURVE SMOOTH",
"296 133 OFFCURVE",
"250 53 OFFCURVE",
"218 -30 CURVE",
"218 -34 LINE SMOOTH",
"218 -43 OFFCURVE",
"230 -45 OFFCURVE",
"237 -45 CURVE SMOOTH",
"242 -45 OFFCURVE",
"247 -44 OFFCURVE",
"252 -42 CURVE",
"296 44 OFFCURVE",
"346 128 OFFCURVE",
"394 212 CURVE SMOOTH",
"444 297 OFFCURVE",
"513 375 OFFCURVE",
"586 446 CURVE SMOOTH",
"605 463 OFFCURVE",
"625 482 OFFCURVE",
"646 497 CURVE SMOOTH",
"658 505 OFFCURVE",
"674 515 OFFCURVE",
"690 515 CURVE SMOOTH",
"708 515 OFFCURVE",
"713 500 OFFCURVE",
"713 486 CURVE SMOOTH",
"713 474 OFFCURVE",
"710 462 OFFCURVE",
"706 450 CURVE SMOOTH",
"665 319 OFFCURVE",
"621 188 OFFCURVE",
"576 58 CURVE",
"576 56 OFFCURVE",
"575 55 OFFCURVE",
"575 53 CURVE SMOOTH",
"575 45 OFFCURVE",
"583 38 OFFCURVE",
"592 38 CURVE SMOOTH",
"600 38 OFFCURVE",
"605 42 OFFCURVE",
"608 48 CURVE",
"626 75 OFFCURVE",
"644 108 OFFCURVE",
"662 136 CURVE SMOOTH",
"703 199 OFFCURVE",
"747 260 OFFCURVE",
"793 320 CURVE SMOOTH",
"846 387 OFFCURVE",
"913 471 OFFCURVE",
"980 528 CURVE SMOOTH",
"995 541 OFFCURVE",
"1018 558 OFFCURVE",
"1041 558 CURVE SMOOTH",
"1051 558 OFFCURVE",
"1060 554 OFFCURVE",
"1060 545 CURVE SMOOTH",
"1060 539 OFFCURVE",
"1058 534 OFFCURVE",
"1055 530 CURVE SMOOTH",
"951 380 OFFCURVE",
"872 211 OFFCURVE",
"843 37 CURVE SMOOTH",
"839 14 OFFCURVE",
"836 -9 OFFCURVE",
"836 -31 CURVE SMOOTH",
"836 -69 OFFCURVE",
"845 -93 OFFCURVE",
"885 -109 CURVE SMOOTH",
"888 -110 OFFCURVE",
"890 -110 OFFCURVE",
"893 -110 CURVE SMOOTH"
);
}
);
width = 966;
}
);
note = M;
unicode = 004D;
},
{
glyphname = N;
lastChange = "2022-02-07 22:19:05 +0000";
layers = (
{
background = {
paths = (
{
closed = 1;
nodes = (
"1001 623 OFFCURVE",
"972 654 OFFCURVE",
"908 654 CURVE SMOOTH",
"766 654 OFFCURVE",
"570 432 OFFCURVE",
"494 339 CURVE",
"490 341 LINE",
"522 417 OFFCURVE",
"582 571 OFFCURVE",
"582 649 CURVE SMOOTH",
"582 708 OFFCURVE",
"543 737 OFFCURVE",
"476 737 CURVE SMOOTH",
"409 737 OFFCURVE",
"313 706 OFFCURVE",
"255 674 CURVE SMOOTH",
"181 633 OFFCURVE",
"79 557 OFFCURVE",
"34 490 CURVE SMOOTH",
"11 455 OFFCURVE",
"-5 412 OFFCURVE",
"-5 372 CURVE SMOOTH",
"-5 314 OFFCURVE",
"34 276 OFFCURVE",
"102 276 CURVE SMOOTH",
"124 276 OFFCURVE",
"185 289 OFFCURVE",
"185 314 CURVE SMOOTH",
"185 321 OFFCURVE",
"179 325 OFFCURVE",
"172 325 CURVE SMOOTH",
"155 325 OFFCURVE",
"137 305 OFFCURVE",
"101 305 CURVE SMOOTH",
"50 305 OFFCURVE",
"30 331 OFFCURVE",
"30 372 CURVE SMOOTH",
"30 406 OFFCURVE",
"43 445 OFFCURVE",
"62 474 CURVE SMOOTH",
"105 540 OFFCURVE",
"196 611 OFFCURVE",
"270 650 CURVE SMOOTH",
"321 677 OFFCURVE",
"409 705 OFFCURVE",
"468 705 CURVE SMOOTH",
"515 705 OFFCURVE",
"547 688 OFFCURVE",
"547 644 CURVE SMOOTH",
"547 636 OFFCURVE",
"546 629 OFFCURVE",
"545 622 CURVE SMOOTH",
"517 477 OFFCURVE",
"456 339 OFFCURVE",
"387 205 CURVE SMOOTH",
"349 131 OFFCURVE",
"305 58 OFFCURVE",
"271 -17 CURVE",
"271 -19 OFFCURVE",
"270 -20 OFFCURVE",
"270 -22 CURVE SMOOTH",
"270 -30 OFFCURVE",
"278 -37 OFFCURVE",
"286 -37 CURVE SMOOTH",
"290 -37 OFFCURVE",
"300 -31 OFFCURVE",
"302 -28 CURVE SMOOTH",
"315 -8 OFFCURVE",
"327 12 OFFCURVE",
"338 33 CURVE SMOOTH",
"365 78 OFFCURVE",
"391 125 OFFCURVE",
"417 171 CURVE SMOOTH",
"435 201 OFFCURVE",
"452 232 OFFCURVE",
"473 261 CURVE SMOOTH",
"551 368 OFFCURVE",
"751 624 OFFCURVE",
"904 626 CURVE SMOOTH",
"906 626 LINE SMOOTH",
"950 627 OFFCURVE",
"962 595 OFFCURVE",
"962 563 CURVE SMOOTH",
"962 488 OFFCURVE",
"901 374 OFFCURVE",
"864 308 CURVE SMOOTH",
"812 218 OFFCURVE",
"762 128 OFFCURVE",
"731 30 CURVE SMOOTH",
"725 9 OFFCURVE",
"720 -13 OFFCURVE",
"720 -35 CURVE SMOOTH",
"720 -54 OFFCURVE",
"728 -99 OFFCURVE",
"758 -99 CURVE SMOOTH",
"767 -99 OFFCURVE",
"775 -92 OFFCURVE",
"775 -84 CURVE SMOOTH",
"775 -66 OFFCURVE",
"751 -79 OFFCURVE",
"751 -43 CURVE SMOOTH",
"751 -21 OFFCURVE",
"758 1 OFFCURVE",
"765 22 CURVE SMOOTH",
"795 118 OFFCURVE",
"844 206 OFFCURVE",
"895 294 CURVE SMOOTH",
"936 366 OFFCURVE",
"1001 487 OFFCURVE",
"1001 569 CURVE SMOOTH"
);
}
);
};
layerId = "6A041D6C-A676-4DB4-A570-80A8F8AA896B";
paths = (
{
closed = 1;
nodes = (
"767 -99 OFFCURVE",
"775 -92 OFFCURVE",
"775 -84 CURVE SMOOTH",
"775 -66 OFFCURVE",
"751 -79 OFFCURVE",
"751 -43 CURVE SMOOTH",
"751 -21 OFFCURVE",
"758 1 OFFCURVE",
"765 22 CURVE SMOOTH",
"795 118 OFFCURVE",
"844 206 OFFCURVE",
"895 294 CURVE SMOOTH",
"936 366 OFFCURVE",
"1001 487 OFFCURVE",
"1001 569 CURVE SMOOTH",
"1001 623 OFFCURVE",
"972 654 OFFCURVE",
"908 654 CURVE SMOOTH",
"766 654 OFFCURVE",
"570 432 OFFCURVE",
"494 339 CURVE",
"490 341 LINE",
"522 417 OFFCURVE",
"582 571 OFFCURVE",
"582 649 CURVE SMOOTH",
"582 708 OFFCURVE",
"543 737 OFFCURVE",
"476 737 CURVE SMOOTH",
"409 737 OFFCURVE",
"313 706 OFFCURVE",
"255 674 CURVE SMOOTH",
"181 633 OFFCURVE",
"79 557 OFFCURVE",
"34 490 CURVE SMOOTH",
"11 455 OFFCURVE",
"-5 412 OFFCURVE",
"-5 372 CURVE SMOOTH",
"-5 314 OFFCURVE",
"34 276 OFFCURVE",
"102 276 CURVE SMOOTH",
"124 276 OFFCURVE",
"185 289 OFFCURVE",
"185 314 CURVE SMOOTH",
"185 321 OFFCURVE",
"179 325 OFFCURVE",
"172 325 CURVE SMOOTH",
"155 325 OFFCURVE",
"137 305 OFFCURVE",
"101 305 CURVE SMOOTH",
"50 305 OFFCURVE",
"30 331 OFFCURVE",
"30 372 CURVE SMOOTH",
"30 406 OFFCURVE",
"43 445 OFFCURVE",
"62 474 CURVE SMOOTH",
"105 540 OFFCURVE",
"196 611 OFFCURVE",
"270 650 CURVE SMOOTH",
"321 677 OFFCURVE",
"409 705 OFFCURVE",
"468 705 CURVE SMOOTH",
"515 705 OFFCURVE",
"547 688 OFFCURVE",
"547 644 CURVE SMOOTH",
"547 636 OFFCURVE",
"546 629 OFFCURVE",
"545 622 CURVE SMOOTH",
"517 477 OFFCURVE",
"456 339 OFFCURVE",
"387 205 CURVE SMOOTH",
"349 131 OFFCURVE",
"305 58 OFFCURVE",
"271 -17 CURVE",
"271 -19 OFFCURVE",
"270 -20 OFFCURVE",
"270 -22 CURVE SMOOTH",
"270 -30 OFFCURVE",
"278 -37 OFFCURVE",
"286 -37 CURVE SMOOTH",
"290 -37 OFFCURVE",
"300 -31 OFFCURVE",
"302 -28 CURVE SMOOTH",
"315 -8 OFFCURVE",
"327 12 OFFCURVE",
"338 33 CURVE SMOOTH",
"365 78 OFFCURVE",
"391 125 OFFCURVE",
"417 171 CURVE SMOOTH",
"435 201 OFFCURVE",
"452 232 OFFCURVE",
"473 261 CURVE SMOOTH",
"551 368 OFFCURVE",
"751 624 OFFCURVE",
"904 626 CURVE SMOOTH",
"906 626 LINE SMOOTH",
"950 627 OFFCURVE",
"962 595 OFFCURVE",
"962 563 CURVE SMOOTH",
"962 488 OFFCURVE",
"901 374 OFFCURVE",
"864 308 CURVE SMOOTH",
"812 218 OFFCURVE",
"762 128 OFFCURVE",
"731 30 CURVE SMOOTH",
"725 9 OFFCURVE",
"720 -13 OFFCURVE",
"720 -35 CURVE SMOOTH",
"720 -54 OFFCURVE",
"728 -99 OFFCURVE",
"758 -99 CURVE SMOOTH"
);
}
);
width = 881;
}
);
note = N;
unicode = 004E;
},
{
glyphname = Eng;
lastChange = "2022-02-07 22:19:06 +0000";
layers = (
{
background = {
hints = (
{
horizontal = 1;
place = "{-113, 29}";
type = Stem;
},
{
horizontal = 1;
place = "{184, 29}";
type = Stem;
},
{
horizontal = 1;
place = "{650, -20}";
target = down;
type = TopGhost;
},
{
horizontal = 1;
place = "{-394.157, 35.028}";
type = Stem;
},
{
horizontal = 1;
place = "{9.265, 36.236}";
type = Stem;
},
{
place = "{314.85, 44.69}";
type = Stem;
},
{
place = "{614.68, 41.067}";
type = Stem;
}
);
paths = (
{
closed = 1;
nodes = (
"766 654 OFFCURVE",
"570 432 OFFCURVE",
"494 339 CURVE",
"490 341 LINE",
"522 417 OFFCURVE",
"582 571 OFFCURVE",
"582 649 CURVE SMOOTH",
"582 708 OFFCURVE",
"543 737 OFFCURVE",
"476 737 CURVE SMOOTH",
"409 737 OFFCURVE",
"313 706 OFFCURVE",
"255 674 CURVE SMOOTH",
"181 633 OFFCURVE",
"79 557 OFFCURVE",
"34 490 CURVE SMOOTH",
"11 455 OFFCURVE",
"-5 412 OFFCURVE",
"-5 372 CURVE SMOOTH",
"-5 314 OFFCURVE",
"34 276 OFFCURVE",
"102 276 CURVE SMOOTH",
"124 276 OFFCURVE",
"185 289 OFFCURVE",
"185 314 CURVE SMOOTH",
"185 321 OFFCURVE",
"179 325 OFFCURVE",
"172 325 CURVE SMOOTH",
"155 325 OFFCURVE",
"137 305 OFFCURVE",
"101 305 CURVE SMOOTH",
"50 305 OFFCURVE",
"30 331 OFFCURVE",
"30 372 CURVE SMOOTH",
"30 406 OFFCURVE",
"43 445 OFFCURVE",
"62 474 CURVE SMOOTH",
"105 540 OFFCURVE",
"196 611 OFFCURVE",
"270 650 CURVE SMOOTH",
"321 677 OFFCURVE",
"409 705 OFFCURVE",
"468 705 CURVE SMOOTH",
"515 705 OFFCURVE",
"547 688 OFFCURVE",
"547 644 CURVE SMOOTH",
"547 636 OFFCURVE",
"546 629 OFFCURVE",
"545 622 CURVE SMOOTH",
"517 477 OFFCURVE",
"456 339 OFFCURVE",
"387 205 CURVE SMOOTH",
"349 131 OFFCURVE",
"305 58 OFFCURVE",
"271 -17 CURVE",
"271 -19 OFFCURVE",
"270 -20 OFFCURVE",
"270 -22 CURVE SMOOTH",
"270 -30 OFFCURVE",
"278 -37 OFFCURVE",
"286 -37 CURVE SMOOTH",
"290 -37 OFFCURVE",
"300 -31 OFFCURVE",
"302 -28 CURVE SMOOTH",
"315 -8 OFFCURVE",
"327 12 OFFCURVE",
"338 33 CURVE SMOOTH",
"365 78 OFFCURVE",
"391 125 OFFCURVE",
"417 171 CURVE SMOOTH",
"435 201 OFFCURVE",
"452 232 OFFCURVE",
"473 261 CURVE SMOOTH",
"551 368 OFFCURVE",
"751 626 OFFCURVE",
"904 626 CURVE SMOOTH",
"906 626 LINE SMOOTH",
"950 626 OFFCURVE",
"962 595 OFFCURVE",
"962 563 CURVE SMOOTH",
"962 333 OFFCURVE",
"529 -345 OFFCURVE",
"349 -345 CURVE SMOOTH",
"304 -345 OFFCURVE",
"281 -321 OFFCURVE",
"281 -271 CURVE SMOOTH",
"281 -248 OFFCURVE",
"290 -223 OFFCURVE",
"302 -202 CURVE SMOOTH",
"329 -158 OFFCURVE",
"303 -127 OFFCURVE",
"267 -185 CURVE SMOOTH",
"247 -218 OFFCURVE",
"237 -248 OFFCURVE",
"237 -278 CURVE SMOOTH",
"237 -329 OFFCURVE",
"273 -381 OFFCURVE",
"346 -381 CURVE SMOOTH",
"553 -381 OFFCURVE",
"1001 317 OFFCURVE",
"1001 569 CURVE SMOOTH",
"1001 623 OFFCURVE",
"972 654 OFFCURVE",
"908 654 CURVE SMOOTH"
);
}
);
};
layerId = "6A041D6C-A676-4DB4-A570-80A8F8AA896B";
paths = (
{
closed = 1;
nodes = (
"553 -381 OFFCURVE",
"1001 317 OFFCURVE",
"1001 569 CURVE SMOOTH",
"1001 623 OFFCURVE",
"972 654 OFFCURVE",
"908 654 CURVE SMOOTH",
"766 654 OFFCURVE",
"570 432 OFFCURVE",
"494 339 CURVE",
"490 341 LINE",
"522 417 OFFCURVE",
"582 571 OFFCURVE",
"582 649 CURVE SMOOTH",
"582 708 OFFCURVE",
"543 737 OFFCURVE",
"476 737 CURVE SMOOTH",
"409 737 OFFCURVE",
"313 706 OFFCURVE",
"255 674 CURVE SMOOTH",
"181 633 OFFCURVE",
"79 557 OFFCURVE",
"34 490 CURVE SMOOTH",
"11 455 OFFCURVE",
"-5 412 OFFCURVE",
"-5 372 CURVE SMOOTH",
"-5 314 OFFCURVE",
"34 276 OFFCURVE",
"102 276 CURVE SMOOTH",
"124 276 OFFCURVE",
"185 289 OFFCURVE",
"185 314 CURVE SMOOTH",
"185 321 OFFCURVE",
"179 325 OFFCURVE",
"172 325 CURVE SMOOTH",
"155 325 OFFCURVE",
"137 305 OFFCURVE",
"101 305 CURVE SMOOTH",
"50 305 OFFCURVE",
"30 331 OFFCURVE",
"30 372 CURVE SMOOTH",
"30 406 OFFCURVE",
"43 445 OFFCURVE",
"62 474 CURVE SMOOTH",
"105 540 OFFCURVE",
"196 611 OFFCURVE",
"270 650 CURVE SMOOTH",
"321 677 OFFCURVE",
"409 705 OFFCURVE",
"468 705 CURVE SMOOTH",
"515 705 OFFCURVE",
"547 688 OFFCURVE",
"547 644 CURVE SMOOTH",
"547 636 OFFCURVE",
"546 629 OFFCURVE",
"545 622 CURVE SMOOTH",
"517 477 OFFCURVE",
"456 339 OFFCURVE",
"387 205 CURVE SMOOTH",
"349 131 OFFCURVE",
"305 58 OFFCURVE",
"271 -17 CURVE",
"271 -19 OFFCURVE",
"270 -20 OFFCURVE",
"270 -22 CURVE SMOOTH",
"270 -30 OFFCURVE",
"278 -37 OFFCURVE",
"286 -37 CURVE SMOOTH",
"290 -37 OFFCURVE",
"300 -31 OFFCURVE",
"302 -28 CURVE SMOOTH",
"315 -8 OFFCURVE",
"327 12 OFFCURVE",
"338 33 CURVE SMOOTH",
"365 78 OFFCURVE",
"391 125 OFFCURVE",
"417 171 CURVE SMOOTH",
"435 201 OFFCURVE",
"452 232 OFFCURVE",
"473 261 CURVE SMOOTH",
"551 368 OFFCURVE",
"751 626 OFFCURVE",
"904 626 CURVE SMOOTH",
"906 626 LINE SMOOTH",
"950 626 OFFCURVE",
"962 595 OFFCURVE",
"962 563 CURVE SMOOTH",
"962 333 OFFCURVE",
"529 -345 OFFCURVE",
"349 -345 CURVE SMOOTH",
"304 -345 OFFCURVE",
"281 -321 OFFCURVE",
"281 -271 CURVE SMOOTH",
"281 -248 OFFCURVE",
"290 -223 OFFCURVE",
"302 -202 CURVE SMOOTH",
"310 -189 OFFCURVE",
"313 -178 OFFCURVE",
"313 -169 CURVE SMOOTH",
"313 -159 OFFCURVE",
"309 -153 OFFCURVE",
"302 -153 CURVE SMOOTH",
"294 -153 OFFCURVE",
"281 -162 OFFCURVE",
"267 -185 CURVE SMOOTH",
"247 -218 OFFCURVE",
"237 -248 OFFCURVE",
"237 -278 CURVE SMOOTH",
"237 -329 OFFCURVE",
"273 -381 OFFCURVE",
"346 -381 CURVE SMOOTH"
);
}
);
width = 1082;
}
);
unicode = 014A;
},
{
glyphname = O;
lastChange = "2022-02-07 22:19:05 +0000";
layers = (
{
background = {
paths = (
{
closed = 1;
nodes = (
"871 507 OFFCURVE",
"800 605 OFFCURVE",
"669 643 CURVE",
"670 647 LINE",
"675 647 OFFCURVE",
"680 648 OFFCURVE",
"684 648 CURVE SMOOTH",
"711 648 OFFCURVE",
"752 649 OFFCURVE",
"766 626 CURVE SMOOTH",
"770 619 OFFCURVE",
"772 615 OFFCURVE",
"782 615 CURVE SMOOTH",
"791 615 OFFCURVE",
"799 620 OFFCURVE",
"799 628 CURVE SMOOTH",
"799 664 OFFCURVE",
"717 676 OFFCURVE",
"688 676 CURVE SMOOTH",
"648 676 OFFCURVE",
"607 670 OFFCURVE",
"569 661 CURVE",
"549 663 OFFCURVE",
"529 663 OFFCURVE",
"509 663 CURVE SMOOTH",
"386 663 OFFCURVE",
"227 634 OFFCURVE",
"124 572 CURVE SMOOTH",
"66 537 OFFCURVE",
"37 491 OFFCURVE",
"37 429 CURVE SMOOTH",
"37 421 OFFCURVE",
"44 415 OFFCURVE",
"53 415 CURVE SMOOTH",
"63 415 OFFCURVE",
"70 421 OFFCURVE",
"70 429 CURVE SMOOTH",
"70 482 OFFCURVE",
"94 520 OFFCURVE",
"144 550 CURVE SMOOTH",
"230 603 OFFCURVE",
"366 631 OFFCURVE",
"470 635 CURVE",
"471 631 LINE",
"312 570 OFFCURVE",
"194 457 OFFCURVE",
"126 319 CURVE SMOOTH",
"100 266 OFFCURVE",
"84 208 OFFCURVE",
"84 150 CURVE SMOOTH",
"84 53 OFFCURVE",
"138 -61 OFFCURVE",
"262 -76 CURVE SMOOTH",
"283 -78 OFFCURVE",
"304 -80 OFFCURVE",
"325 -80 CURVE SMOOTH",
"602 -80 OFFCURVE",
"871 147 OFFCURVE",
"871 389 CURVE SMOOTH"
);
},
{
closed = 1;
nodes = (
"840 163 OFFCURVE",
"582 -51 OFFCURVE",
"324 -51 CURVE SMOOTH",
"305 -51 OFFCURVE",
"285 -51 OFFCURVE",
"266 -48 CURVE SMOOTH",
"158 -34 OFFCURVE",
"117 64 OFFCURVE",
"117 147 CURVE SMOOTH",
"117 203 OFFCURVE",
"133 257 OFFCURVE",
"158 308 CURVE SMOOTH",
"234 467 OFFCURVE",
"380 589 OFFCURVE",
"574 632 CURVE",
"731 618 OFFCURVE",
"840 531 OFFCURVE",
"840 389 CURVE SMOOTH"
);
}
);
};
layerId = "6A041D6C-A676-4DB4-A570-80A8F8AA896B";
paths = (
{
closed = 1;
nodes = (
"602 -80 OFFCURVE",
"871 147 OFFCURVE",
"871 389 CURVE SMOOTH",
"871 507 OFFCURVE",
"800 605 OFFCURVE",
"669 643 CURVE",
"670 647 LINE",
"675 647 OFFCURVE",
"680 648 OFFCURVE",
"684 648 CURVE SMOOTH",
"711 648 OFFCURVE",
"752 649 OFFCURVE",
"766 626 CURVE SMOOTH",
"770 619 OFFCURVE",
"772 615 OFFCURVE",
"782 615 CURVE SMOOTH",
"791 615 OFFCURVE",
"799 620 OFFCURVE",
"799 628 CURVE SMOOTH",
"799 664 OFFCURVE",
"717 676 OFFCURVE",
"688 676 CURVE SMOOTH",
"648 676 OFFCURVE",
"607 670 OFFCURVE",
"569 661 CURVE",
"549 663 OFFCURVE",
"529 663 OFFCURVE",
"509 663 CURVE SMOOTH",
"386 663 OFFCURVE",
"227 634 OFFCURVE",
"124 572 CURVE SMOOTH",
"66 537 OFFCURVE",
"37 491 OFFCURVE",
"37 429 CURVE SMOOTH",
"37 421 OFFCURVE",
"44 415 OFFCURVE",
"53 415 CURVE SMOOTH",
"63 415 OFFCURVE",
"70 421 OFFCURVE",
"70 429 CURVE SMOOTH",
"70 482 OFFCURVE",
"94 520 OFFCURVE",
"144 550 CURVE SMOOTH",
"230 603 OFFCURVE",
"366 631 OFFCURVE",
"470 635 CURVE",
"471 631 LINE",
"312 570 OFFCURVE",
"194 457 OFFCURVE",
"126 319 CURVE SMOOTH",
"100 266 OFFCURVE",
"84 208 OFFCURVE",
"84 150 CURVE SMOOTH",
"84 53 OFFCURVE",
"138 -61 OFFCURVE",
"262 -76 CURVE SMOOTH",
"283 -78 OFFCURVE",
"304 -80 OFFCURVE",
"325 -80 CURVE SMOOTH"
);
},
{
closed = 1;
nodes = (
"305 -51 OFFCURVE",
"285 -51 OFFCURVE",
"266 -48 CURVE SMOOTH",
"158 -34 OFFCURVE",
"117 64 OFFCURVE",
"117 147 CURVE SMOOTH",
"117 203 OFFCURVE",
"133 257 OFFCURVE",
"158 308 CURVE SMOOTH",
"234 467 OFFCURVE",
"380 589 OFFCURVE",
"574 632 CURVE",
"731 618 OFFCURVE",
"840 531 OFFCURVE",
"840 389 CURVE SMOOTH",
"840 163 OFFCURVE",
"582 -51 OFFCURVE",
"324 -51 CURVE SMOOTH"
);
}
);
width = 816;
}
);
note = O;
unicode = 004F;
},
{
glyphname = Oslash;
lastChange = "2022-02-07 22:19:06 +0000";
layers = (
{
background = {
paths = (
{
closed = 1;
nodes = (
"844 671 OFFCURVE",
"828 670 OFFCURVE",
"815 657 CURVE SMOOTH",
"800 642 OFFCURVE",
"780 623 OFFCURVE",
"759 601 CURVE",
"733 619 OFFCURVE",
"703 633 OFFCURVE",
"669 643 CURVE",
"670 647 LINE",
"702 661 OFFCURVE",
"625 665 OFFCURVE",
"569 661 CURVE",
"549 663 OFFCURVE",
"529 663 OFFCURVE",
"509 663 CURVE SMOOTH",
"386 663 OFFCURVE",
"227 634 OFFCURVE",
"124 572 CURVE SMOOTH",
"66 537 OFFCURVE",
"37 491 OFFCURVE",
"37 429 CURVE SMOOTH",
"37 421 OFFCURVE",
"44 415 OFFCURVE",
"53 415 CURVE SMOOTH",
"63 415 OFFCURVE",
"70 421 OFFCURVE",
"70 429 CURVE SMOOTH",
"70 482 OFFCURVE",
"94 520 OFFCURVE",
"144 550 CURVE SMOOTH",
"230 603 OFFCURVE",
"366 631 OFFCURVE",
"470 635 CURVE",
"471 631 LINE",
"312 570 OFFCURVE",
"194 457 OFFCURVE",
"126 319 CURVE SMOOTH",
"100 266 OFFCURVE",
"84 208 OFFCURVE",
"84 150 CURVE SMOOTH",
"84 92 OFFCURVE",
"103 29 OFFCURVE",
"144 -16 CURVE",
"128 -31 OFFCURVE",
"113 -47 OFFCURVE",
"99 -63 CURVE SMOOTH",
"97 -66 OFFCURVE",
"95 -70 OFFCURVE",
"95 -74 CURVE SMOOTH",
"95 -82 OFFCURVE",
"103 -90 OFFCURVE",
"111 -90 CURVE SMOOTH",
"116 -90 OFFCURVE",
"120 -88 OFFCURVE",
"123 -85 CURVE",
"122 -85 LINE",
"168 -38 LINE",
"193 -58 OFFCURVE",
"224 -71 OFFCURVE",
"262 -76 CURVE SMOOTH",
"283 -78 OFFCURVE",
"304 -80 OFFCURVE",
"325 -80 CURVE SMOOTH",
"602 -80 OFFCURVE",
"871 147 OFFCURVE",
"871 389 CURVE SMOOTH",
"871 465 OFFCURVE",
"841 532 OFFCURVE",
"786 581 CURVE",
"839 636 LINE SMOOTH",
"842 639 OFFCURVE",
"844 642 OFFCURVE",
"844 646 CURVE SMOOTH"
);
},
{
closed = 1;
nodes = (
"840 163 OFFCURVE",
"582 -51 OFFCURVE",
"324 -51 CURVE SMOOTH",
"305 -51 OFFCURVE",
"285 -51 OFFCURVE",
"266 -48 CURVE SMOOTH",
"235 -44 OFFCURVE",
"209 -33 OFFCURVE",
"188 -17 CURVE",
"331 126 OFFCURVE",
"475 268 OFFCURVE",
"618 412 CURVE SMOOTH",
"657 451 OFFCURVE",
"714 507 OFFCURVE",
"765 559 CURVE",
"812 518 OFFCURVE",
"840 460 OFFCURVE",
"840 389 CURVE SMOOTH"
);
},
{
closed = 1;
nodes = (
"117 203 OFFCURVE",
"133 257 OFFCURVE",
"158 308 CURVE SMOOTH",
"234 467 OFFCURVE",
"380 589 OFFCURVE",
"574 632 CURVE",
"638 626 OFFCURVE",
"694 608 OFFCURVE",
"738 579 CURVE",
"646 485 LINE SMOOTH",
"556 394 OFFCURVE",
"466 304 OFFCURVE",
"375 214 CURVE SMOOTH",
"190 29 LINE SMOOTH",
"182 21 OFFCURVE",
"174 12 OFFCURVE",
"165 4 CURVE",
"131 43 OFFCURVE",
"117 98 OFFCURVE",
"117 147 CURVE SMOOTH"
);
}
);
};
layerId = "6A041D6C-A676-4DB4-A570-80A8F8AA896B";
paths = (
{
closed = 1;
nodes = (
"116 -90 OFFCURVE",
"120 -88 OFFCURVE",
"123 -85 CURVE",
"122 -85 LINE",
"168 -38 LINE",
"193 -58 OFFCURVE",
"224 -71 OFFCURVE",
"262 -76 CURVE SMOOTH",
"283 -78 OFFCURVE",
"304 -80 OFFCURVE",
"325 -80 CURVE SMOOTH",
"602 -80 OFFCURVE",
"871 147 OFFCURVE",
"871 389 CURVE SMOOTH",
"871 465 OFFCURVE",
"841 532 OFFCURVE",
"786 581 CURVE",
"839 636 LINE SMOOTH",
"842 639 OFFCURVE",
"844 642 OFFCURVE",
"844 646 CURVE SMOOTH",
"844 660 OFFCURVE",
"839 666 OFFCURVE",
"832 666 CURVE SMOOTH",
"827 666 OFFCURVE",
"821 663 OFFCURVE",
"815 657 CURVE SMOOTH",
"800 642 OFFCURVE",
"780 623 OFFCURVE",
"759 601 CURVE",
"733 619 OFFCURVE",
"703 633 OFFCURVE",
"669 643 CURVE",
"670 647 LINE",
"675 649 OFFCURVE",
"677 651 OFFCURVE",
"677 653 CURVE SMOOTH",
"677 660 OFFCURVE",
"647 662 OFFCURVE",
"612 662 CURVE SMOOTH",
"597 662 OFFCURVE",
"583 662 OFFCURVE",
"569 661 CURVE",
"549 663 OFFCURVE",
"529 663 OFFCURVE",
"509 663 CURVE SMOOTH",
"386 663 OFFCURVE",
"227 634 OFFCURVE",
"124 572 CURVE SMOOTH",
"66 537 OFFCURVE",
"37 491 OFFCURVE",
"37 429 CURVE SMOOTH",
"37 421 OFFCURVE",
"44 415 OFFCURVE",
"53 415 CURVE SMOOTH",
"63 415 OFFCURVE",
"70 421 OFFCURVE",
"70 429 CURVE SMOOTH",
"70 482 OFFCURVE",
"94 520 OFFCURVE",
"144 550 CURVE SMOOTH",
"230 603 OFFCURVE",
"366 631 OFFCURVE",
"470 635 CURVE",
"471 631 LINE",
"312 570 OFFCURVE",
"194 457 OFFCURVE",
"126 319 CURVE SMOOTH",
"100 266 OFFCURVE",
"84 208 OFFCURVE",
"84 150 CURVE SMOOTH",
"84 92 OFFCURVE",
"103 29 OFFCURVE",
"144 -16 CURVE",
"128 -31 OFFCURVE",
"113 -47 OFFCURVE",
"99 -63 CURVE SMOOTH",
"97 -66 OFFCURVE",
"95 -70 OFFCURVE",
"95 -74 CURVE SMOOTH",
"95 -82 OFFCURVE",
"103 -90 OFFCURVE",
"111 -90 CURVE SMOOTH"
);
},
{
closed = 1;
nodes = (
"131 43 OFFCURVE",
"117 98 OFFCURVE",
"117 147 CURVE SMOOTH",
"117 203 OFFCURVE",
"133 257 OFFCURVE",
"158 308 CURVE SMOOTH",
"234 467 OFFCURVE",
"380 589 OFFCURVE",
"574 632 CURVE",
"638 626 OFFCURVE",
"694 608 OFFCURVE",
"738 579 CURVE",
"646 485 LINE SMOOTH",
"556 394 OFFCURVE",
"466 304 OFFCURVE",
"375 214 CURVE SMOOTH",
"190 29 LINE SMOOTH",
"182 21 OFFCURVE",
"174 12 OFFCURVE",
"165 4 CURVE"
);
},
{
closed = 1;
nodes = (
"305 -51 OFFCURVE",
"285 -51 OFFCURVE",
"266 -48 CURVE SMOOTH",
"235 -44 OFFCURVE",
"209 -33 OFFCURVE",
"188 -17 CURVE",
"331 126 OFFCURVE",
"475 268 OFFCURVE",
"618 412 CURVE SMOOTH",
"657 451 OFFCURVE",
"714 507 OFFCURVE",
"765 559 CURVE",
"812 518 OFFCURVE",
"840 460 OFFCURVE",
"840 389 CURVE SMOOTH",
"840 163 OFFCURVE",
"582 -51 OFFCURVE",
"324 -51 CURVE SMOOTH"
);
}
);
width = 816;
}
);
note = Oslash;
unicode = 00D8;
},
{
glyphname = OE;
lastChange = "2022-02-07 22:19:05 +0000";
layers = (
{
background = {
paths = (
{
closed = 1;
nodes = (
"1245 511 OFFCURVE",
"1241 515 OFFCURVE",
"1235 515 CURVE SMOOTH",
"1226 515 OFFCURVE",
"1219 507 OFFCURVE",
"1219 500 CURVE SMOOTH",
"1219 488 OFFCURVE",
"1235 484 OFFCURVE",
"1246 484 CURVE SMOOTH",
"1291 484 OFFCURVE",
"1325 526 OFFCURVE",
"1325 562 CURVE SMOOTH",
"1325 621 OFFCURVE",
"1257 633 OFFCURVE",
"1203 633 CURVE SMOOTH",
"1081 633 OFFCURVE",
"919 580 OFFCURVE",
"854 485 CURVE",
"825 558 OFFCURVE",
"762 616 OFFCURVE",
"669 643 CURVE",
"670 647 LINE",
"675 647 OFFCURVE",
"680 648 OFFCURVE",
"684 648 CURVE SMOOTH",
"711 648 OFFCURVE",
"752 649 OFFCURVE",
"766 626 CURVE SMOOTH",
"770 619 OFFCURVE",
"772 615 OFFCURVE",
"782 615 CURVE SMOOTH",
"791 615 OFFCURVE",
"799 620 OFFCURVE",
"799 628 CURVE SMOOTH",
"799 664 OFFCURVE",
"717 676 OFFCURVE",
"688 676 CURVE SMOOTH",
"648 676 OFFCURVE",
"607 670 OFFCURVE",
"569 661 CURVE",
"549 663 OFFCURVE",
"529 663 OFFCURVE",
"509 663 CURVE SMOOTH",
"386 663 OFFCURVE",
"227 634 OFFCURVE",
"124 572 CURVE SMOOTH",
"66 537 OFFCURVE",
"37 491 OFFCURVE",
"37 429 CURVE SMOOTH",
"37 421 OFFCURVE",
"44 415 OFFCURVE",
"53 415 CURVE SMOOTH",
"63 415 OFFCURVE",
"70 421 OFFCURVE",
"70 429 CURVE SMOOTH",
"70 482 OFFCURVE",
"94 520 OFFCURVE",
"144 550 CURVE SMOOTH",
"230 603 OFFCURVE",
"366 631 OFFCURVE",
"470 635 CURVE",
"471 631 LINE",
"312 570 OFFCURVE",
"194 457 OFFCURVE",
"126 319 CURVE SMOOTH",
"100 266 OFFCURVE",
"84 208 OFFCURVE",
"84 150 CURVE SMOOTH",
"84 53 OFFCURVE",
"138 -61 OFFCURVE",
"262 -76 CURVE SMOOTH",
"283 -78 OFFCURVE",
"304 -80 OFFCURVE",
"325 -80 CURVE SMOOTH",
"419 -80 OFFCURVE",
"513 -53 OFFCURVE",
"596 -9 CURVE",
"643 -63 OFFCURVE",
"736 -85 OFFCURVE",
"814 -84 CURVE SMOOTH",
"826 -84 LINE SMOOTH",
"960 -83 OFFCURVE",
"1086 -38 OFFCURVE",
"1188 38 CURVE SMOOTH",
"1215 58 OFFCURVE",
"1246 85 OFFCURVE",
"1263 112 CURVE SMOOTH",
"1275 132 OFFCURVE",
"1284 155 OFFCURVE",
"1284 178 CURVE SMOOTH",
"1284 218 OFFCURVE",
"1253 249 OFFCURVE",
"1205 249 CURVE SMOOTH",
"1196 249 OFFCURVE",
"1188 243 OFFCURVE",
"1188 234 CURVE SMOOTH",
"1188 208 OFFCURVE",
"1250 235 OFFCURVE",
"1250 178 CURVE SMOOTH",
"1250 160 OFFCURVE",
"1243 142 OFFCURVE",
"1233 126 CURVE SMOOTH",
"1220 104 OFFCURVE",
"1195 82 OFFCURVE",
"1174 65 CURVE SMOOTH",
"1078 -10 OFFCURVE",
"953 -50 OFFCURVE",
"825 -55 CURVE SMOOTH",
"813 -55 LINE SMOOTH",
"721 -55 OFFCURVE",
"598 -23 OFFCURVE",
"598 74 CURVE SMOOTH",
"598 91 OFFCURVE",
"602 108 OFFCURVE",
"609 124 CURVE SMOOTH",
"655 231 OFFCURVE",
"757 290 OFFCURVE",
"879 320 CURVE SMOOTH",
"887 322 OFFCURVE",
"894 324 OFFCURVE",
"902 325 CURVE",
"927 315 OFFCURVE",
"955 312 OFFCURVE",
"982 312 CURVE SMOOTH",
"998 312 OFFCURVE",
"1015 313 OFFCURVE",
"1032 315 CURVE SMOOTH",
"1051 317 OFFCURVE",
"1096 331 OFFCURVE",
"1096 352 CURVE SMOOTH",
"1096 368 OFFCURVE",
"1065 369 OFFCURVE",
"1054 369 CURVE SMOOTH",
"1003 369 OFFCURVE",
"953 365 OFFCURVE",
"903 356 CURVE",
"878 368 OFFCURVE",
"861 386 OFFCURVE",
"861 412 CURVE SMOOTH",
"861 432 OFFCURVE",
"870 451 OFFCURVE",
"881 468 CURVE SMOOTH",
"942 559 OFFCURVE",
"1097 606 OFFCURVE",
"1212 606 CURVE SMOOTH",
"1247 606 OFFCURVE",
"1293 600 OFFCURVE",
"1293 561 CURVE SMOOTH",
"1293 543 OFFCURVE",
"1277 511 OFFCURVE",
"1251 511 CURVE SMOOTH"
);
},
{
closed = 1;
nodes = (
"733 313 OFFCURVE",
"629 246 OFFCURVE",
"579 133 CURVE SMOOTH",
"570 114 OFFCURVE",
"565 93 OFFCURVE",
"565 72 CURVE SMOOTH",
"565 51 OFFCURVE",
"570 32 OFFCURVE",
"578 16 CURVE",
"500 -26 OFFCURVE",
"412 -51 OFFCURVE",
"324 -51 CURVE SMOOTH",
"305 -51 OFFCURVE",
"285 -51 OFFCURVE",
"266 -48 CURVE SMOOTH",
"158 -34 OFFCURVE",
"117 64 OFFCURVE",
"117 147 CURVE SMOOTH",
"117 203 OFFCURVE",
"133 257 OFFCURVE",
"158 308 CURVE SMOOTH",
"234 467 OFFCURVE",
"380 589 OFFCURVE",
"574 632 CURVE",
"709 620 OFFCURVE",
"808 554 OFFCURVE",
"833 447 CURVE",
"829 435 OFFCURVE",
"827 424 OFFCURVE",
"827 412 CURVE SMOOTH",
"827 386 OFFCURVE",
"840 365 OFFCURVE",
"863 348 CURVE"
);
}
);
};
layerId = "6A041D6C-A676-4DB4-A570-80A8F8AA896B";
paths = (
{
closed = 1;
nodes = (
"826 -84 LINE SMOOTH",
"960 -83 OFFCURVE",
"1086 -38 OFFCURVE",
"1188 38 CURVE SMOOTH",
"1215 58 OFFCURVE",
"1246 85 OFFCURVE",
"1263 112 CURVE SMOOTH",
"1275 132 OFFCURVE",
"1284 155 OFFCURVE",
"1284 178 CURVE SMOOTH",
"1284 218 OFFCURVE",
"1253 249 OFFCURVE",
"1205 249 CURVE SMOOTH",
"1196 249 OFFCURVE",
"1188 243 OFFCURVE",
"1188 234 CURVE SMOOTH",
"1188 208 OFFCURVE",
"1250 235 OFFCURVE",
"1250 178 CURVE SMOOTH",
"1250 160 OFFCURVE",
"1243 142 OFFCURVE",
"1233 126 CURVE SMOOTH",
"1220 104 OFFCURVE",
"1195 82 OFFCURVE",
"1174 65 CURVE SMOOTH",
"1078 -10 OFFCURVE",
"953 -50 OFFCURVE",
"825 -55 CURVE SMOOTH",
"813 -55 LINE SMOOTH",
"721 -55 OFFCURVE",
"598 -23 OFFCURVE",
"598 74 CURVE SMOOTH",
"598 91 OFFCURVE",
"602 108 OFFCURVE",
"609 124 CURVE SMOOTH",
"655 231 OFFCURVE",
"757 290 OFFCURVE",
"879 320 CURVE SMOOTH",
"887 322 OFFCURVE",
"894 324 OFFCURVE",
"902 325 CURVE",
"927 315 OFFCURVE",
"955 312 OFFCURVE",
"982 312 CURVE SMOOTH",
"998 312 OFFCURVE",
"1015 313 OFFCURVE",
"1032 315 CURVE SMOOTH",
"1051 317 OFFCURVE",
"1096 331 OFFCURVE",
"1096 352 CURVE SMOOTH",
"1096 368 OFFCURVE",
"1065 369 OFFCURVE",
"1054 369 CURVE SMOOTH",
"1003 369 OFFCURVE",
"953 365 OFFCURVE",
"903 356 CURVE",
"878 368 OFFCURVE",
"861 386 OFFCURVE",
"861 412 CURVE SMOOTH",
"861 432 OFFCURVE",
"870 451 OFFCURVE",
"881 468 CURVE SMOOTH",
"942 559 OFFCURVE",
"1097 606 OFFCURVE",
"1212 606 CURVE SMOOTH",
"1247 606 OFFCURVE",
"1293 600 OFFCURVE",
"1293 561 CURVE SMOOTH",
"1293 543 OFFCURVE",
"1277 511 OFFCURVE",
"1251 511 CURVE SMOOTH",
"1245 511 OFFCURVE",
"1241 515 OFFCURVE",
"1235 515 CURVE SMOOTH",
"1226 515 OFFCURVE",
"1219 507 OFFCURVE",
"1219 500 CURVE SMOOTH",
"1219 488 OFFCURVE",
"1235 484 OFFCURVE",
"1246 484 CURVE SMOOTH",
"1291 484 OFFCURVE",
"1325 526 OFFCURVE",
"1325 562 CURVE SMOOTH",
"1325 621 OFFCURVE",
"1257 633 OFFCURVE",
"1203 633 CURVE SMOOTH",
"1081 633 OFFCURVE",
"919 580 OFFCURVE",
"854 485 CURVE",
"825 558 OFFCURVE",
"762 616 OFFCURVE",
"669 643 CURVE",
"670 647 LINE",
"675 647 OFFCURVE",
"680 648 OFFCURVE",
"684 648 CURVE SMOOTH",
"711 648 OFFCURVE",
"752 649 OFFCURVE",
"766 626 CURVE SMOOTH",
"770 619 OFFCURVE",
"772 615 OFFCURVE",
"782 615 CURVE SMOOTH",
"791 615 OFFCURVE",
"799 620 OFFCURVE",
"799 628 CURVE SMOOTH",
"799 664 OFFCURVE",
"717 676 OFFCURVE",
"688 676 CURVE SMOOTH",
"648 676 OFFCURVE",
"607 670 OFFCURVE",
"569 661 CURVE",
"549 663 OFFCURVE",
"529 663 OFFCURVE",
"509 663 CURVE SMOOTH",
"386 663 OFFCURVE",
"227 634 OFFCURVE",
"124 572 CURVE SMOOTH",
"66 537 OFFCURVE",
"37 491 OFFCURVE",
"37 429 CURVE SMOOTH",
"37 421 OFFCURVE",
"44 415 OFFCURVE",
"53 415 CURVE SMOOTH",
"63 415 OFFCURVE",
"70 421 OFFCURVE",
"70 429 CURVE SMOOTH",
"70 482 OFFCURVE",
"94 520 OFFCURVE",
"144 550 CURVE SMOOTH",
"230 603 OFFCURVE",
"366 631 OFFCURVE",
"470 635 CURVE",
"471 631 LINE",
"312 570 OFFCURVE",
"194 457 OFFCURVE",
"126 319 CURVE SMOOTH",
"100 266 OFFCURVE",
"84 208 OFFCURVE",
"84 150 CURVE SMOOTH",
"84 53 OFFCURVE",
"138 -61 OFFCURVE",
"262 -76 CURVE SMOOTH",
"283 -78 OFFCURVE",
"304 -80 OFFCURVE",
"325 -80 CURVE SMOOTH",
"419 -80 OFFCURVE",
"513 -53 OFFCURVE",
"596 -9 CURVE",
"643 -63 OFFCURVE",
"736 -85 OFFCURVE",
"814 -84 CURVE SMOOTH"
);
},
{
closed = 1;
nodes = (
"305 -51 OFFCURVE",
"285 -51 OFFCURVE",
"266 -48 CURVE SMOOTH",
"158 -34 OFFCURVE",
"117 64 OFFCURVE",
"117 147 CURVE SMOOTH",
"117 203 OFFCURVE",
"133 257 OFFCURVE",
"158 308 CURVE SMOOTH",
"234 467 OFFCURVE",
"380 589 OFFCURVE",
"574 632 CURVE",
"709 620 OFFCURVE",
"808 554 OFFCURVE",
"833 447 CURVE",
"829 435 OFFCURVE",
"827 424 OFFCURVE",
"827 412 CURVE SMOOTH",
"827 386 OFFCURVE",
"840 365 OFFCURVE",
"863 348 CURVE",
"733 313 OFFCURVE",
"629 246 OFFCURVE",
"579 133 CURVE SMOOTH",
"570 114 OFFCURVE",
"565 93 OFFCURVE",
"565 72 CURVE SMOOTH",
"565 51 OFFCURVE",
"570 32 OFFCURVE",
"578 16 CURVE",
"500 -26 OFFCURVE",
"412 -51 OFFCURVE",
"324 -51 CURVE SMOOTH"
);
}
);
width = 1251;
}
);
note = OE;
unicode = 0152;
},
{
glyphname = P;
lastChange = "2022-02-07 22:19:05 +0000";
layers = (
{
background = {
paths = (
{
closed = 1;
nodes = (
"865 625 OFFCURVE",
"678 674 OFFCURVE",
"537 674 CURVE SMOOTH",
"531 674 OFFCURVE",
"526 674 OFFCURVE",
"520 674 CURVE SMOOTH",
"357 669 OFFCURVE",
"135 642 OFFCURVE",
"37 512 CURVE SMOOTH",
"16 484 OFFCURVE",
"0 449 OFFCURVE",
"0 415 CURVE SMOOTH",
"0 404 OFFCURVE",
"1 378 OFFCURVE",
"21 378 CURVE SMOOTH",
"30 378 OFFCURVE",
"38 384 OFFCURVE",
"38 392 CURVE SMOOTH",
"38 401 OFFCURVE",
"33 410 OFFCURVE",
"33 420 CURVE SMOOTH",
"33 451 OFFCURVE",
"48 481 OFFCURVE",
"69 505 CURVE SMOOTH",
"163 617 OFFCURVE",
"373 641 OFFCURVE",
"520 646 CURVE SMOOTH",
"526 646 OFFCURVE",
"532 646 OFFCURVE",
"538 646 CURVE SMOOTH",
"660 646 OFFCURVE",
"832 606 OFFCURVE",
"832 475 CURVE SMOOTH",
"832 453 OFFCURVE",
"827 432 OFFCURVE",
"819 412 CURVE SMOOTH",
"756 260 OFFCURVE",
"523 220 OFFCURVE",
"359 220 CURVE SMOOTH",
"336 220 OFFCURVE",
"312 220 OFFCURVE",
"288 222 CURVE SMOOTH",
"279 222 OFFCURVE",
"269 224 OFFCURVE",
"260 224 CURVE SMOOTH",
"249 224 OFFCURVE",
"241 219 OFFCURVE",
"241 209 CURVE SMOOTH",
"241 201 OFFCURVE",
"247 196 OFFCURVE",
"255 195 CURVE SMOOTH",
"285 190 OFFCURVE",
"323 191 OFFCURVE",
"353 191 CURVE SMOOTH",
"532 191 OFFCURVE",
"781 238 OFFCURVE",
"850 403 CURVE SMOOTH",
"860 426 OFFCURVE",
"865 451 OFFCURVE",
"865 476 CURVE SMOOTH"
);
},
{
closed = 1;
nodes = (
"492 615 OFFCURVE",
"484 621 OFFCURVE",
"476 621 CURVE SMOOTH",
"467 621 OFFCURVE",
"464 617 OFFCURVE",
"460 611 CURVE SMOOTH",
"452 599 OFFCURVE",
"436 589 OFFCURVE",
"424 578 CURVE SMOOTH",
"408 563 OFFCURVE",
"393 547 OFFCURVE",
"378 531 CURVE SMOOTH",
"260 397 OFFCURVE",
"147 223 OFFCURVE",
"98 58 CURVE SMOOTH",
"95 47 OFFCURVE",
"93 37 OFFCURVE",
"93 26 CURVE SMOOTH",
"93 3 OFFCURVE",
"108 -62 OFFCURVE",
"145 -62 CURVE SMOOTH",
"155 -62 OFFCURVE",
"162 -54 OFFCURVE",
"162 -46 CURVE SMOOTH",
"162 -28 OFFCURVE",
"125 -38 OFFCURVE",
"125 19 CURVE SMOOTH",
"125 29 OFFCURVE",
"127 40 OFFCURVE",
"130 50 CURVE SMOOTH",
"179 213 OFFCURVE",
"287 381 OFFCURVE",
"404 514 CURVE SMOOTH",
"415 527 OFFCURVE",
"428 541 OFFCURVE",
"441 553 CURVE SMOOTH",
"449 562 OFFCURVE",
"488 594 OFFCURVE",
"491 602 CURVE SMOOTH",
"492 604 OFFCURVE",
"492 606 OFFCURVE",
"492 607 CURVE SMOOTH"
);
}
);
};
layerId = "6A041D6C-A676-4DB4-A570-80A8F8AA896B";
paths = (
{
closed = 1;
nodes = (
"532 191 OFFCURVE",
"781 238 OFFCURVE",
"850 403 CURVE SMOOTH",
"860 426 OFFCURVE",
"865 451 OFFCURVE",
"865 476 CURVE SMOOTH",
"865 625 OFFCURVE",
"678 674 OFFCURVE",
"537 674 CURVE SMOOTH",
"520 674 LINE SMOOTH",
"357 669 OFFCURVE",
"135 642 OFFCURVE",
"37 512 CURVE SMOOTH",
"16 484 OFFCURVE",
"0 449 OFFCURVE",
"0 415 CURVE SMOOTH",
"0 404 OFFCURVE",
"1 378 OFFCURVE",
"21 378 CURVE SMOOTH",
"30 378 OFFCURVE",
"38 384 OFFCURVE",
"38 392 CURVE SMOOTH",
"38 401 OFFCURVE",
"33 410 OFFCURVE",
"33 420 CURVE SMOOTH",
"33 451 OFFCURVE",
"48 481 OFFCURVE",
"69 505 CURVE SMOOTH",
"163 617 OFFCURVE",
"373 641 OFFCURVE",
"520 646 CURVE SMOOTH",
"538 646 LINE SMOOTH",
"660 646 OFFCURVE",
"832 606 OFFCURVE",
"832 475 CURVE SMOOTH",
"832 453 OFFCURVE",
"827 432 OFFCURVE",
"819 412 CURVE SMOOTH",
"756 260 OFFCURVE",
"523 220 OFFCURVE",
"359 220 CURVE SMOOTH",
"336 220 OFFCURVE",
"312 220 OFFCURVE",
"288 222 CURVE SMOOTH",
"279 222 OFFCURVE",
"269 224 OFFCURVE",
"260 224 CURVE SMOOTH",
"249 224 OFFCURVE",
"241 219 OFFCURVE",
"241 209 CURVE SMOOTH",
"241 201 OFFCURVE",
"247 196 OFFCURVE",
"255 195 CURVE SMOOTH",
"285 190 OFFCURVE",
"323 191 OFFCURVE",
"353 191 CURVE SMOOTH"
);
},
{
closed = 1;
nodes = (
"155 -62 OFFCURVE",
"162 -54 OFFCURVE",
"162 -46 CURVE SMOOTH",
"162 -28 OFFCURVE",
"125 -38 OFFCURVE",
"125 19 CURVE SMOOTH",
"125 29 OFFCURVE",
"127 40 OFFCURVE",
"130 50 CURVE SMOOTH",
"179 213 OFFCURVE",
"287 381 OFFCURVE",
"404 514 CURVE SMOOTH",
"415 527 OFFCURVE",
"428 541 OFFCURVE",
"441 553 CURVE SMOOTH",
"449 562 OFFCURVE",
"488 594 OFFCURVE",
"491 602 CURVE SMOOTH",
"492 604 OFFCURVE",
"492 606 OFFCURVE",
"492 607 CURVE SMOOTH",
"492 615 OFFCURVE",
"484 621 OFFCURVE",
"476 621 CURVE SMOOTH",
"467 621 OFFCURVE",
"464 617 OFFCURVE",
"460 611 CURVE SMOOTH",
"452 599 OFFCURVE",
"436 589 OFFCURVE",
"424 578 CURVE SMOOTH",
"408 563 OFFCURVE",
"393 547 OFFCURVE",
"378 531 CURVE SMOOTH",
"260 397 OFFCURVE",
"147 223 OFFCURVE",
"98 58 CURVE SMOOTH",
"95 47 OFFCURVE",
"93 37 OFFCURVE",
"93 26 CURVE SMOOTH",
"93 3 OFFCURVE",
"108 -62 OFFCURVE",
"145 -62 CURVE SMOOTH"
);
}
);
width = 766;
}
);
note = P;
unicode = 0050;
},
{
glyphname = Thorn;
lastChange = "2022-02-07 22:19:06 +0000";
layers = (
{
background = {
paths = (
{
closed = 1;
nodes = (
"690 507 OFFCURVE",
"539 543 OFFCURVE",
"426 543 CURVE SMOOTH",
"412 543 LINE SMOOTH",
"357 543 OFFCURVE",
"293 537 OFFCURVE",
"232 525 CURVE SMOOTH",
"211 522 OFFCURVE",
"213 494 OFFCURVE",
"242 500 CURVE SMOOTH",
"300 511 OFFCURVE",
"361 517 OFFCURVE",
"412 517 CURVE SMOOTH",
"427 517 LINE SMOOTH",
"522 517 OFFCURVE",
"656 489 OFFCURVE",
"656 396 CURVE SMOOTH",
"656 382 OFFCURVE",
"653 367 OFFCURVE",
"645 352 CURVE SMOOTH",
"596 244 OFFCURVE",
"415 215 OFFCURVE",
"285 215 CURVE SMOOTH",
"266 215 OFFCURVE",
"247 215 OFFCURVE",
"228 216 CURVE SMOOTH",
"225 216 OFFCURVE",
"221 216 OFFCURVE",
"218 217 CURVE",
"214 217 OFFCURVE",
"210 218 OFFCURVE",
"206 218 CURVE SMOOTH",
"195 218 OFFCURVE",
"187 213 OFFCURVE",
"187 204 CURVE SMOOTH",
"187 196 OFFCURVE",
"194 191 OFFCURVE",
"202 191 CURVE",
"222 188 OFFCURVE",
"246 188 OFFCURVE",
"268 188 CURVE SMOOTH",
"272 188 OFFCURVE",
"276 188 OFFCURVE",
"280 188 CURVE SMOOTH",
"422 188 OFFCURVE",
"622 222 OFFCURVE",
"678 343 CURVE SMOOTH",
"686 359 OFFCURVE",
"690 378 OFFCURVE",
"690 397 CURVE SMOOTH"
);
},
{
closed = 1;
nodes = (
"596 689 OFFCURVE",
"587 696 OFFCURVE",
"578 696 CURVE SMOOTH",
"570 696 OFFCURVE",
"563 693 OFFCURVE",
"556 685 CURVE SMOOTH",
"542 672 OFFCURVE",
"533 662 OFFCURVE",
"481 612 CURVE SMOOTH",
"336 475 OFFCURVE",
"204 318 OFFCURVE",
"123 135 CURVE SMOOTH",
"91 65 OFFCURVE",
"74 22 OFFCURVE",
"74 -29 CURVE SMOOTH",
"74 -69 OFFCURVE",
"91 -106 OFFCURVE",
"133 -106 CURVE SMOOTH",
"144 -106 OFFCURVE",
"152 -97 OFFCURVE",
"152 -89 CURVE SMOOTH",
"152 -77 OFFCURVE",
"110 -80 OFFCURVE",
"110 -19 CURVE SMOOTH",
"110 10 OFFCURVE",
"136 74 OFFCURVE",
"155 118 CURVE SMOOTH",
"233 295 OFFCURVE",
"359 450 OFFCURVE",
"494 581 CURVE SMOOTH",
"548 633 OFFCURVE",
"592 667 OFFCURVE",
"595 676 CURVE SMOOTH",
"596 678 OFFCURVE",
"596 680 OFFCURVE",
"596 684 CURVE SMOOTH"
);
}
);
};
layerId = "6A041D6C-A676-4DB4-A570-80A8F8AA896B";
paths = (
{
closed = 1;
nodes = (
"144 -106 OFFCURVE",
"152 -97 OFFCURVE",
"152 -89 CURVE SMOOTH",
"152 -77 OFFCURVE",
"110 -80 OFFCURVE",
"110 -19 CURVE SMOOTH",
"110 10 OFFCURVE",
"136 74 OFFCURVE",
"155 118 CURVE SMOOTH",
"233 295 OFFCURVE",
"359 450 OFFCURVE",
"494 581 CURVE SMOOTH",
"548 633 OFFCURVE",
"592 667 OFFCURVE",
"595 676 CURVE SMOOTH",
"596 678 OFFCURVE",
"596 680 OFFCURVE",
"596 684 CURVE SMOOTH",
"596 689 OFFCURVE",
"587 696 OFFCURVE",
"578 696 CURVE SMOOTH",
"570 696 OFFCURVE",
"563 693 OFFCURVE",
"556 685 CURVE SMOOTH",
"542 672 OFFCURVE",
"533 662 OFFCURVE",
"481 612 CURVE SMOOTH",
"336 475 OFFCURVE",
"204 318 OFFCURVE",
"123 135 CURVE SMOOTH",
"91 65 OFFCURVE",
"74 22 OFFCURVE",
"74 -29 CURVE SMOOTH",
"74 -69 OFFCURVE",
"91 -106 OFFCURVE",
"133 -106 CURVE SMOOTH"
);
},
{
closed = 1;
nodes = (
"280 188 LINE SMOOTH",
"422 188 OFFCURVE",
"622 222 OFFCURVE",
"678 343 CURVE SMOOTH",
"686 359 OFFCURVE",
"690 378 OFFCURVE",
"690 397 CURVE SMOOTH",
"690 507 OFFCURVE",
"539 543 OFFCURVE",
"426 543 CURVE SMOOTH",
"412 543 LINE SMOOTH",
"357 543 OFFCURVE",
"293 537 OFFCURVE",
"232 525 CURVE SMOOTH",
"223 524 OFFCURVE",
"218 517 OFFCURVE",
"218 511 CURVE SMOOTH",
"218 505 OFFCURVE",
"223 499 OFFCURVE",
"234 499 CURVE SMOOTH",
"237 499 OFFCURVE",
"239 499 OFFCURVE",
"242 500 CURVE SMOOTH",
"300 511 OFFCURVE",
"361 517 OFFCURVE",
"412 517 CURVE SMOOTH",
"427 517 LINE SMOOTH",
"522 517 OFFCURVE",
"656 489 OFFCURVE",
"656 396 CURVE SMOOTH",
"656 382 OFFCURVE",
"653 367 OFFCURVE",
"645 352 CURVE SMOOTH",
"596 244 OFFCURVE",
"415 215 OFFCURVE",
"285 215 CURVE SMOOTH",
"266 215 OFFCURVE",
"247 215 OFFCURVE",
"228 216 CURVE SMOOTH",
"225 216 OFFCURVE",
"221 216 OFFCURVE",
"218 217 CURVE",
"214 217 OFFCURVE",
"210 218 OFFCURVE",
"206 218 CURVE SMOOTH",
"195 218 OFFCURVE",
"187 213 OFFCURVE",
"187 204 CURVE SMOOTH",
"187 196 OFFCURVE",
"194 191 OFFCURVE",
"202 191 CURVE",
"222 188 OFFCURVE",
"246 188 OFFCURVE",
"268 188 CURVE SMOOTH"
);
}
);
width = 686;
}
);
note = Thorn;
unicode = 00DE;
},
{
glyphname = Q;
lastChange = "2022-02-07 22:19:05 +0000";
layers = (
{
background = {
paths = (
{
closed = 1;
nodes = (
"871 507 OFFCURVE",
"800 605 OFFCURVE",
"669 643 CURVE",
"670 647 LINE",
"675 647 OFFCURVE",
"680 648 OFFCURVE",
"684 648 CURVE SMOOTH",
"711 648 OFFCURVE",
"752 649 OFFCURVE",
"766 626 CURVE SMOOTH",
"770 619 OFFCURVE",
"772 615 OFFCURVE",
"782 615 CURVE SMOOTH",
"791 615 OFFCURVE",
"799 620 OFFCURVE",
"799 628 CURVE SMOOTH",
"799 664 OFFCURVE",
"717 676 OFFCURVE",
"688 676 CURVE SMOOTH",
"648 676 OFFCURVE",
"607 670 OFFCURVE",
"569 661 CURVE",
"549 663 OFFCURVE",
"529 663 OFFCURVE",
"509 663 CURVE SMOOTH",
"386 663 OFFCURVE",
"227 634 OFFCURVE",
"124 572 CURVE SMOOTH",
"66 537 OFFCURVE",
"37 491 OFFCURVE",
"37 429 CURVE SMOOTH",
"37 421 OFFCURVE",
"44 415 OFFCURVE",
"53 415 CURVE SMOOTH",
"63 415 OFFCURVE",
"70 421 OFFCURVE",
"70 429 CURVE SMOOTH",
"70 482 OFFCURVE",
"94 520 OFFCURVE",
"144 550 CURVE SMOOTH",
"230 603 OFFCURVE",
"366 631 OFFCURVE",
"470 635 CURVE",
"471 631 LINE",
"312 570 OFFCURVE",
"194 457 OFFCURVE",
"126 319 CURVE SMOOTH",
"100 266 OFFCURVE",
"84 208 OFFCURVE",
"84 150 CURVE SMOOTH",
"84 53 OFFCURVE",
"138 -61 OFFCURVE",
"262 -76 CURVE SMOOTH",
"283 -78 OFFCURVE",
"304 -80 OFFCURVE",
"325 -80 CURVE SMOOTH",
"602 -80 OFFCURVE",
"871 147 OFFCURVE",
"871 389 CURVE SMOOTH"
);
},
{
closed = 1;
nodes = (
"765 -178 OFFCURVE",
"758 -172 OFFCURVE",
"748 -172 CURVE SMOOTH",
"739 -172 OFFCURVE",
"731 -178 OFFCURVE",
"731 -186 CURVE SMOOTH",
"731 -191 OFFCURVE",
"726 -200 OFFCURVE",
"723 -204 CURVE SMOOTH",
"701 -232 OFFCURVE",
"661 -242 OFFCURVE",
"624 -242 CURVE SMOOTH",
"455 -242 OFFCURVE",
"265 -86 OFFCURVE",
"100 -86 CURVE SMOOTH",
"94 -86 OFFCURVE",
"88 -86 OFFCURVE",
"82 -87 CURVE SMOOTH",
"44 -91 OFFCURVE",
"3 -125 OFFCURVE",
"3 -159 CURVE SMOOTH",
"3 -195 OFFCURVE",
"43 -221 OFFCURVE",
"76 -236 CURVE SMOOTH",
"78 -237 OFFCURVE",
"81 -238 OFFCURVE",
"84 -238 CURVE SMOOTH",
"93 -238 OFFCURVE",
"100 -231 OFFCURVE",
"100 -223 CURVE SMOOTH",
"100 -207 OFFCURVE",
"41 -197 OFFCURVE",
"41 -158 CURVE SMOOTH",
"41 -128 OFFCURVE",
"73 -114 OFFCURVE",
"103 -114 CURVE SMOOTH",
"263 -114 OFFCURVE",
"448 -272 OFFCURVE",
"625 -272 CURVE SMOOTH",
"677 -272 OFFCURVE",
"727 -256 OFFCURVE",
"753 -215 CURVE SMOOTH",
"758 -208 OFFCURVE",
"765 -194 OFFCURVE",
"765 -186 CURVE SMOOTH"
);
},
{
closed = 1;
nodes = (
"840 163 OFFCURVE",
"582 -51 OFFCURVE",
"324 -51 CURVE SMOOTH",
"305 -51 OFFCURVE",
"285 -51 OFFCURVE",
"266 -48 CURVE SMOOTH",
"158 -34 OFFCURVE",
"117 64 OFFCURVE",
"117 147 CURVE SMOOTH",
"117 203 OFFCURVE",
"133 257 OFFCURVE",
"158 308 CURVE SMOOTH",
"234 467 OFFCURVE",
"380 589 OFFCURVE",
"574 632 CURVE",
"731 618 OFFCURVE",
"840 531 OFFCURVE",
"840 389 CURVE SMOOTH"
);
}
);
};
layerId = "6A041D6C-A676-4DB4-A570-80A8F8AA896B";
paths = (
{
closed = 1;
nodes = (
"602 -80 OFFCURVE",
"871 147 OFFCURVE",
"871 389 CURVE SMOOTH",
"871 507 OFFCURVE",
"800 605 OFFCURVE",
"669 643 CURVE",
"670 647 LINE",
"675 647 OFFCURVE",
"680 648 OFFCURVE",
"684 648 CURVE SMOOTH",
"711 648 OFFCURVE",
"752 649 OFFCURVE",
"766 626 CURVE SMOOTH",
"770 619 OFFCURVE",
"772 615 OFFCURVE",
"782 615 CURVE SMOOTH",
"791 615 OFFCURVE",
"799 620 OFFCURVE",
"799 628 CURVE SMOOTH",
"799 664 OFFCURVE",
"717 676 OFFCURVE",
"688 676 CURVE SMOOTH",
"648 676 OFFCURVE",
"607 670 OFFCURVE",
"569 661 CURVE",
"549 663 OFFCURVE",
"529 663 OFFCURVE",
"509 663 CURVE SMOOTH",
"386 663 OFFCURVE",
"227 634 OFFCURVE",
"124 572 CURVE SMOOTH",
"66 537 OFFCURVE",
"37 491 OFFCURVE",
"37 429 CURVE SMOOTH",
"37 421 OFFCURVE",
"44 415 OFFCURVE",
"53 415 CURVE SMOOTH",
"63 415 OFFCURVE",
"70 421 OFFCURVE",
"70 429 CURVE SMOOTH",
"70 482 OFFCURVE",
"94 520 OFFCURVE",
"144 550 CURVE SMOOTH",
"230 603 OFFCURVE",
"366 631 OFFCURVE",
"470 635 CURVE",
"471 631 LINE",
"312 570 OFFCURVE",
"194 457 OFFCURVE",
"126 319 CURVE SMOOTH",
"100 266 OFFCURVE",
"84 208 OFFCURVE",
"84 150 CURVE SMOOTH",
"84 53 OFFCURVE",
"138 -61 OFFCURVE",
"262 -76 CURVE SMOOTH",
"283 -78 OFFCURVE",
"304 -80 OFFCURVE",
"325 -80 CURVE SMOOTH"
);
},
{
closed = 1;
nodes = (
"677 -272 OFFCURVE",
"727 -256 OFFCURVE",
"753 -215 CURVE SMOOTH",
"758 -208 OFFCURVE",
"765 -194 OFFCURVE",
"765 -186 CURVE SMOOTH",
"765 -178 OFFCURVE",
"758 -172 OFFCURVE",
"748 -172 CURVE SMOOTH",
"739 -172 OFFCURVE",
"731 -178 OFFCURVE",
"731 -186 CURVE SMOOTH",
"731 -191 OFFCURVE",
"726 -200 OFFCURVE",
"723 -204 CURVE SMOOTH",
"701 -232 OFFCURVE",
"661 -242 OFFCURVE",
"624 -242 CURVE SMOOTH",
"455 -242 OFFCURVE",
"265 -86 OFFCURVE",
"100 -86 CURVE SMOOTH",
"94 -86 OFFCURVE",
"88 -86 OFFCURVE",
"82 -87 CURVE SMOOTH",
"44 -91 OFFCURVE",
"3 -125 OFFCURVE",
"3 -159 CURVE SMOOTH",
"3 -195 OFFCURVE",
"43 -221 OFFCURVE",
"76 -236 CURVE SMOOTH",
"78 -237 OFFCURVE",
"81 -238 OFFCURVE",
"84 -238 CURVE SMOOTH",
"93 -238 OFFCURVE",
"100 -231 OFFCURVE",
"100 -223 CURVE SMOOTH",
"100 -207 OFFCURVE",
"41 -197 OFFCURVE",
"41 -158 CURVE SMOOTH",
"41 -128 OFFCURVE",
"73 -114 OFFCURVE",
"103 -114 CURVE SMOOTH",
"263 -114 OFFCURVE",
"448 -272 OFFCURVE",
"625 -272 CURVE SMOOTH"
);
},
{
closed = 1;
nodes = (
"305 -51 OFFCURVE",
"285 -51 OFFCURVE",
"266 -48 CURVE SMOOTH",
"158 -34 OFFCURVE",
"117 64 OFFCURVE",
"117 147 CURVE SMOOTH",
"117 203 OFFCURVE",
"133 257 OFFCURVE",
"158 308 CURVE SMOOTH",
"234 467 OFFCURVE",
"380 589 OFFCURVE",
"574 632 CURVE",
"731 618 OFFCURVE",
"840 531 OFFCURVE",
"840 389 CURVE SMOOTH",
"840 163 OFFCURVE",
"582 -51 OFFCURVE",
"324 -51 CURVE SMOOTH"
);
}
);
width = 816;
}
);
note = Q;
unicode = 0051;
},
{
glyphname = R;
lastChange = "2022-02-07 22:19:05 +0000";
layers = (
{
background = {
paths = (
{
closed = 1;
nodes = (
"865 625 OFFCURVE",
"679 674 OFFCURVE",
"537 674 CURVE SMOOTH",
"531 674 OFFCURVE",
"526 674 OFFCURVE",
"520 674 CURVE SMOOTH",
"357 669 OFFCURVE",
"135 642 OFFCURVE",
"37 512 CURVE SMOOTH",
"16 484 OFFCURVE",
"0 449 OFFCURVE",
"0 415 CURVE SMOOTH",
"0 404 OFFCURVE",
"1 378 OFFCURVE",
"21 378 CURVE SMOOTH",
"30 378 OFFCURVE",
"38 384 OFFCURVE",
"38 392 CURVE SMOOTH",
"38 401 OFFCURVE",
"33 410 OFFCURVE",
"33 420 CURVE SMOOTH",
"33 451 OFFCURVE",
"48 481 OFFCURVE",
"69 505 CURVE SMOOTH",
"163 617 OFFCURVE",
"373 641 OFFCURVE",
"520 646 CURVE SMOOTH",
"526 646 OFFCURVE",
"532 646 OFFCURVE",
"538 646 CURVE SMOOTH",
"660 646 OFFCURVE",
"832 606 OFFCURVE",
"832 475 CURVE SMOOTH",
"832 454 OFFCURVE",
"827 432 OFFCURVE",
"819 412 CURVE SMOOTH",
"754 261 OFFCURVE",
"528 220 OFFCURVE",
"363 220 CURVE SMOOTH",
"353 220 OFFCURVE",
"343 220 OFFCURVE",
"333 220 CURVE",
"306 249 OFFCURVE",
"279 278 OFFCURVE",
"250 305 CURVE",
"281 355 OFFCURVE",
"315 405 OFFCURVE",
"352 452 CURVE SMOOTH",
"369 473 OFFCURVE",
"387 493 OFFCURVE",
"404 514 CURVE SMOOTH",
"409 521 OFFCURVE",
"416 529 OFFCURVE",
"416 538 CURVE SMOOTH",
"416 544 OFFCURVE",
"413 548 OFFCURVE",
"407 548 CURVE SMOOTH",
"395 548 OFFCURVE",
"385 538 OFFCURVE",
"378 531 CURVE SMOOTH",
"324 474 OFFCURVE",
"265 393 OFFCURVE",
"223 328 CURVE",
"206 337 OFFCURVE",
"185 344 OFFCURVE",
"165 344 CURVE SMOOTH",
"136 344 OFFCURVE",
"121 328 OFFCURVE",
"121 303 CURVE SMOOTH",
"121 270 OFFCURVE",
"140 250 OFFCURVE",
"168 230 CURVE",
"145 187 OFFCURVE",
"93 71 OFFCURVE",
"93 25 CURVE SMOOTH",
"93 3 OFFCURVE",
"109 -62 OFFCURVE",
"145 -62 CURVE SMOOTH",
"155 -62 OFFCURVE",
"162 -54 OFFCURVE",
"162 -46 CURVE SMOOTH",
"162 -28 OFFCURVE",
"125 -38 OFFCURVE",
"125 19 CURVE SMOOTH",
"125 62 OFFCURVE",
"176 171 OFFCURVE",
"198 213 CURVE",
"247 193 OFFCURVE",
"265 194 OFFCURVE",
"317 191 CURVE",
"336 170 OFFCURVE",
"356 149 OFFCURVE",
"375 128 CURVE SMOOTH",
"409 89 OFFCURVE",
"497 -8 OFFCURVE",
"547 -30 CURVE SMOOTH",
"563 -37 OFFCURVE",
"579 -41 OFFCURVE",
"596 -41 CURVE SMOOTH",
"613 -41 OFFCURVE",
"673 -26 OFFCURVE",
"673 -7 CURVE SMOOTH",
"673 1 OFFCURVE",
"666 8 OFFCURVE",
"657 8 CURVE SMOOTH",
"643 8 OFFCURVE",
"627 -12 OFFCURVE",
"597 -12 CURVE SMOOTH",
"535 -12 OFFCURVE",
"434 106 OFFCURVE",
"401 144 CURVE SMOOTH",
"388 160 OFFCURVE",
"373 175 OFFCURVE",
"359 190 CURVE",
"539 192 OFFCURVE",
"779 239 OFFCURVE",
"850 403 CURVE SMOOTH",
"860 426 OFFCURVE",
"865 451 OFFCURVE",
"865 475 CURVE SMOOTH"
);
},
{
closed = 1;
nodes = (
"261 224 OFFCURVE",
"240 224 OFFCURVE",
"212 238 CURVE",
"220 253 OFFCURVE",
"228 269 OFFCURVE",
"237 284 CURVE",
"255 263 OFFCURVE",
"273 242 OFFCURVE",
"292 222 CURVE"
);
},
{
closed = 1;
nodes = (
"202 292 OFFCURVE",
"194 274 OFFCURVE",
"184 256 CURVE",
"171 269 OFFCURVE",
"154 286 OFFCURVE",
"154 305 CURVE SMOOTH",
"154 317 OFFCURVE",
"163 323 OFFCURVE",
"176 323 CURVE SMOOTH",
"189 323 OFFCURVE",
"203 317 OFFCURVE",
"213 309 CURVE"
);
}
);
};
layerId = "6A041D6C-A676-4DB4-A570-80A8F8AA896B";
paths = (
{
closed = 1;
nodes = (
"155 -62 OFFCURVE",
"162 -54 OFFCURVE",
"162 -46 CURVE SMOOTH",
"162 -28 OFFCURVE",
"125 -38 OFFCURVE",
"125 19 CURVE SMOOTH",
"125 62 OFFCURVE",
"176 171 OFFCURVE",
"198 213 CURVE",
"247 193 OFFCURVE",
"265 194 OFFCURVE",
"317 191 CURVE",
"375 128 LINE SMOOTH",
"409 89 OFFCURVE",
"497 -8 OFFCURVE",
"547 -30 CURVE SMOOTH",
"563 -37 OFFCURVE",
"579 -41 OFFCURVE",
"596 -41 CURVE SMOOTH",
"613 -41 OFFCURVE",
"673 -26 OFFCURVE",
"673 -7 CURVE SMOOTH",
"673 1 OFFCURVE",
"666 8 OFFCURVE",
"657 8 CURVE SMOOTH",
"643 8 OFFCURVE",
"627 -12 OFFCURVE",
"597 -12 CURVE SMOOTH",
"535 -12 OFFCURVE",
"434 106 OFFCURVE",
"401 144 CURVE SMOOTH",
"388 160 OFFCURVE",
"373 175 OFFCURVE",
"359 190 CURVE",
"539 192 OFFCURVE",
"779 239 OFFCURVE",
"850 403 CURVE SMOOTH",
"860 426 OFFCURVE",
"865 451 OFFCURVE",
"865 475 CURVE SMOOTH",
"865 625 OFFCURVE",
"679 674 OFFCURVE",
"537 674 CURVE SMOOTH",
"520 674 LINE SMOOTH",
"357 669 OFFCURVE",
"135 642 OFFCURVE",
"37 512 CURVE SMOOTH",
"16 484 OFFCURVE",
"0 449 OFFCURVE",
"0 415 CURVE SMOOTH",
"0 404 OFFCURVE",
"1 378 OFFCURVE",
"21 378 CURVE SMOOTH",
"30 378 OFFCURVE",
"38 384 OFFCURVE",
"38 392 CURVE SMOOTH",
"38 401 OFFCURVE",
"33 410 OFFCURVE",
"33 420 CURVE SMOOTH",
"33 451 OFFCURVE",
"48 481 OFFCURVE",
"69 505 CURVE SMOOTH",
"163 617 OFFCURVE",
"373 641 OFFCURVE",
"520 646 CURVE SMOOTH",
"538 646 LINE SMOOTH",
"660 646 OFFCURVE",
"832 606 OFFCURVE",
"832 475 CURVE SMOOTH",
"832 454 OFFCURVE",
"827 432 OFFCURVE",
"819 412 CURVE SMOOTH",
"754 261 OFFCURVE",
"528 220 OFFCURVE",
"363 220 CURVE SMOOTH",
"333 220 LINE",
"306 249 OFFCURVE",
"279 278 OFFCURVE",
"250 305 CURVE",
"281 355 OFFCURVE",
"315 405 OFFCURVE",
"352 452 CURVE SMOOTH",
"369 473 OFFCURVE",
"387 493 OFFCURVE",
"404 514 CURVE SMOOTH",
"409 521 OFFCURVE",
"416 529 OFFCURVE",
"416 538 CURVE SMOOTH",
"416 544 OFFCURVE",
"413 548 OFFCURVE",
"407 548 CURVE SMOOTH",
"395 548 OFFCURVE",
"385 538 OFFCURVE",
"378 531 CURVE SMOOTH",
"324 474 OFFCURVE",
"265 393 OFFCURVE",
"223 328 CURVE",
"206 337 OFFCURVE",
"185 344 OFFCURVE",
"165 344 CURVE SMOOTH",
"136 344 OFFCURVE",
"121 328 OFFCURVE",
"121 303 CURVE SMOOTH",
"121 270 OFFCURVE",
"140 250 OFFCURVE",
"168 230 CURVE",
"145 187 OFFCURVE",
"93 71 OFFCURVE",
"93 25 CURVE SMOOTH",
"93 3 OFFCURVE",
"109 -62 OFFCURVE",
"145 -62 CURVE SMOOTH"
);
},
{
closed = 1;
nodes = (
"171 269 OFFCURVE",
"154 286 OFFCURVE",
"154 305 CURVE SMOOTH",
"154 317 OFFCURVE",
"163 323 OFFCURVE",
"176 323 CURVE SMOOTH",
"189 323 OFFCURVE",
"203 317 OFFCURVE",
"213 309 CURVE",
"202 292 OFFCURVE",
"194 274 OFFCURVE",
"184 256 CURVE"
);
},
{
closed = 1;
nodes = (
"261 224 OFFCURVE",
"240 224 OFFCURVE",
"212 238 CURVE",
"220 253 OFFCURVE",
"228 269 OFFCURVE",
"237 284 CURVE",
"255 263 OFFCURVE",
"273 242 OFFCURVE",
"292 222 CURVE"
);
}
);
width = 766;
}
);
note = R;
unicode = 0052;
},
{
glyphname = S;
lastChange = "2022-02-07 22:19:05 +0000";
layers = (
{
background = {
paths = (
{
closed = 1;
nodes = (
"677 607 OFFCURVE",
"561 615 OFFCURVE",
"500 615 CURVE SMOOTH",
"367 615 OFFCURVE",
"110 557 OFFCURVE",
"110 413 CURVE SMOOTH",
"110 346 OFFCURVE",
"190 338 OFFCURVE",
"251 338 CURVE SMOOTH",
"321 338 OFFCURVE",
"391 347 OFFCURVE",
"461 347 CURVE SMOOTH",
"525 347 OFFCURVE",
"614 343 OFFCURVE",
"614 269 CURVE SMOOTH",
"614 257 OFFCURVE",
"611 245 OFFCURVE",
"607 234 CURVE SMOOTH",
"553 82 OFFCURVE",
"255 -39 OFFCURVE",
"82 -39 CURVE SMOOTH",
"8 -39 OFFCURVE",
"-59 -16 OFFCURVE",
"-59 58 CURVE SMOOTH",
"-59 124 OFFCURVE",
"0 184 OFFCURVE",
"69 206 CURVE SMOOTH",
"91 213 OFFCURVE",
"113 213 OFFCURVE",
"135 218 CURVE SMOOTH",
"143 220 OFFCURVE",
"148 224 OFFCURVE",
"148 232 CURVE SMOOTH",
"148 240 OFFCURVE",
"142 247 OFFCURVE",
"132 247 CURVE SMOOTH",
"110 247 OFFCURVE",
"80 239 OFFCURVE",
"59 233 CURVE SMOOTH",
"-24 207 OFFCURVE",
"-90 134 OFFCURVE",
"-90 57 CURVE SMOOTH",
"-90 -35 OFFCURVE",
"-13 -65 OFFCURVE",
"81 -65 CURVE SMOOTH",
"273 -65 OFFCURVE",
"579 58 OFFCURVE",
"639 227 CURVE SMOOTH",
"645 242 OFFCURVE",
"648 257 OFFCURVE",
"648 272 CURVE SMOOTH",
"648 363 OFFCURVE",
"545 375 OFFCURVE",
"463 375 CURVE SMOOTH",
"393 375 OFFCURVE",
"324 367 OFFCURVE",
"254 367 CURVE SMOOTH",
"213 367 OFFCURVE",
"144 367 OFFCURVE",
"144 416 CURVE SMOOTH",
"144 421 OFFCURVE",
"145 426 OFFCURVE",
"146 431 CURVE SMOOTH",
"171 543 OFFCURVE",
"390 586 OFFCURVE",
"500 586 CURVE SMOOTH",
"539 586 OFFCURVE",
"644 582 OFFCURVE",
"644 534 CURVE SMOOTH",
"644 504 OFFCURVE",
"609 507 OFFCURVE",
"609 490 CURVE SMOOTH",
"609 482 OFFCURVE",
"618 475 OFFCURVE",
"626 475 CURVE SMOOTH",
"631 475 OFFCURVE",
"634 477 OFFCURVE",
"637 479 CURVE SMOOTH",
"661 496 OFFCURVE",
"677 504 OFFCURVE",
"677 534 CURVE SMOOTH"
);
}
);
};
layerId = "6A041D6C-A676-4DB4-A570-80A8F8AA896B";
paths = (
{
closed = 1;
nodes = (
"273 -65 OFFCURVE",
"579 58 OFFCURVE",
"639 227 CURVE SMOOTH",
"645 242 OFFCURVE",
"648 257 OFFCURVE",
"648 272 CURVE SMOOTH",
"648 363 OFFCURVE",
"545 375 OFFCURVE",
"463 375 CURVE SMOOTH",
"393 375 OFFCURVE",
"324 367 OFFCURVE",
"254 367 CURVE SMOOTH",
"213 367 OFFCURVE",
"144 367 OFFCURVE",
"144 416 CURVE SMOOTH",
"144 421 OFFCURVE",
"145 426 OFFCURVE",
"146 431 CURVE SMOOTH",
"171 543 OFFCURVE",
"390 586 OFFCURVE",
"500 586 CURVE SMOOTH",
"539 586 OFFCURVE",
"644 582 OFFCURVE",
"644 534 CURVE SMOOTH",
"644 504 OFFCURVE",
"609 507 OFFCURVE",
"609 490 CURVE SMOOTH",
"609 482 OFFCURVE",
"618 475 OFFCURVE",
"626 475 CURVE SMOOTH",
"631 475 OFFCURVE",
"634 477 OFFCURVE",
"637 479 CURVE SMOOTH",
"661 496 OFFCURVE",
"677 504 OFFCURVE",
"677 534 CURVE SMOOTH",
"677 607 OFFCURVE",
"561 615 OFFCURVE",
"500 615 CURVE SMOOTH",
"367 615 OFFCURVE",
"110 557 OFFCURVE",
"110 413 CURVE SMOOTH",
"110 346 OFFCURVE",
"190 338 OFFCURVE",
"251 338 CURVE SMOOTH",
"321 338 OFFCURVE",
"391 347 OFFCURVE",
"461 347 CURVE SMOOTH",
"525 347 OFFCURVE",
"614 343 OFFCURVE",
"614 269 CURVE SMOOTH",
"614 257 OFFCURVE",
"611 245 OFFCURVE",
"607 234 CURVE SMOOTH",
"553 82 OFFCURVE",
"255 -39 OFFCURVE",
"82 -39 CURVE SMOOTH",
"8 -39 OFFCURVE",
"-59 -16 OFFCURVE",
"-59 58 CURVE SMOOTH",
"-59 124 OFFCURVE",
"0 184 OFFCURVE",
"69 206 CURVE SMOOTH",
"91 213 OFFCURVE",
"113 213 OFFCURVE",
"135 218 CURVE SMOOTH",
"143 220 OFFCURVE",
"148 224 OFFCURVE",
"148 232 CURVE SMOOTH",
"148 240 OFFCURVE",
"142 247 OFFCURVE",
"132 247 CURVE SMOOTH",
"110 247 OFFCURVE",
"80 239 OFFCURVE",
"59 233 CURVE SMOOTH",
"-24 207 OFFCURVE",
"-90 134 OFFCURVE",
"-90 57 CURVE SMOOTH",
"-90 -35 OFFCURVE",
"-13 -65 OFFCURVE",
"81 -65 CURVE SMOOTH"
);
}
);
width = 612;
}
);
note = S;
unicode = 0053;
},
{
glyphname = Germandbls;
lastChange = "2022-02-07 22:19:06 +0000";
layers = (
{
background = {
paths = (
{
closed = 1;
nodes = (
"383 623 OFFCURVE",
"318 564 OFFCURVE",
"274 505 CURVE SMOOTH",
"206 414 OFFCURVE",
"156 292 OFFCURVE",
"127 214 CURVE SMOOTH",
"101 141 OFFCURVE",
"45 -3 OFFCURVE",
"1 -71 CURVE SMOOTH",
"-35 -126 OFFCURVE",
"-7 -145 OFFCURVE",
"32 -85 CURVE SMOOTH",
"78 -14 OFFCURVE",
"133 133 OFFCURVE",
"163 213 CURVE SMOOTH",
"193 294 OFFCURVE",
"237 403 OFFCURVE",
"296 485 CURVE SMOOTH",
"334 537 OFFCURVE",
"394 592 OFFCURVE",
"459 592 CURVE SMOOTH",
"540 592 OFFCURVE",
"567 530 OFFCURVE",
"494 391 CURVE",
"407 387 OFFCURVE",
"263 349 OFFCURVE",
"263 263 CURVE SMOOTH",
"263 221 OFFCURVE",
"314 216 OFFCURVE",
"352 216 CURVE SMOOTH",
"411 216 OFFCURVE",
"571 228 OFFCURVE",
"571 170 CURVE SMOOTH",
"571 74 OFFCURVE",
"368 -11 OFFCURVE",
"254 -11 CURVE SMOOTH",
"210 -11 OFFCURVE",
"170 -3 OFFCURVE",
"170 42 CURVE SMOOTH",
"170 109 OFFCURVE",
"245 126 OFFCURVE",
"279 139 CURVE SMOOTH",
"284 141 OFFCURVE",
"287 143 OFFCURVE",
"287 148 CURVE SMOOTH",
"287 153 OFFCURVE",
"283 158 OFFCURVE",
"277 158 CURVE SMOOTH",
"263 158 OFFCURVE",
"244 153 OFFCURVE",
"230 149 CURVE SMOOTH",
"178 133 OFFCURVE",
"136 86 OFFCURVE",
"136 37 CURVE SMOOTH",
"136 -21 OFFCURVE",
"185 -40 OFFCURVE",
"244 -40 CURVE SMOOTH",
"390 -40 OFFCURVE",
"604 46 OFFCURVE",
"604 174 CURVE SMOOTH",
"604 252 OFFCURVE",
"497 244 OFFCURVE",
"357 244 CURVE SMOOTH",
"331 244 OFFCURVE",
"299 244 OFFCURVE",
"299 271 CURVE SMOOTH",
"299 337 OFFCURVE",
"434 367 OFFCURVE",
"508 367 CURVE SMOOTH",
"524 368 OFFCURVE",
"529 387 OFFCURVE",
"523 389 CURVE",
"584 490 OFFCURVE",
"602 623 OFFCURVE",
"461 623 CURVE SMOOTH"
);
}
);
};
layerId = "6A041D6C-A676-4DB4-A570-80A8F8AA896B";
paths = (
{
closed = 1;
nodes = (
"0 -122 OFFCURVE",
"15 -111 OFFCURVE",
"32 -85 CURVE SMOOTH",
"78 -14 OFFCURVE",
"133 133 OFFCURVE",
"163 213 CURVE SMOOTH",
"193 294 OFFCURVE",
"237 403 OFFCURVE",
"296 485 CURVE SMOOTH",
"334 537 OFFCURVE",
"394 592 OFFCURVE",
"459 592 CURVE SMOOTH",
"507 592 OFFCURVE",
"537 570 OFFCURVE",
"537 522 CURVE SMOOTH",
"537 490 OFFCURVE",
"523 447 OFFCURVE",
"494 391 CURVE",
"407 387 OFFCURVE",
"263 349 OFFCURVE",
"263 263 CURVE SMOOTH",
"263 221 OFFCURVE",
"314 216 OFFCURVE",
"352 216 CURVE SMOOTH",
"369 216 OFFCURVE",
"395 217 OFFCURVE",
"423 217 CURVE SMOOTH",
"491 217 OFFCURVE",
"571 211 OFFCURVE",
"571 170 CURVE SMOOTH",
"571 74 OFFCURVE",
"368 -11 OFFCURVE",
"254 -11 CURVE SMOOTH",
"210 -11 OFFCURVE",
"170 -3 OFFCURVE",
"170 42 CURVE SMOOTH",
"170 109 OFFCURVE",
"245 126 OFFCURVE",
"279 139 CURVE SMOOTH",
"284 141 OFFCURVE",
"287 143 OFFCURVE",
"287 148 CURVE SMOOTH",
"287 153 OFFCURVE",
"283 158 OFFCURVE",
"277 158 CURVE SMOOTH",
"263 158 OFFCURVE",
"244 153 OFFCURVE",
"230 149 CURVE SMOOTH",
"178 133 OFFCURVE",
"136 86 OFFCURVE",
"136 37 CURVE SMOOTH",
"136 -21 OFFCURVE",
"185 -40 OFFCURVE",
"244 -40 CURVE SMOOTH",
"390 -40 OFFCURVE",
"604 46 OFFCURVE",
"604 174 CURVE SMOOTH",
"604 239 OFFCURVE",
"530 244 OFFCURVE",
"425 244 CURVE SMOOTH",
"357 244 LINE SMOOTH",
"331 244 OFFCURVE",
"299 244 OFFCURVE",
"299 271 CURVE SMOOTH",
"299 337 OFFCURVE",
"434 367 OFFCURVE",
"508 367 CURVE SMOOTH",
"520 368 OFFCURVE",
"525 378 OFFCURVE",
"525 384 CURVE SMOOTH",
"525 387 OFFCURVE",
"525 388 OFFCURVE",
"523 389 CURVE",
"550 434 OFFCURVE",
"569 485 OFFCURVE",
"569 528 CURVE SMOOTH",
"569 582 OFFCURVE",
"539 623 OFFCURVE",
"461 623 CURVE SMOOTH",
"383 623 OFFCURVE",
"318 564 OFFCURVE",
"274 505 CURVE SMOOTH",
"206 414 OFFCURVE",
"156 292 OFFCURVE",
"127 214 CURVE SMOOTH",
"101 141 OFFCURVE",
"45 -3 OFFCURVE",
"1 -71 CURVE SMOOTH",
"-11 -88 OFFCURVE",
"-16 -102 OFFCURVE",
"-16 -111 CURVE SMOOTH",
"-16 -118 OFFCURVE",
"-13 -122 OFFCURVE",
"-8 -122 CURVE SMOOTH"
);
}
);
width = 624;
}
);
unicode = 1E9E;
},
{
glyphname = Schwa;
lastChange = "2022-02-07 22:19:05 +0000";
layers = (
{
background = {
paths = (
{
closed = 1;
nodes = (
"47 -48 OFFCURVE",
"134 -78 OFFCURVE",
"205 -78 CURVE SMOOTH",
"343 -78 OFFCURVE",
"515 -2 OFFCURVE",
"617 98 CURVE",
"617 98 OFFCURVE",
"624 92 OFFCURVE",
"624 78 CURVE",
"624 72 OFFCURVE",
"629 67 OFFCURVE",
"635 67 CURVE SMOOTH",
"645 67 OFFCURVE",
"651 74 OFFCURVE",
"651 89 CURVE SMOOTH",
"651 100 OFFCURVE",
"650 112 OFFCURVE",
"644 123 CURVE",
"709 192 OFFCURVE",
"762 291 OFFCURVE",
"762 381 CURVE SMOOTH",
"762 506 OFFCURVE",
"657 607 OFFCURVE",
"510 607 CURVE SMOOTH",
"351 607 OFFCURVE",
"231 502 OFFCURVE",
"157 371 CURVE SMOOTH",
"156 369 OFFCURVE",
"155 366 OFFCURVE",
"155 363 CURVE SMOOTH",
"155 356 OFFCURVE",
"161 351 OFFCURVE",
"169 351 CURVE",
"174 352 OFFCURVE",
"177 353 OFFCURVE",
"179 357 CURVE SMOOTH",
"295 534 OFFCURVE",
"409 578 OFFCURVE",
"507 578 CURVE SMOOTH",
"639 578 OFFCURVE",
"729 491 OFFCURVE",
"729 379 CURVE SMOOTH",
"729 293 OFFCURVE",
"684 212 OFFCURVE",
"631 149 CURVE",
"579 231 OFFCURVE",
"481 257 OFFCURVE",
"411 257 CURVE SMOOTH",
"239 257 OFFCURVE",
"47 188 OFFCURVE",
"47 25 CURVE SMOOTH"
);
},
{
closed = 1;
nodes = (
"82 166 OFFCURVE",
"252 228 OFFCURVE",
"411 228 CURVE SMOOTH",
"470 228 OFFCURVE",
"572 211 OFFCURVE",
"608 127 CURVE",
"509 28 OFFCURVE",
"336 -49 OFFCURVE",
"203 -49 CURVE SMOOTH",
"147 -49 OFFCURVE",
"82 -30 OFFCURVE",
"82 28 CURVE SMOOTH"
);
}
);
};
layerId = "6A041D6C-A676-4DB4-A570-80A8F8AA896B";
paths = (
{
closed = 1;
nodes = (
"343 -78 OFFCURVE",
"515 -2 OFFCURVE",
"617 98 CURVE",
"617 98 OFFCURVE",
"624 92 OFFCURVE",
"624 78 CURVE SMOOTH",
"624 72 OFFCURVE",
"629 67 OFFCURVE",
"635 67 CURVE SMOOTH",
"645 67 OFFCURVE",
"651 74 OFFCURVE",
"651 89 CURVE SMOOTH",
"651 100 OFFCURVE",
"650 112 OFFCURVE",
"644 123 CURVE",
"709 192 OFFCURVE",
"762 291 OFFCURVE",
"762 381 CURVE SMOOTH",
"762 506 OFFCURVE",
"657 607 OFFCURVE",
"510 607 CURVE SMOOTH",
"351 607 OFFCURVE",
"231 502 OFFCURVE",
"157 371 CURVE SMOOTH",
"156 369 OFFCURVE",
"155 366 OFFCURVE",
"155 363 CURVE SMOOTH",
"155 356 OFFCURVE",
"161 351 OFFCURVE",
"169 351 CURVE",
"174 352 OFFCURVE",
"177 353 OFFCURVE",
"179 357 CURVE SMOOTH",
"295 534 OFFCURVE",
"409 578 OFFCURVE",
"507 578 CURVE SMOOTH",
"639 578 OFFCURVE",
"729 491 OFFCURVE",
"729 379 CURVE SMOOTH",
"729 293 OFFCURVE",
"684 212 OFFCURVE",
"631 149 CURVE",
"579 231 OFFCURVE",
"481 257 OFFCURVE",
"411 257 CURVE SMOOTH",
"239 257 OFFCURVE",
"47 188 OFFCURVE",
"47 25 CURVE SMOOTH",
"47 -48 OFFCURVE",
"134 -78 OFFCURVE",
"205 -78 CURVE SMOOTH"
);
},
{
closed = 1;
nodes = (
"147 -49 OFFCURVE",
"82 -30 OFFCURVE",
"82 28 CURVE SMOOTH",
"82 166 OFFCURVE",
"252 228 OFFCURVE",
"411 228 CURVE SMOOTH",
"470 228 OFFCURVE",
"572 211 OFFCURVE",
"608 127 CURVE",
"509 28 OFFCURVE",
"336 -49 OFFCURVE",
"203 -49 CURVE SMOOTH"
);
}
);
width = 780;
}
);
unicode = 018F;
},
{
glyphname = T;
lastChange = "2022-02-07 22:19:05 +0000";
layers = (
{
background = {
paths = (
{
closed = 1;
nodes = (
"1064 598 OFFCURVE",
"1034 631 OFFCURVE",
"1014 631 CURVE SMOOTH",
"1004 631 OFFCURVE",
"996 623 OFFCURVE",
"996 615 CURVE SMOOTH",
"996 601 OFFCURVE",
"1023 601 OFFCURVE",
"1023 582 CURVE SMOOTH",
"1023 555 OFFCURVE",
"972 554 OFFCURVE",
"951 554 CURVE SMOOTH",
"859 554 OFFCURVE",
"764 577 OFFCURVE",
"676 598 CURVE SMOOTH",
"534 631 OFFCURVE",
"389 669 OFFCURVE",
"242 669 CURVE SMOOTH",
"226 669 OFFCURVE",
"211 669 OFFCURVE",
"195 668 CURVE SMOOTH",
"125 664 OFFCURVE",
"-24 624 OFFCURVE",
"-24 546 CURVE SMOOTH",
"-24 514 OFFCURVE",
"4 490 OFFCURVE",
"32 473 CURVE SMOOTH",
"63 455 OFFCURVE",
"152 449 OFFCURVE",
"189 449 CURVE SMOOTH",
"245 449 OFFCURVE",
"302 456 OFFCURVE",
"356 470 CURVE SMOOTH",
"386 478 OFFCURVE",
"420 488 OFFCURVE",
"446 501 CURVE SMOOTH",
"452 504 OFFCURVE",
"456 507 OFFCURVE",
"456 513 CURVE SMOOTH",
"456 521 OFFCURVE",
"448 530 OFFCURVE",
"438 530 CURVE SMOOTH",
"436 530 OFFCURVE",
"362 502 OFFCURVE",
"347 498 CURVE SMOOTH",
"296 484 OFFCURVE",
"242 478 OFFCURVE",
"188 478 CURVE SMOOTH",
"157 478 OFFCURVE",
"78 482 OFFCURVE",
"52 498 CURVE SMOOTH",
"33 509 OFFCURVE",
"9 526 OFFCURVE",
"9 548 CURVE SMOOTH",
"9 555 OFFCURVE",
"12 561 OFFCURVE",
"16 567 CURVE SMOOTH",
"45 613 OFFCURVE",
"142 635 OFFCURVE",
"198 639 CURVE SMOOTH",
"214 640 OFFCURVE",
"229 640 OFFCURVE",
"245 640 CURVE SMOOTH",
"392 640 OFFCURVE",
"537 603 OFFCURVE",
"677 570 CURVE SMOOTH",
"766 549 OFFCURVE",
"860 526 OFFCURVE",
"952 526 CURVE SMOOTH",
"990 526 OFFCURVE",
"1064 533 OFFCURVE",
"1064 579 CURVE SMOOTH"
);
},
{
closed = 1;
nodes = (
"591 491 OFFCURVE",
"589 508 OFFCURVE",
"572 508 CURVE SMOOTH",
"563 508 OFFCURVE",
"555 502 OFFCURVE",
"555 495 CURVE SMOOTH",
"555 489 OFFCURVE",
"559 485 OFFCURVE",
"559 479 CURVE SMOOTH",
"559 437 OFFCURVE",
"474 293 OFFCURVE",
"450 248 CURVE SMOOTH",
"408 172 OFFCURVE",
"362 95 OFFCURVE",
"330 16 CURVE SMOOTH",
"325 3 OFFCURVE",
"315 -21 OFFCURVE",
"315 -35 CURVE SMOOTH",
"315 -44 OFFCURVE",
"321 -50 OFFCURVE",
"331 -50 CURVE SMOOTH",
"342 -50 OFFCURVE",
"346 -45 OFFCURVE",
"348 -37 CURVE SMOOTH",
"352 -22 OFFCURVE",
"356 -8 OFFCURVE",
"362 7 CURVE SMOOTH",
"394 86 OFFCURVE",
"440 161 OFFCURVE",
"481 236 CURVE SMOOTH",
"510 290 OFFCURVE",
"591 425 OFFCURVE",
"591 479 CURVE SMOOTH"
);
}
);
};
layerId = "6A041D6C-A676-4DB4-A570-80A8F8AA896B";
paths = (
{
closed = 1;
nodes = (
"245 449 OFFCURVE",
"302 456 OFFCURVE",
"356 470 CURVE SMOOTH",
"386 478 OFFCURVE",
"420 488 OFFCURVE",
"446 501 CURVE SMOOTH",
"452 504 OFFCURVE",
"456 507 OFFCURVE",
"456 513 CURVE SMOOTH",
"456 521 OFFCURVE",
"448 530 OFFCURVE",
"438 530 CURVE SMOOTH",
"436 530 OFFCURVE",
"362 502 OFFCURVE",
"347 498 CURVE SMOOTH",
"296 484 OFFCURVE",
"242 478 OFFCURVE",
"188 478 CURVE SMOOTH",
"157 478 OFFCURVE",
"78 482 OFFCURVE",
"52 498 CURVE SMOOTH",
"33 509 OFFCURVE",
"9 526 OFFCURVE",
"9 548 CURVE SMOOTH",
"9 555 OFFCURVE",
"12 561 OFFCURVE",
"16 567 CURVE SMOOTH",
"45 613 OFFCURVE",
"142 635 OFFCURVE",
"198 639 CURVE SMOOTH",
"214 640 OFFCURVE",
"229 640 OFFCURVE",
"245 640 CURVE SMOOTH",
"392 640 OFFCURVE",
"537 603 OFFCURVE",
"677 570 CURVE SMOOTH",
"766 549 OFFCURVE",
"860 526 OFFCURVE",
"952 526 CURVE SMOOTH",
"990 526 OFFCURVE",
"1064 533 OFFCURVE",
"1064 579 CURVE SMOOTH",
"1064 598 OFFCURVE",
"1034 631 OFFCURVE",
"1014 631 CURVE SMOOTH",
"1004 631 OFFCURVE",
"996 623 OFFCURVE",
"996 615 CURVE SMOOTH",
"996 601 OFFCURVE",
"1023 601 OFFCURVE",
"1023 582 CURVE SMOOTH",
"1023 555 OFFCURVE",
"972 554 OFFCURVE",
"951 554 CURVE SMOOTH",
"859 554 OFFCURVE",
"764 577 OFFCURVE",
"676 598 CURVE SMOOTH",
"534 631 OFFCURVE",
"389 669 OFFCURVE",
"242 669 CURVE SMOOTH",
"226 669 OFFCURVE",
"211 669 OFFCURVE",
"195 668 CURVE SMOOTH",
"125 664 OFFCURVE",
"-24 624 OFFCURVE",
"-24 546 CURVE SMOOTH",
"-24 514 OFFCURVE",
"4 490 OFFCURVE",
"32 473 CURVE SMOOTH",
"63 455 OFFCURVE",
"152 449 OFFCURVE",
"189 449 CURVE SMOOTH"
);
},
{
closed = 1;
nodes = (
"342 -50 OFFCURVE",
"346 -45 OFFCURVE",
"348 -37 CURVE SMOOTH",
"352 -22 OFFCURVE",
"356 -8 OFFCURVE",
"362 7 CURVE SMOOTH",
"394 86 OFFCURVE",
"440 161 OFFCURVE",
"481 236 CURVE SMOOTH",
"510 290 OFFCURVE",
"591 425 OFFCURVE",
"591 479 CURVE SMOOTH",
"591 491 OFFCURVE",
"589 508 OFFCURVE",
"572 508 CURVE SMOOTH",
"563 508 OFFCURVE",
"555 502 OFFCURVE",
"555 495 CURVE SMOOTH",
"555 489 OFFCURVE",
"559 485 OFFCURVE",
"559 479 CURVE SMOOTH",
"559 437 OFFCURVE",
"474 293 OFFCURVE",
"450 248 CURVE SMOOTH",
"408 172 OFFCURVE",
"362 95 OFFCURVE",
"330 16 CURVE SMOOTH",
"325 3 OFFCURVE",
"315 -21 OFFCURVE",
"315 -35 CURVE SMOOTH",
"315 -44 OFFCURVE",
"321 -50 OFFCURVE",
"331 -50 CURVE SMOOTH"
);
}
);
width = 575;
}
);
note = T;
unicode = 0054;
},
{
glyphname = U;
lastChange = "2022-02-07 22:19:05 +0000";
layers = (
{
background = {
paths = (
{
closed = 1;
nodes = (
"881 526 OFFCURVE",
"880 533 OFFCURVE",
"874 533 CURVE SMOOTH",
"853 533 OFFCURVE",
"815 469 OFFCURVE",
"807 456 CURVE SMOOTH",
"745 350 OFFCURVE",
"549 23 OFFCURVE",
"400 23 CURVE SMOOTH",
"368 23 OFFCURVE",
"360 44 OFFCURVE",
"360 68 CURVE SMOOTH",
"360 119 OFFCURVE",
"396 196 OFFCURVE",
"420 243 CURVE SMOOTH",
"452 307 OFFCURVE",
"591 548 OFFCURVE",
"591 600 CURVE SMOOTH",
"591 659 OFFCURVE",
"527 678 OFFCURVE",
"471 678 CURVE SMOOTH",
"395 678 OFFCURVE",
"300 650 OFFCURVE",
"236 615 CURVE SMOOTH",
"165 576 OFFCURVE",
"70 507 OFFCURVE",
"28 443 CURVE SMOOTH",
"7 412 OFFCURVE",
"-6 374 OFFCURVE",
"-6 338 CURVE SMOOTH",
"-6 270 OFFCURVE",
"38 245 OFFCURVE",
"111 245 CURVE SMOOTH",
"130 245 OFFCURVE",
"227 255 OFFCURVE",
"227 278 CURVE SMOOTH",
"227 286 OFFCURVE",
"219 293 OFFCURVE",
"209 293 CURVE SMOOTH",
"206 293 OFFCURVE",
"203 292 OFFCURVE",
"200 291 CURVE SMOOTH",
"174 280 OFFCURVE",
"144 274 OFFCURVE",
"115 274 CURVE SMOOTH",
"66 274 OFFCURVE",
"24 285 OFFCURVE",
"24 334 CURVE SMOOTH",
"24 436 OFFCURVE",
"155 540 OFFCURVE",
"246 590 CURVE SMOOTH",
"305 622 OFFCURVE",
"397 653 OFFCURVE",
"467 653 CURVE SMOOTH",
"508 653 OFFCURVE",
"556 639 OFFCURVE",
"556 596 CURVE SMOOTH",
"556 546 OFFCURVE",
"419 316 OFFCURVE",
"389 254 CURVE SMOOTH",
"362 200 OFFCURVE",
"329 119 OFFCURVE",
"329 61 CURVE SMOOTH",
"329 24 OFFCURVE",
"343 -8 OFFCURVE",
"392 -8 CURVE SMOOTH",
"510 -8 OFFCURVE",
"630 142 OFFCURVE",
"689 218 CURVE",
"693 216 LINE",
"671 163 OFFCURVE",
"639 69 OFFCURVE",
"639 13 CURVE SMOOTH",
"639 -14 OFFCURVE",
"647 -41 OFFCURVE",
"684 -41 CURVE SMOOTH",
"700 -41 OFFCURVE",
"743 -34 OFFCURVE",
"743 -16 CURVE SMOOTH",
"743 -12 OFFCURVE",
"740 -8 OFFCURVE",
"734 -8 CURVE SMOOTH",
"722 -8 OFFCURVE",
"711 -15 OFFCURVE",
"697 -15 CURVE SMOOTH",
"677 -15 OFFCURVE",
"672 -2 OFFCURVE",
"672 13 CURVE SMOOTH",
"672 22 OFFCURVE",
"674 30 OFFCURVE",
"675 38 CURVE SMOOTH",
"698 173 OFFCURVE",
"764 303 OFFCURVE",
"837 423 CURVE SMOOTH",
"851 445 OFFCURVE",
"881 496 OFFCURVE",
"881 522 CURVE SMOOTH"
);
}
);
};
layerId = "6A041D6C-A676-4DB4-A570-80A8F8AA896B";
paths = (
{
closed = 1;
nodes = (
"700 -41 OFFCURVE",
"743 -34 OFFCURVE",
"743 -16 CURVE SMOOTH",
"743 -12 OFFCURVE",
"740 -8 OFFCURVE",
"734 -8 CURVE SMOOTH",
"722 -8 OFFCURVE",
"711 -15 OFFCURVE",
"697 -15 CURVE SMOOTH",
"677 -15 OFFCURVE",
"672 -2 OFFCURVE",
"672 13 CURVE SMOOTH",
"672 22 OFFCURVE",
"674 30 OFFCURVE",
"675 38 CURVE SMOOTH",
"698 173 OFFCURVE",
"764 303 OFFCURVE",
"837 423 CURVE SMOOTH",
"851 445 OFFCURVE",
"881 496 OFFCURVE",
"881 522 CURVE SMOOTH",
"881 526 OFFCURVE",
"880 533 OFFCURVE",
"874 533 CURVE SMOOTH",
"853 533 OFFCURVE",
"815 469 OFFCURVE",
"807 456 CURVE SMOOTH",
"745 350 OFFCURVE",
"549 23 OFFCURVE",
"400 23 CURVE SMOOTH",
"368 23 OFFCURVE",
"360 44 OFFCURVE",
"360 68 CURVE SMOOTH",
"360 119 OFFCURVE",
"396 196 OFFCURVE",
"420 243 CURVE SMOOTH",
"452 307 OFFCURVE",
"591 548 OFFCURVE",
"591 600 CURVE SMOOTH",
"591 659 OFFCURVE",
"527 678 OFFCURVE",
"471 678 CURVE SMOOTH",
"395 678 OFFCURVE",
"300 650 OFFCURVE",
"236 615 CURVE SMOOTH",
"165 576 OFFCURVE",
"70 507 OFFCURVE",
"28 443 CURVE SMOOTH",
"7 412 OFFCURVE",
"-6 374 OFFCURVE",
"-6 338 CURVE SMOOTH",
"-6 270 OFFCURVE",
"38 245 OFFCURVE",
"111 245 CURVE SMOOTH",
"130 245 OFFCURVE",
"227 255 OFFCURVE",
"227 278 CURVE SMOOTH",
"227 286 OFFCURVE",
"219 293 OFFCURVE",
"209 293 CURVE SMOOTH",
"206 293 OFFCURVE",
"203 292 OFFCURVE",
"200 291 CURVE SMOOTH",
"174 280 OFFCURVE",
"144 274 OFFCURVE",
"115 274 CURVE SMOOTH",
"66 274 OFFCURVE",
"24 285 OFFCURVE",
"24 334 CURVE SMOOTH",
"24 436 OFFCURVE",
"155 540 OFFCURVE",
"246 590 CURVE SMOOTH",
"305 622 OFFCURVE",
"397 653 OFFCURVE",
"467 653 CURVE SMOOTH",
"508 653 OFFCURVE",
"556 639 OFFCURVE",
"556 596 CURVE SMOOTH",
"556 546 OFFCURVE",
"419 316 OFFCURVE",
"389 254 CURVE SMOOTH",
"362 200 OFFCURVE",
"329 119 OFFCURVE",
"329 61 CURVE SMOOTH",
"329 24 OFFCURVE",
"343 -8 OFFCURVE",
"392 -8 CURVE SMOOTH",
"510 -8 OFFCURVE",
"630 142 OFFCURVE",
"689 218 CURVE",
"693 216 LINE",
"671 163 OFFCURVE",
"639 69 OFFCURVE",
"639 13 CURVE SMOOTH",
"639 -14 OFFCURVE",
"647 -41 OFFCURVE",
"684 -41 CURVE SMOOTH"
);
}
);
width = 769;
}
);
note = U;
unicode = 0055;
},
{
glyphname = V;
lastChange = "2022-02-07 22:19:05 +0000";
layers = (
{
background = {
paths = (
{
closed = 1;
nodes = (
"1158 668 OFFCURVE",
"1128 679 OFFCURVE",
"1102 679 CURVE SMOOTH",
"1048 679 OFFCURVE",
"991 643 OFFCURVE",
"953 613 CURVE SMOOTH",
"872 549 OFFCURVE",
"800 474 OFFCURVE",
"732 399 CURVE SMOOTH",
"646 304 OFFCURVE",
"566 204 OFFCURVE",
"493 101 CURVE",
"489 103 LINE",
"517 212 OFFCURVE",
"543 322 OFFCURVE",
"565 433 CURVE SMOOTH",
"574 479 OFFCURVE",
"591 552 OFFCURVE",
"591 598 CURVE SMOOTH",
"591 658 OFFCURVE",
"535 683 OFFCURVE",
"474 683 CURVE SMOOTH",
"397 683 OFFCURVE",
"300 650 OFFCURVE",
"236 615 CURVE SMOOTH",
"134 559 OFFCURVE",
"-11 450 OFFCURVE",
"-11 336 CURVE SMOOTH",
"-11 268 OFFCURVE",
"47 244 OFFCURVE",
"117 244 CURVE SMOOTH",
"135 244 OFFCURVE",
"227 252 OFFCURVE",
"227 276 CURVE SMOOTH",
"227 284 OFFCURVE",
"218 291 OFFCURVE",
"209 291 CURVE SMOOTH",
"206 291 OFFCURVE",
"203 290 OFFCURVE",
"200 289 CURVE SMOOTH",
"175 278 OFFCURVE",
"147 274 OFFCURVE",
"118 274 CURVE SMOOTH",
"66 274 OFFCURVE",
"27 283 OFFCURVE",
"27 335 CURVE SMOOTH",
"27 366 OFFCURVE",
"39 401 OFFCURVE",
"56 428 CURVE SMOOTH",
"123 531 OFFCURVE",
"336 658 OFFCURVE",
"474 658 CURVE SMOOTH",
"521 658 OFFCURVE",
"559 639 OFFCURVE",
"559 594 CURVE SMOOTH",
"559 572 OFFCURVE",
"555 550 OFFCURVE",
"551 529 CURVE SMOOTH",
"544 484 OFFCURVE",
"535 439 OFFCURVE",
"525 395 CURVE SMOOTH",
"496 254 OFFCURVE",
"461 114 OFFCURVE",
"416 -24 CURVE",
"416 -25 OFFCURVE",
"416 -26 OFFCURVE",
"416 -27 CURVE SMOOTH",
"416 -36 OFFCURVE",
"428 -38 OFFCURVE",
"435 -38 CURVE SMOOTH",
"448 -38 OFFCURVE",
"458 -35 OFFCURVE",
"465 -25 CURVE SMOOTH",
"474 -11 OFFCURVE",
"481 5 OFFCURVE",
"489 19 CURVE SMOOTH",
"503 43 OFFCURVE",
"519 68 OFFCURVE",
"535 91 CURVE SMOOTH",
"643 253 OFFCURVE",
"816 467 OFFCURVE",
"975 592 CURVE SMOOTH",
"1003 614 OFFCURVE",
"1061 655 OFFCURVE",
"1101 655 CURVE SMOOTH",
"1111 655 OFFCURVE",
"1123 652 OFFCURVE",
"1123 641 CURVE SMOOTH",
"1123 631 OFFCURVE",
"1127 620 OFFCURVE",
"1141 620 CURVE SMOOTH",
"1154 620 OFFCURVE",
"1158 632 OFFCURVE",
"1158 641 CURVE SMOOTH"
);
}
);
};
layerId = "6A041D6C-A676-4DB4-A570-80A8F8AA896B";
paths = (
{
closed = 1;
nodes = (
"448 -38 OFFCURVE",
"458 -35 OFFCURVE",
"465 -25 CURVE SMOOTH",
"474 -11 OFFCURVE",
"481 5 OFFCURVE",
"489 19 CURVE SMOOTH",
"503 43 OFFCURVE",
"519 68 OFFCURVE",
"535 91 CURVE SMOOTH",
"643 253 OFFCURVE",
"816 467 OFFCURVE",
"975 592 CURVE SMOOTH",
"1003 614 OFFCURVE",
"1061 655 OFFCURVE",
"1101 655 CURVE SMOOTH",
"1111 655 OFFCURVE",
"1123 652 OFFCURVE",
"1123 641 CURVE SMOOTH",
"1123 631 OFFCURVE",
"1127 620 OFFCURVE",
"1141 620 CURVE SMOOTH",
"1154 620 OFFCURVE",
"1158 632 OFFCURVE",
"1158 641 CURVE SMOOTH",
"1158 668 OFFCURVE",
"1128 679 OFFCURVE",
"1102 679 CURVE SMOOTH",
"1048 679 OFFCURVE",
"991 643 OFFCURVE",
"953 613 CURVE SMOOTH",
"872 549 OFFCURVE",
"800 474 OFFCURVE",
"732 399 CURVE SMOOTH",
"646 304 OFFCURVE",
"566 204 OFFCURVE",
"493 101 CURVE",
"489 103 LINE",
"517 212 OFFCURVE",
"543 322 OFFCURVE",
"565 433 CURVE SMOOTH",
"574 479 OFFCURVE",
"591 552 OFFCURVE",
"591 598 CURVE SMOOTH",
"591 658 OFFCURVE",
"535 683 OFFCURVE",
"474 683 CURVE SMOOTH",
"397 683 OFFCURVE",
"300 650 OFFCURVE",
"236 615 CURVE SMOOTH",
"134 559 OFFCURVE",
"-11 450 OFFCURVE",
"-11 336 CURVE SMOOTH",
"-11 268 OFFCURVE",
"47 244 OFFCURVE",
"117 244 CURVE SMOOTH",
"135 244 OFFCURVE",
"227 252 OFFCURVE",
"227 276 CURVE SMOOTH",
"227 284 OFFCURVE",
"218 291 OFFCURVE",
"209 291 CURVE SMOOTH",
"206 291 OFFCURVE",
"203 290 OFFCURVE",
"200 289 CURVE SMOOTH",
"175 278 OFFCURVE",
"147 274 OFFCURVE",
"118 274 CURVE SMOOTH",
"66 274 OFFCURVE",
"27 283 OFFCURVE",
"27 335 CURVE SMOOTH",
"27 366 OFFCURVE",
"39 401 OFFCURVE",
"56 428 CURVE SMOOTH",
"123 531 OFFCURVE",
"336 658 OFFCURVE",
"474 658 CURVE SMOOTH",
"521 658 OFFCURVE",
"559 639 OFFCURVE",
"559 594 CURVE SMOOTH",
"559 572 OFFCURVE",
"555 550 OFFCURVE",
"551 529 CURVE SMOOTH",
"544 484 OFFCURVE",
"535 439 OFFCURVE",
"525 395 CURVE SMOOTH",
"496 254 OFFCURVE",
"461 114 OFFCURVE",
"416 -24 CURVE",
"416 -27 LINE SMOOTH",
"416 -36 OFFCURVE",
"428 -38 OFFCURVE",
"435 -38 CURVE SMOOTH"
);
}
);
width = 692;
}
);
note = V;
unicode = 0056;
},
{
glyphname = W;
lastChange = "2022-02-07 22:19:05 +0000";
layers = (
{
background = {
paths = (
{
closed = 1;
nodes = (
"1132 493 OFFCURVE",
"1119 544 OFFCURVE",
"1068 568 CURVE SMOOTH",
"1066 569 OFFCURVE",
"1063 570 OFFCURVE",
"1060 570 CURVE SMOOTH",
"1051 570 OFFCURVE",
"1044 562 OFFCURVE",
"1044 555 CURVE SMOOTH",
"1044 549 OFFCURVE",
"1047 546 OFFCURVE",
"1052 543 CURVE SMOOTH",
"1093 518 OFFCURVE",
"1099 484 OFFCURVE",
"1099 443 CURVE SMOOTH",
"1099 333 OFFCURVE",
"1035 196 OFFCURVE",
"954 113 CURVE SMOOTH",
"911 68 OFFCURVE",
"845 26 OFFCURVE",
"776 26 CURVE SMOOTH",
"686 26 OFFCURVE",
"669 95 OFFCURVE",
"669 159 CURVE SMOOTH",
"669 189 OFFCURVE",
"673 219 OFFCURVE",
"678 248 CURVE",
"733 314 OFFCURVE",
"787 387 OFFCURVE",
"825 462 CURVE SMOOTH",
"826 464 OFFCURVE",
"826 466 OFFCURVE",
"826 468 CURVE SMOOTH",
"826 480 OFFCURVE",
"811 484 OFFCURVE",
"800 484 CURVE SMOOTH",
"723 484 OFFCURVE",
"659 316 OFFCURVE",
"646 260 CURVE",
"598 201 OFFCURVE",
"388 -35 OFFCURVE",
"302 -35 CURVE SMOOTH",
"280 -35 OFFCURVE",
"276 -18 OFFCURVE",
"276 -3 CURVE SMOOTH",
"276 54 OFFCURVE",
"343 192 OFFCURVE",
"374 243 CURVE SMOOTH",
"408 300 OFFCURVE",
"556 548 OFFCURVE",
"557 601 CURVE SMOOTH",
"557 603 LINE SMOOTH",
"557 659 OFFCURVE",
"516 681 OFFCURVE",
"457 681 CURVE SMOOTH",
"383 681 OFFCURVE",
"290 648 OFFCURVE",
"228 615 CURVE SMOOTH",
"153 576 OFFCURVE",
"56 508 OFFCURVE",
"8 444 CURVE SMOOTH",
"-17 411 OFFCURVE",
"-42 365 OFFCURVE",
"-42 325 CURVE SMOOTH",
"-42 265 OFFCURVE",
"17 245 OFFCURVE",
"76 245 CURVE SMOOTH",
"97 245 OFFCURVE",
"193 255 OFFCURVE",
"193 279 CURVE SMOOTH",
"193 287 OFFCURVE",
"186 293 OFFCURVE",
"177 293 CURVE SMOOTH",
"174 293 OFFCURVE",
"172 292 OFFCURVE",
"169 291 CURVE SMOOTH",
"142 281 OFFCURVE",
"113 274 OFFCURVE",
"83 274 CURVE SMOOTH",
"40 274 OFFCURVE",
"-4 281 OFFCURVE",
"-4 326 CURVE SMOOTH",
"-4 474 OFFCURVE",
"299 652 OFFCURVE",
"454 652 CURVE SMOOTH",
"493 652 OFFCURVE",
"524 639 OFFCURVE",
"524 601 CURVE SMOOTH",
"524 561 OFFCURVE",
"373 305 OFFCURVE",
"344 256 CURVE SMOOTH",
"308 195 OFFCURVE",
"242 62 OFFCURVE",
"242 -7 CURVE SMOOTH",
"242 -36 OFFCURVE",
"251 -66 OFFCURVE",
"291 -66 CURVE SMOOTH",
"396 -66 OFFCURVE",
"579 136 OFFCURVE",
"637 202 CURVE",
"633 119 OFFCURVE",
"648 -4 OFFCURVE",
"773 -4 CURVE SMOOTH",
"987 -4 OFFCURVE",
"1132 292 OFFCURVE",
"1132 447 CURVE SMOOTH"
);
}
);
};
layerId = "6A041D6C-A676-4DB4-A570-80A8F8AA896B";
paths = (
{
closed = 1;
nodes = (
"396 -66 OFFCURVE",
"579 136 OFFCURVE",
"637 202 CURVE",
"633 119 OFFCURVE",
"648 -4 OFFCURVE",
"773 -4 CURVE SMOOTH",
"987 -4 OFFCURVE",
"1132 292 OFFCURVE",
"1132 447 CURVE SMOOTH",
"1132 493 OFFCURVE",
"1119 544 OFFCURVE",
"1068 568 CURVE SMOOTH",
"1066 569 OFFCURVE",
"1063 570 OFFCURVE",
"1060 570 CURVE SMOOTH",
"1051 570 OFFCURVE",
"1044 562 OFFCURVE",
"1044 555 CURVE SMOOTH",
"1044 549 OFFCURVE",
"1047 546 OFFCURVE",
"1052 543 CURVE SMOOTH",
"1093 518 OFFCURVE",
"1099 484 OFFCURVE",
"1099 443 CURVE SMOOTH",
"1099 333 OFFCURVE",
"1035 196 OFFCURVE",
"954 113 CURVE SMOOTH",
"911 68 OFFCURVE",
"845 26 OFFCURVE",
"776 26 CURVE SMOOTH",
"686 26 OFFCURVE",
"669 95 OFFCURVE",
"669 159 CURVE SMOOTH",
"669 189 OFFCURVE",
"673 219 OFFCURVE",
"678 248 CURVE",
"733 314 OFFCURVE",
"787 387 OFFCURVE",
"825 462 CURVE SMOOTH",
"826 464 OFFCURVE",
"826 466 OFFCURVE",
"826 468 CURVE SMOOTH",
"826 480 OFFCURVE",
"811 484 OFFCURVE",
"800 484 CURVE SMOOTH",
"723 484 OFFCURVE",
"659 316 OFFCURVE",
"646 260 CURVE",
"598 201 OFFCURVE",
"388 -35 OFFCURVE",
"302 -35 CURVE SMOOTH",
"280 -35 OFFCURVE",
"276 -18 OFFCURVE",
"276 -3 CURVE SMOOTH",
"276 54 OFFCURVE",
"343 192 OFFCURVE",
"374 243 CURVE SMOOTH",
"408 300 OFFCURVE",
"556 548 OFFCURVE",
"557 601 CURVE SMOOTH",
"557 603 LINE SMOOTH",
"557 659 OFFCURVE",
"516 681 OFFCURVE",
"457 681 CURVE SMOOTH",
"383 681 OFFCURVE",
"290 648 OFFCURVE",
"228 615 CURVE SMOOTH",
"153 576 OFFCURVE",
"56 508 OFFCURVE",
"8 444 CURVE SMOOTH",
"-17 411 OFFCURVE",
"-42 365 OFFCURVE",
"-42 325 CURVE SMOOTH",
"-42 265 OFFCURVE",
"17 245 OFFCURVE",
"76 245 CURVE SMOOTH",
"97 245 OFFCURVE",
"193 255 OFFCURVE",
"193 279 CURVE SMOOTH",
"193 287 OFFCURVE",
"186 293 OFFCURVE",
"177 293 CURVE SMOOTH",
"174 293 OFFCURVE",
"172 292 OFFCURVE",
"169 291 CURVE SMOOTH",
"142 281 OFFCURVE",
"113 274 OFFCURVE",
"83 274 CURVE SMOOTH",
"40 274 OFFCURVE",
"-4 281 OFFCURVE",
"-4 326 CURVE SMOOTH",
"-4 474 OFFCURVE",
"299 652 OFFCURVE",
"454 652 CURVE SMOOTH",
"493 652 OFFCURVE",
"524 639 OFFCURVE",
"524 601 CURVE SMOOTH",
"524 561 OFFCURVE",
"373 305 OFFCURVE",
"344 256 CURVE SMOOTH",
"308 195 OFFCURVE",
"242 62 OFFCURVE",
"242 -7 CURVE SMOOTH",
"242 -36 OFFCURVE",
"251 -66 OFFCURVE",
"291 -66 CURVE SMOOTH"
);
}
);
width = 1033;
}
);
note = W;
unicode = 0057;
},
{
glyphname = X;
lastChange = "2022-02-07 22:19:05 +0000";
layers = (
{
background = {
paths = (
{
closed = 1;
nodes = (
"801 631 OFFCURVE",
"794 638 OFFCURVE",
"786 638 CURVE SMOOTH",
"780 638 OFFCURVE",
"776 635 OFFCURVE",
"773 632 CURVE SMOOTH",
"758 618 OFFCURVE",
"744 605 OFFCURVE",
"729 592 CURVE SMOOTH",
"679 549 OFFCURVE",
"625 509 OFFCURVE",
"572 470 CURVE SMOOTH",
"505 421 OFFCURVE",
"438 373 OFFCURVE",
"371 324 CURVE",
"359 375 OFFCURVE",
"321 544 OFFCURVE",
"273 575 CURVE SMOOTH",
"251 589 OFFCURVE",
"225 600 OFFCURVE",
"198 600 CURVE SMOOTH",
"118 600 OFFCURVE",
"79 522 OFFCURVE",
"74 465 CURVE",
"73 463 LINE",
"73 454 OFFCURVE",
"82 449 OFFCURVE",
"91 449 CURVE SMOOTH",
"99 449 OFFCURVE",
"104 452 OFFCURVE",
"106 459 CURVE SMOOTH",
"110 472 OFFCURVE",
"112 484 OFFCURVE",
"117 497 CURVE SMOOTH",
"129 529 OFFCURVE",
"158 572 OFFCURVE",
"203 572 CURVE SMOOTH",
"223 572 OFFCURVE",
"238 563 OFFCURVE",
"253 552 CURVE SMOOTH",
"299 516 OFFCURVE",
"329 353 OFFCURVE",
"339 300 CURVE",
"178 175 OFFCURVE",
"18 33 OFFCURVE",
"-93 -129 CURVE",
"-95 -131 OFFCURVE",
"-96 -134 OFFCURVE",
"-96 -136 CURVE SMOOTH",
"-96 -145 OFFCURVE",
"-87 -151 OFFCURVE",
"-78 -151 CURVE SMOOTH",
"-72 -151 OFFCURVE",
"-68 -148 OFFCURVE",
"-64 -144 CURVE",
"-35 -104 OFFCURVE",
"-7 -65 OFFCURVE",
"26 -27 CURVE SMOOTH",
"120 81 OFFCURVE",
"231 178 OFFCURVE",
"347 268 CURVE",
"361 192 OFFCURVE",
"373 113 OFFCURVE",
"394 38 CURVE SMOOTH",
"407 -5 OFFCURVE",
"433 -51 OFFCURVE",
"492 -51 CURVE SMOOTH",
"578 -51 OFFCURVE",
"643 39 OFFCURVE",
"668 101 CURVE SMOOTH",
"669 103 OFFCURVE",
"669 105 OFFCURVE",
"669 106 CURVE SMOOTH",
"669 115 OFFCURVE",
"660 121 OFFCURVE",
"651 121 CURVE SMOOTH",
"642 121 OFFCURVE",
"638 117 OFFCURVE",
"635 110 CURVE SMOOTH",
"629 98 OFFCURVE",
"625 86 OFFCURVE",
"618 74 CURVE SMOOTH",
"598 38 OFFCURVE",
"552 -18 OFFCURVE",
"500 -18 CURVE SMOOTH",
"458 -18 OFFCURVE",
"440 17 OFFCURVE",
"430 46 CURVE SMOOTH",
"420 74 OFFCURVE",
"416 104 OFFCURVE",
"411 132 CURVE SMOOTH",
"400 185 OFFCURVE",
"390 238 OFFCURVE",
"378 291 CURVE",
"460 354 OFFCURVE",
"545 415 OFFCURVE",
"628 477 CURVE SMOOTH",
"686 520 OFFCURVE",
"748 564 OFFCURVE",
"797 615 CURVE",
"799 618 OFFCURVE",
"801 621 OFFCURVE",
"801 624 CURVE SMOOTH"
);
}
);
};
layerId = "6A041D6C-A676-4DB4-A570-80A8F8AA896B";
paths = (
{
closed = 1;
nodes = (
"-72 -151 OFFCURVE",
"-68 -148 OFFCURVE",
"-64 -144 CURVE",
"-35 -104 OFFCURVE",
"-7 -65 OFFCURVE",
"26 -27 CURVE SMOOTH",
"120 81 OFFCURVE",
"231 178 OFFCURVE",
"347 268 CURVE",
"361 192 OFFCURVE",
"373 113 OFFCURVE",
"394 38 CURVE SMOOTH",
"407 -5 OFFCURVE",
"433 -51 OFFCURVE",
"492 -51 CURVE SMOOTH",
"578 -51 OFFCURVE",
"643 39 OFFCURVE",
"668 101 CURVE SMOOTH",
"669 103 OFFCURVE",
"669 105 OFFCURVE",
"669 106 CURVE SMOOTH",
"669 115 OFFCURVE",
"660 121 OFFCURVE",
"651 121 CURVE SMOOTH",
"642 121 OFFCURVE",
"638 117 OFFCURVE",
"635 110 CURVE SMOOTH",
"629 98 OFFCURVE",
"625 86 OFFCURVE",
"618 74 CURVE SMOOTH",
"598 38 OFFCURVE",
"552 -18 OFFCURVE",
"500 -18 CURVE SMOOTH",
"458 -18 OFFCURVE",
"440 17 OFFCURVE",
"430 46 CURVE SMOOTH",
"420 74 OFFCURVE",
"416 104 OFFCURVE",
"411 132 CURVE SMOOTH",
"400 185 OFFCURVE",
"390 238 OFFCURVE",
"378 291 CURVE",
"460 354 OFFCURVE",
"545 415 OFFCURVE",
"628 477 CURVE SMOOTH",
"686 520 OFFCURVE",
"748 564 OFFCURVE",
"797 615 CURVE",
"799 618 OFFCURVE",
"801 621 OFFCURVE",
"801 624 CURVE SMOOTH",
"801 631 OFFCURVE",
"794 638 OFFCURVE",
"786 638 CURVE SMOOTH",
"780 638 OFFCURVE",
"776 635 OFFCURVE",
"773 632 CURVE SMOOTH",
"758 618 OFFCURVE",
"744 605 OFFCURVE",
"729 592 CURVE SMOOTH",
"679 549 OFFCURVE",
"625 509 OFFCURVE",
"572 470 CURVE SMOOTH",
"371 324 LINE",
"359 375 OFFCURVE",
"321 544 OFFCURVE",
"273 575 CURVE SMOOTH",
"251 589 OFFCURVE",
"225 600 OFFCURVE",
"198 600 CURVE SMOOTH",
"118 600 OFFCURVE",
"79 522 OFFCURVE",
"74 465 CURVE",
"73 463 LINE",
"73 454 OFFCURVE",
"82 449 OFFCURVE",
"91 449 CURVE SMOOTH",
"99 449 OFFCURVE",
"104 452 OFFCURVE",
"106 459 CURVE SMOOTH",
"110 472 OFFCURVE",
"112 484 OFFCURVE",
"117 497 CURVE SMOOTH",
"129 529 OFFCURVE",
"158 572 OFFCURVE",
"203 572 CURVE SMOOTH",
"223 572 OFFCURVE",
"238 563 OFFCURVE",
"253 552 CURVE SMOOTH",
"299 516 OFFCURVE",
"329 353 OFFCURVE",
"339 300 CURVE",
"178 175 OFFCURVE",
"18 33 OFFCURVE",
"-93 -129 CURVE",
"-95 -131 OFFCURVE",
"-96 -134 OFFCURVE",
"-96 -136 CURVE SMOOTH",
"-96 -145 OFFCURVE",
"-87 -151 OFFCURVE",
"-78 -151 CURVE SMOOTH"
);
}
);
width = 673;
}
);
note = X;
unicode = 0058;
},
{
glyphname = Y;
lastChange = "2022-02-07 22:19:05 +0000";
layers = (
{
background = {
paths = (
{
closed = 1;
nodes = (
"888 -118 OFFCURVE",
"883 -114 OFFCURVE",
"875 -111 CURVE SMOOTH",
"832 -96 OFFCURVE",
"711 -89 OFFCURVE",
"662 -89 CURVE SMOOTH",
"647 -89 OFFCURVE",
"631 -89 OFFCURVE",
"615 -90 CURVE",
"633 -64 OFFCURVE",
"650 -37 OFFCURVE",
"665 -10 CURVE SMOOTH",
"709 71 OFFCURVE",
"745 156 OFFCURVE",
"781 240 CURVE SMOOTH",
"811 311 OFFCURVE",
"842 383 OFFCURVE",
"869 455 CURVE SMOOTH",
"871 459 OFFCURVE",
"872 463 OFFCURVE",
"872 467 CURVE SMOOTH",
"872 475 OFFCURVE",
"868 484 OFFCURVE",
"857 484 CURVE SMOOTH",
"846 484 OFFCURVE",
"840 476 OFFCURVE",
"835 469 CURVE SMOOTH",
"826 458 OFFCURVE",
"819 444 OFFCURVE",
"811 432 CURVE SMOOTH",
"797 409 OFFCURVE",
"782 386 OFFCURVE",
"767 363 CURVE SMOOTH",
"716 287 OFFCURVE",
"661 211 OFFCURVE",
"595 144 CURVE SMOOTH",
"550 98 OFFCURVE",
"474 30 OFFCURVE",
"399 30 CURVE SMOOTH",
"353 30 OFFCURVE",
"329 50 OFFCURVE",
"329 90 CURVE SMOOTH",
"329 140 OFFCURVE",
"364 207 OFFCURVE",
"391 251 CURVE SMOOTH",
"438 327 OFFCURVE",
"490 402 OFFCURVE",
"529 482 CURVE SMOOTH",
"546 516 OFFCURVE",
"567 567 OFFCURVE",
"567 604 CURVE SMOOTH",
"567 650 OFFCURVE",
"512 662 OFFCURVE",
"469 662 CURVE SMOOTH",
"397 662 OFFCURVE",
"311 632 OFFCURVE",
"248 602 CURVE SMOOTH",
"159 560 OFFCURVE",
"34 440 OFFCURVE",
"34 347 CURVE SMOOTH",
"34 286 OFFCURVE",
"96 259 OFFCURVE",
"159 259 CURVE SMOOTH",
"179 259 OFFCURVE",
"276 270 OFFCURVE",
"276 296 CURVE SMOOTH",
"276 304 OFFCURVE",
"268 311 OFFCURVE",
"259 311 CURVE SMOOTH",
"255 311 OFFCURVE",
"252 310 OFFCURVE",
"248 308 CURVE SMOOTH",
"221 294 OFFCURVE",
"188 287 OFFCURVE",
"156 287 CURVE SMOOTH",
"111 287 OFFCURVE",
"65 304 OFFCURVE",
"65 349 CURVE SMOOTH",
"65 429 OFFCURVE",
"188 541 OFFCURVE",
"264 577 CURVE SMOOTH",
"319 603 OFFCURVE",
"404 637 OFFCURVE",
"467 637 CURVE SMOOTH",
"495 637 OFFCURVE",
"536 627 OFFCURVE",
"536 597 CURVE SMOOTH",
"536 569 OFFCURVE",
"511 518 OFFCURVE",
"498 493 CURVE SMOOTH",
"459 414 OFFCURVE",
"409 340 OFFCURVE",
"362 265 CURVE SMOOTH",
"331 215 OFFCURVE",
"304 149 OFFCURVE",
"304 91 CURVE SMOOTH",
"304 38 OFFCURVE",
"328 1 OFFCURVE",
"395 1 CURVE SMOOTH",
"541 1 OFFCURVE",
"699 212 OFFCURVE",
"769 310 CURVE",
"773 309 LINE",
"731 206 OFFCURVE",
"687 102 OFFCURVE",
"634 3 CURVE SMOOTH",
"615 -31 OFFCURVE",
"594 -63 OFFCURVE",
"569 -93 CURVE",
"452 -103 OFFCURVE",
"307 -132 OFFCURVE",
"205 -183 CURVE SMOOTH",
"168 -201 OFFCURVE",
"94 -245 OFFCURVE",
"94 -287 CURVE SMOOTH",
"94 -335 OFFCURVE",
"159 -348 OFFCURVE",
"203 -348 CURVE SMOOTH",
"364 -348 OFFCURVE",
"499 -228 OFFCURVE",
"588 -123 CURVE",
"617 -120 OFFCURVE",
"646 -119 OFFCURVE",
"675 -119 CURVE SMOOTH",
"718 -119 OFFCURVE",
"761 -122 OFFCURVE",
"804 -128 CURVE SMOOTH",
"825 -131 OFFCURVE",
"846 -134 OFFCURVE",
"866 -140 CURVE SMOOTH",
"868 -141 OFFCURVE",
"870 -141 OFFCURVE",
"872 -141 CURVE SMOOTH",
"882 -141 OFFCURVE",
"888 -133 OFFCURVE",
"888 -126 CURVE SMOOTH"
);
},
{
closed = 1;
nodes = (
"484 -193 OFFCURVE",
"393 -273 OFFCURVE",
"302 -302 CURVE SMOOTH",
"268 -313 OFFCURVE",
"226 -323 OFFCURVE",
"189 -323 CURVE SMOOTH",
"164 -323 OFFCURVE",
"130 -317 OFFCURVE",
"130 -289 CURVE SMOOTH",
"130 -255 OFFCURVE",
"193 -223 OFFCURVE",
"222 -208 CURVE SMOOTH",
"316 -161 OFFCURVE",
"435 -136 OFFCURVE",
"543 -128 CURVE"
);
}
);
};
layerId = "6A041D6C-A676-4DB4-A570-80A8F8AA896B";
paths = (
{
closed = 1;
nodes = (
"364 -348 OFFCURVE",
"499 -228 OFFCURVE",
"588 -123 CURVE",
"617 -120 OFFCURVE",
"646 -119 OFFCURVE",
"675 -119 CURVE SMOOTH",
"718 -119 OFFCURVE",
"761 -122 OFFCURVE",
"804 -128 CURVE SMOOTH",
"825 -131 OFFCURVE",
"846 -134 OFFCURVE",
"866 -140 CURVE SMOOTH",
"868 -141 OFFCURVE",
"870 -141 OFFCURVE",
"872 -141 CURVE SMOOTH",
"882 -141 OFFCURVE",
"888 -133 OFFCURVE",
"888 -126 CURVE SMOOTH",
"888 -118 OFFCURVE",
"883 -114 OFFCURVE",
"875 -111 CURVE SMOOTH",
"832 -96 OFFCURVE",
"711 -89 OFFCURVE",
"662 -89 CURVE SMOOTH",
"647 -89 OFFCURVE",
"631 -89 OFFCURVE",
"615 -90 CURVE",
"633 -64 OFFCURVE",
"650 -37 OFFCURVE",
"665 -10 CURVE SMOOTH",
"709 71 OFFCURVE",
"745 156 OFFCURVE",
"781 240 CURVE SMOOTH",
"811 311 OFFCURVE",
"842 383 OFFCURVE",
"869 455 CURVE SMOOTH",
"871 459 OFFCURVE",
"872 463 OFFCURVE",
"872 467 CURVE SMOOTH",
"872 475 OFFCURVE",
"868 484 OFFCURVE",
"857 484 CURVE SMOOTH",
"846 484 OFFCURVE",
"840 476 OFFCURVE",
"835 469 CURVE SMOOTH",
"826 458 OFFCURVE",
"819 444 OFFCURVE",
"811 432 CURVE SMOOTH",
"797 409 OFFCURVE",
"782 386 OFFCURVE",
"767 363 CURVE SMOOTH",
"716 287 OFFCURVE",
"661 211 OFFCURVE",
"595 144 CURVE SMOOTH",
"550 98 OFFCURVE",
"474 30 OFFCURVE",
"399 30 CURVE SMOOTH",
"353 30 OFFCURVE",
"329 50 OFFCURVE",
"329 90 CURVE SMOOTH",
"329 140 OFFCURVE",
"364 207 OFFCURVE",
"391 251 CURVE SMOOTH",
"438 327 OFFCURVE",
"490 402 OFFCURVE",
"529 482 CURVE SMOOTH",
"546 516 OFFCURVE",
"567 567 OFFCURVE",
"567 604 CURVE SMOOTH",
"567 650 OFFCURVE",
"512 662 OFFCURVE",
"469 662 CURVE SMOOTH",
"397 662 OFFCURVE",
"311 632 OFFCURVE",
"248 602 CURVE SMOOTH",
"159 560 OFFCURVE",
"34 440 OFFCURVE",
"34 347 CURVE SMOOTH",
"34 286 OFFCURVE",
"96 259 OFFCURVE",
"159 259 CURVE SMOOTH",
"179 259 OFFCURVE",
"276 270 OFFCURVE",
"276 296 CURVE SMOOTH",
"276 304 OFFCURVE",
"268 311 OFFCURVE",
"259 311 CURVE SMOOTH",
"255 311 OFFCURVE",
"252 310 OFFCURVE",
"248 308 CURVE SMOOTH",
"221 294 OFFCURVE",
"188 287 OFFCURVE",
"156 287 CURVE SMOOTH",
"111 287 OFFCURVE",
"65 304 OFFCURVE",
"65 349 CURVE SMOOTH",
"65 429 OFFCURVE",
"188 541 OFFCURVE",
"264 577 CURVE SMOOTH",
"319 603 OFFCURVE",
"404 637 OFFCURVE",
"467 637 CURVE SMOOTH",
"495 637 OFFCURVE",
"536 627 OFFCURVE",
"536 597 CURVE SMOOTH",
"536 569 OFFCURVE",
"511 518 OFFCURVE",
"498 493 CURVE SMOOTH",
"459 414 OFFCURVE",
"409 340 OFFCURVE",
"362 265 CURVE SMOOTH",
"331 215 OFFCURVE",
"304 149 OFFCURVE",
"304 91 CURVE SMOOTH",
"304 38 OFFCURVE",
"328 1 OFFCURVE",
"395 1 CURVE SMOOTH",
"541 1 OFFCURVE",
"699 212 OFFCURVE",
"769 310 CURVE",
"773 309 LINE",
"731 206 OFFCURVE",
"687 102 OFFCURVE",
"634 3 CURVE SMOOTH",
"615 -31 OFFCURVE",
"594 -63 OFFCURVE",
"569 -93 CURVE",
"452 -103 OFFCURVE",
"307 -132 OFFCURVE",
"205 -183 CURVE SMOOTH",
"168 -201 OFFCURVE",
"94 -245 OFFCURVE",
"94 -287 CURVE SMOOTH",
"94 -335 OFFCURVE",
"159 -348 OFFCURVE",
"203 -348 CURVE SMOOTH"
);
},
{
closed = 1;
nodes = (
"164 -323 OFFCURVE",
"130 -317 OFFCURVE",
"130 -289 CURVE SMOOTH",
"130 -255 OFFCURVE",
"193 -223 OFFCURVE",
"222 -208 CURVE SMOOTH",
"316 -161 OFFCURVE",
"435 -136 OFFCURVE",
"543 -128 CURVE",
"484 -193 OFFCURVE",
"393 -273 OFFCURVE",
"302 -302 CURVE SMOOTH",
"268 -313 OFFCURVE",
"226 -323 OFFCURVE",
"189 -323 CURVE SMOOTH"
);
}
);
width = 827;
}
);
note = Y;
unicode = 0059;
},
{
glyphname = Z;
lastChange = "2022-02-07 22:19:06 +0000";
layers = (
{
background = {
paths = (
{
closed = 1;
nodes = (
"1015 576 OFFCURVE",
"977 582 OFFCURVE",
"959 582 CURVE SMOOTH",
"927 582 OFFCURVE",
"893 564 OFFCURVE",
"867 549 CURVE",
"748 572 OFFCURVE",
"638 619 OFFCURVE",
"513 619 CURVE SMOOTH",
"485 619 OFFCURVE",
"456 617 OFFCURVE",
"429 610 CURVE SMOOTH",
"372 596 OFFCURVE",
"308 546 OFFCURVE",
"292 496 CURVE SMOOTH",
"288 484 OFFCURVE",
"286 469 OFFCURVE",
"286 457 CURVE SMOOTH",
"286 445 OFFCURVE",
"289 418 OFFCURVE",
"308 418 CURVE SMOOTH",
"317 418 OFFCURVE",
"324 424 OFFCURVE",
"324 432 CURVE SMOOTH",
"324 441 OFFCURVE",
"319 451 OFFCURVE",
"319 461 CURVE SMOOTH",
"319 470 OFFCURVE",
"321 479 OFFCURVE",
"324 488 CURVE SMOOTH",
"341 530 OFFCURVE",
"389 569 OFFCURVE",
"438 581 CURVE SMOOTH",
"468 588 OFFCURVE",
"500 591 OFFCURVE",
"532 591 CURVE SMOOTH",
"638 591 OFFCURVE",
"741 559 OFFCURVE",
"842 533 CURVE",
"752 474 OFFCURVE",
"671 403 OFFCURVE",
"593 333 CURVE SMOOTH",
"481 231 OFFCURVE",
"366 126 OFFCURVE",
"233 45 CURVE",
"193 57 OFFCURVE",
"93 85 OFFCURVE",
"53 85 CURVE SMOOTH",
"5 85 OFFCURVE",
"-49 56 OFFCURVE",
"-49 10 CURVE SMOOTH",
"-49 -35 OFFCURVE",
"0 -52 OFFCURVE",
"45 -52 CURVE SMOOTH",
"116 -52 OFFCURVE",
"181 -20 OFFCURVE",
"238 13 CURVE",
"396 -41 OFFCURVE",
"524 -119 OFFCURVE",
"699 -126 CURVE SMOOTH",
"757 -128 OFFCURVE",
"836 -121 OFFCURVE",
"885 -92 CURVE SMOOTH",
"901 -83 OFFCURVE",
"927 -64 OFFCURVE",
"927 -46 CURVE SMOOTH",
"928 -37 OFFCURVE",
"920 -30 OFFCURVE",
"910 -29 CURVE SMOOTH",
"900 -29 OFFCURVE",
"898 -34 OFFCURVE",
"894 -41 CURVE SMOOTH",
"887 -55 OFFCURVE",
"882 -59 OFFCURVE",
"866 -69 CURVE SMOOTH",
"824 -94 OFFCURVE",
"754 -99 OFFCURVE",
"703 -97 CURVE SMOOTH",
"543 -91 OFFCURVE",
"415 -19 OFFCURVE",
"271 33 CURVE",
"396 116 OFFCURVE",
"508 216 OFFCURVE",
"618 314 CURVE SMOOTH",
"695 383 OFFCURVE",
"788 472 OFFCURVE",
"880 525 CURVE",
"901 521 OFFCURVE",
"922 517 OFFCURVE",
"944 517 CURVE SMOOTH",
"967 517 OFFCURVE",
"1015 529 OFFCURVE",
"1015 555 CURVE SMOOTH"
);
},
{
closed = 1;
nodes = (
"152 -1 OFFCURVE",
"101 -23 OFFCURVE",
"44 -23 CURVE SMOOTH",
"21 -23 OFFCURVE",
"-16 -17 OFFCURVE",
"-16 8 CURVE SMOOTH",
"-16 38 OFFCURVE",
"22 55 OFFCURVE",
"52 55 CURVE SMOOTH",
"77 55 OFFCURVE",
"170 32 OFFCURVE",
"199 25 CURVE"
);
}
);
};
layerId = "6A041D6C-A676-4DB4-A570-80A8F8AA896B";
paths = (
{
closed = 1;
nodes = (
"773 -126 OFFCURVE",
"841 -118 OFFCURVE",
"885 -92 CURVE SMOOTH",
"901 -83 OFFCURVE",
"927 -63 OFFCURVE",
"927 -44 CURVE SMOOTH",
"927 -36 OFFCURVE",
"919 -30 OFFCURVE",
"910 -29 CURVE SMOOTH",
"900 -29 OFFCURVE",
"898 -34 OFFCURVE",
"894 -41 CURVE SMOOTH",
"887 -55 OFFCURVE",
"882 -59 OFFCURVE",
"866 -69 CURVE SMOOTH",
"829 -91 OFFCURVE",
"771 -97 OFFCURVE",
"723 -97 CURVE SMOOTH",
"554 -97 OFFCURVE",
"421 -21 OFFCURVE",
"271 33 CURVE",
"396 116 OFFCURVE",
"508 216 OFFCURVE",
"618 314 CURVE SMOOTH",
"695 383 OFFCURVE",
"788 472 OFFCURVE",
"880 525 CURVE",
"901 521 OFFCURVE",
"922 517 OFFCURVE",
"944 517 CURVE SMOOTH",
"967 517 OFFCURVE",
"1015 529 OFFCURVE",
"1015 555 CURVE SMOOTH",
"1015 576 OFFCURVE",
"977 582 OFFCURVE",
"959 582 CURVE SMOOTH",
"927 582 OFFCURVE",
"893 564 OFFCURVE",
"867 549 CURVE",
"748 572 OFFCURVE",
"638 619 OFFCURVE",
"513 619 CURVE SMOOTH",
"485 619 OFFCURVE",
"456 617 OFFCURVE",
"429 610 CURVE SMOOTH",
"372 596 OFFCURVE",
"308 546 OFFCURVE",
"292 496 CURVE SMOOTH",
"288 484 OFFCURVE",
"286 469 OFFCURVE",
"286 457 CURVE SMOOTH",
"286 445 OFFCURVE",
"289 418 OFFCURVE",
"308 418 CURVE SMOOTH",
"317 418 OFFCURVE",
"324 424 OFFCURVE",
"324 432 CURVE SMOOTH",
"324 441 OFFCURVE",
"319 451 OFFCURVE",
"319 461 CURVE SMOOTH",
"319 470 OFFCURVE",
"321 479 OFFCURVE",
"324 488 CURVE SMOOTH",
"341 530 OFFCURVE",
"389 569 OFFCURVE",
"438 581 CURVE SMOOTH",
"468 588 OFFCURVE",
"500 591 OFFCURVE",
"532 591 CURVE SMOOTH",
"638 591 OFFCURVE",
"741 559 OFFCURVE",
"842 533 CURVE",
"752 474 OFFCURVE",
"671 403 OFFCURVE",
"593 333 CURVE SMOOTH",
"481 231 OFFCURVE",
"366 126 OFFCURVE",
"233 45 CURVE",
"193 57 OFFCURVE",
"93 85 OFFCURVE",
"53 85 CURVE SMOOTH",
"5 85 OFFCURVE",
"-49 56 OFFCURVE",
"-49 10 CURVE SMOOTH",
"-49 -35 OFFCURVE",
"0 -52 OFFCURVE",
"45 -52 CURVE SMOOTH",
"116 -52 OFFCURVE",
"181 -20 OFFCURVE",
"238 13 CURVE",
"402 -43 OFFCURVE",
"534 -126 OFFCURVE",
"718 -126 CURVE SMOOTH"
);
},
{
closed = 1;
nodes = (
"21 -23 OFFCURVE",
"-16 -17 OFFCURVE",
"-16 8 CURVE SMOOTH",
"-16 38 OFFCURVE",
"22 55 OFFCURVE",
"52 55 CURVE SMOOTH",
"77 55 OFFCURVE",
"170 32 OFFCURVE",
"199 25 CURVE",
"152 -1 OFFCURVE",
"101 -23 OFFCURVE",
"44 -23 CURVE SMOOTH"
);
}
);
width = 701;
}
);
note = Z;
unicode = 005A;
},
{
glyphname = a;
lastChange = "2022-02-07 22:19:05 +0000";
layers = (
{
background = {
paths = (
{
closed = 1;
nodes = (
"416 177 OFFCURVE",
"411 184 OFFCURVE",
"402 184 CURVE SMOOTH",
"396 184 OFFCURVE",
"392 181 OFFCURVE",
"388 176 CURVE SMOOTH",
"363 141 OFFCURVE",
"339 100 OFFCURVE",
"311 63 CURVE SMOOTH",
"301 50 OFFCURVE",
"270 9 OFFCURVE",
"249 13 CURVE SMOOTH",
"237 16 OFFCURVE",
"233 27 OFFCURVE",
"233 43 CURVE SMOOTH",
"233 84 OFFCURVE",
"268 158 OFFCURVE",
"276 173 CURVE",
"279 183 OFFCURVE",
"264 190 OFFCURVE",
"253 190 CURVE SMOOTH",
"248 190 OFFCURVE",
"243 189 OFFCURVE",
"241 186 CURVE SMOOTH",
"233 175 OFFCURVE",
"226 162 OFFCURVE",
"218 151 CURVE SMOOTH",
"195 119 OFFCURVE",
"106 16 OFFCURVE",
"62 16 CURVE SMOOTH",
"40 16 OFFCURVE",
"33 31 OFFCURVE",
"33 50 CURVE SMOOTH",
"33 90 OFFCURVE",
"62 149 OFFCURVE",
"67 160 CURVE SMOOTH",
"88 200 OFFCURVE",
"119 240 OFFCURVE",
"149 270 CURVE SMOOTH",
"173 292 OFFCURVE",
"208 313 OFFCURVE",
"239 313 CURVE SMOOTH",
"265 313 OFFCURVE",
"294 301 OFFCURVE",
"294 265 CURVE SMOOTH",
"294 260 OFFCURVE",
"293 254 OFFCURVE",
"292 248 CURVE SMOOTH",
"290 239 OFFCURVE",
"285 229 OFFCURVE",
"282 220 CURVE SMOOTH",
"279 210 OFFCURVE",
"290 199 OFFCURVE",
"299 199 CURVE SMOOTH",
"309 199 OFFCURVE",
"317 216 OFFCURVE",
"322 236 CURVE SMOOTH",
"324 243 OFFCURVE",
"325 250 OFFCURVE",
"325 257 CURVE SMOOTH",
"325 295 OFFCURVE",
"301 337 OFFCURVE",
"237 337 CURVE SMOOTH",
"200 337 OFFCURVE",
"162 319 OFFCURVE",
"128 289 CURVE SMOOTH",
"93 260 OFFCURVE",
"63 219 OFFCURVE",
"39 178 CURVE SMOOTH",
"27 156 OFFCURVE",
"-2 93 OFFCURVE",
"-2 46 CURVE SMOOTH",
"-2 12 OFFCURVE",
"12 -14 OFFCURVE",
"56 -14 CURVE SMOOTH",
"100 -14 OFFCURVE",
"180 61 OFFCURVE",
"205 90 CURVE",
"209 87 LINE",
"205 72 OFFCURVE",
"200 50 OFFCURVE",
"200 31 CURVE SMOOTH",
"200 9 OFFCURVE",
"211 -11 OFFCURVE",
"250 -11 CURVE SMOOTH",
"291 -11 OFFCURVE",
"316 22 OFFCURVE",
"337 50 CURVE SMOOTH",
"369 92 OFFCURVE",
"416 159 OFFCURVE",
"416 169 CURVE SMOOTH"
);
}
);
};
layerId = "6A041D6C-A676-4DB4-A570-80A8F8AA896B";
paths = (
{
closed = 1;
nodes = (
"100 -14 OFFCURVE",
"180 61 OFFCURVE",
"205 90 CURVE",
"209 87 LINE",
"205 72 OFFCURVE",
"200 50 OFFCURVE",
"200 31 CURVE SMOOTH",
"200 9 OFFCURVE",
"211 -11 OFFCURVE",
"250 -11 CURVE SMOOTH",
"291 -11 OFFCURVE",
"316 22 OFFCURVE",
"337 50 CURVE SMOOTH",
"369 92 OFFCURVE",
"416 159 OFFCURVE",
"416 169 CURVE SMOOTH",
"416 177 OFFCURVE",
"411 184 OFFCURVE",
"402 184 CURVE SMOOTH",
"396 184 OFFCURVE",
"392 181 OFFCURVE",
"388 176 CURVE SMOOTH",
"363 141 OFFCURVE",
"339 100 OFFCURVE",
"311 63 CURVE SMOOTH",
"301 50 OFFCURVE",
"270 9 OFFCURVE",
"249 13 CURVE SMOOTH",
"237 16 OFFCURVE",
"233 27 OFFCURVE",
"233 43 CURVE SMOOTH",
"233 84 OFFCURVE",
"268 158 OFFCURVE",
"276 173 CURVE",
"279 183 OFFCURVE",
"264 190 OFFCURVE",
"253 190 CURVE SMOOTH",
"248 190 OFFCURVE",
"243 189 OFFCURVE",
"241 186 CURVE SMOOTH",
"233 175 OFFCURVE",
"226 162 OFFCURVE",
"218 151 CURVE SMOOTH",
"195 119 OFFCURVE",
"106 16 OFFCURVE",
"62 16 CURVE SMOOTH",
"40 16 OFFCURVE",
"33 31 OFFCURVE",
"33 50 CURVE SMOOTH",
"33 90 OFFCURVE",
"62 149 OFFCURVE",
"67 160 CURVE SMOOTH",
"88 200 OFFCURVE",
"119 240 OFFCURVE",
"149 270 CURVE SMOOTH",
"173 292 OFFCURVE",
"208 313 OFFCURVE",
"239 313 CURVE SMOOTH",
"265 313 OFFCURVE",
"294 301 OFFCURVE",
"294 265 CURVE SMOOTH",
"294 260 OFFCURVE",
"293 254 OFFCURVE",
"292 248 CURVE SMOOTH",
"290 239 OFFCURVE",
"285 229 OFFCURVE",
"282 220 CURVE SMOOTH",
"279 210 OFFCURVE",
"290 199 OFFCURVE",
"299 199 CURVE SMOOTH",
"309 199 OFFCURVE",
"317 216 OFFCURVE",
"322 236 CURVE SMOOTH",
"324 243 OFFCURVE",
"325 250 OFFCURVE",
"325 257 CURVE SMOOTH",
"325 295 OFFCURVE",
"301 337 OFFCURVE",
"237 337 CURVE SMOOTH",
"200 337 OFFCURVE",
"162 319 OFFCURVE",
"128 289 CURVE SMOOTH",
"93 260 OFFCURVE",
"63 219 OFFCURVE",
"39 178 CURVE SMOOTH",
"27 156 OFFCURVE",
"-2 93 OFFCURVE",
"-2 46 CURVE SMOOTH",
"-2 12 OFFCURVE",
"12 -14 OFFCURVE",
"56 -14 CURVE SMOOTH"
);
}
);
width = 349;
}
);
note = a;
unicode = 0061;
},
{
glyphname = ae;
lastChange = "2022-02-07 22:19:05 +0000";
layers = (
{
background = {
paths = (
{
closed = 1;
nodes = (
"562 164 OFFCURVE",
"562 167 OFFCURVE",
"562 169 CURVE SMOOTH",
"562 177 OFFCURVE",
"556 184 OFFCURVE",
"548 184 CURVE SMOOTH",
"543 184 OFFCURVE",
"539 182 OFFCURVE",
"536 177 CURVE SMOOTH",
"507 126 OFFCURVE",
"467 81 OFFCURVE",
"443 57 CURVE SMOOTH",
"418 32 OFFCURVE",
"378 8 OFFCURVE",
"338 8 CURVE SMOOTH",
"290 8 OFFCURVE",
"277 43 OFFCURVE",
"277 78 CURVE SMOOTH",
"277 88 OFFCURVE",
"278 99 OFFCURVE",
"280 108 CURVE",
"288 107 OFFCURVE",
"296 106 OFFCURVE",
"304 106 CURVE SMOOTH",
"401 106 OFFCURVE",
"493 192 OFFCURVE",
"493 276 CURVE SMOOTH",
"493 305 OFFCURVE",
"470 327 OFFCURVE",
"436 327 CURVE SMOOTH",
"394 327 OFFCURVE",
"355 301 OFFCURVE",
"324 266 CURVE",
"320 301 OFFCURVE",
"296 337 OFFCURVE",
"237 337 CURVE SMOOTH",
"200 337 OFFCURVE",
"162 319 OFFCURVE",
"128 289 CURVE SMOOTH",
"93 260 OFFCURVE",
"63 219 OFFCURVE",
"39 178 CURVE SMOOTH",
"27 156 OFFCURVE",
"-2 93 OFFCURVE",
"-2 46 CURVE SMOOTH",
"-2 12 OFFCURVE",
"12 -14 OFFCURVE",
"56 -14 CURVE SMOOTH",
"100 -14 OFFCURVE",
"180 61 OFFCURVE",
"205 90 CURVE",
"209 87 LINE",
"205 73 OFFCURVE",
"188 21 OFFCURVE",
"188 -15 CURVE SMOOTH",
"188 -36 OFFCURVE",
"193 -58 OFFCURVE",
"223 -62 CURVE SMOOTH",
"234 -64 OFFCURVE",
"238 -59 OFFCURVE",
"238 -48 CURVE SMOOTH",
"238 -46 OFFCURVE",
"237 -43 OFFCURVE",
"237 -39 CURVE",
"225 -36 OFFCURVE",
"221 -25 OFFCURVE",
"221 -9 CURVE SMOOTH",
"221 10 OFFCURVE",
"231 48 OFFCURVE",
"243 84 CURVE",
"243 81 LINE SMOOTH",
"243 26 OFFCURVE",
"267 -21 OFFCURVE",
"336 -21 CURVE SMOOTH",
"437 -21 OFFCURVE",
"505 70 OFFCURVE",
"560 161 CURVE SMOOTH"
);
},
{
closed = 1;
nodes = (
"233 175 OFFCURVE",
"226 162 OFFCURVE",
"218 151 CURVE SMOOTH",
"195 119 OFFCURVE",
"106 16 OFFCURVE",
"62 16 CURVE SMOOTH",
"40 16 OFFCURVE",
"33 31 OFFCURVE",
"33 50 CURVE SMOOTH",
"33 90 OFFCURVE",
"62 149 OFFCURVE",
"67 160 CURVE SMOOTH",
"88 200 OFFCURVE",
"119 240 OFFCURVE",
"149 270 CURVE SMOOTH",
"173 292 OFFCURVE",
"208 313 OFFCURVE",
"239 313 CURVE SMOOTH",
"265 313 OFFCURVE",
"294 301 OFFCURVE",
"294 265 CURVE SMOOTH",
"294 260 OFFCURVE",
"293 254 OFFCURVE",
"292 248 CURVE SMOOTH",
"290 239 OFFCURVE",
"285 229 OFFCURVE",
"282 220 CURVE SMOOTH",
"281 216 OFFCURVE",
"281 212 OFFCURVE",
"283 209 CURVE",
"271 184 LINE",
"266 188 OFFCURVE",
"259 190 OFFCURVE",
"252 190 CURVE SMOOTH",
"248 190 OFFCURVE",
"243 189 OFFCURVE",
"241 186 CURVE SMOOTH"
);
},
{
closed = 1;
nodes = (
"459 208 OFFCURVE",
"386 137 OFFCURVE",
"311 137 CURVE SMOOTH",
"303 137 OFFCURVE",
"296 137 OFFCURVE",
"289 139 CURVE",
"305 186 OFFCURVE",
"365 297 OFFCURVE",
"435 297 CURVE SMOOTH",
"452 297 OFFCURVE",
"459 286 OFFCURVE",
"459 272 CURVE SMOOTH"
);
}
);
};
layerId = "6A041D6C-A676-4DB4-A570-80A8F8AA896B";
paths = (
{
closed = 1;
nodes = (
"234 -64 OFFCURVE",
"238 -59 OFFCURVE",
"238 -48 CURVE SMOOTH",
"238 -46 OFFCURVE",
"237 -43 OFFCURVE",
"237 -39 CURVE",
"225 -36 OFFCURVE",
"221 -25 OFFCURVE",
"221 -9 CURVE SMOOTH",
"221 10 OFFCURVE",
"231 48 OFFCURVE",
"243 84 CURVE",
"243 81 LINE SMOOTH",
"243 26 OFFCURVE",
"267 -21 OFFCURVE",
"336 -21 CURVE SMOOTH",
"437 -21 OFFCURVE",
"505 70 OFFCURVE",
"560 161 CURVE SMOOTH",
"562 164 OFFCURVE",
"562 167 OFFCURVE",
"562 169 CURVE SMOOTH",
"562 177 OFFCURVE",
"556 184 OFFCURVE",
"548 184 CURVE SMOOTH",
"543 184 OFFCURVE",
"539 182 OFFCURVE",
"536 177 CURVE SMOOTH",
"507 126 OFFCURVE",
"467 81 OFFCURVE",
"443 57 CURVE SMOOTH",
"418 32 OFFCURVE",
"378 8 OFFCURVE",
"338 8 CURVE SMOOTH",
"290 8 OFFCURVE",
"277 43 OFFCURVE",
"277 78 CURVE SMOOTH",
"277 88 OFFCURVE",
"278 99 OFFCURVE",
"280 108 CURVE",
"288 107 OFFCURVE",
"296 106 OFFCURVE",
"304 106 CURVE SMOOTH",
"401 106 OFFCURVE",
"493 192 OFFCURVE",
"493 276 CURVE SMOOTH",
"493 305 OFFCURVE",
"470 327 OFFCURVE",
"436 327 CURVE SMOOTH",
"394 327 OFFCURVE",
"355 301 OFFCURVE",
"324 266 CURVE",
"320 301 OFFCURVE",
"296 337 OFFCURVE",
"237 337 CURVE SMOOTH",
"200 337 OFFCURVE",
"162 319 OFFCURVE",
"128 289 CURVE SMOOTH",
"93 260 OFFCURVE",
"63 219 OFFCURVE",
"39 178 CURVE SMOOTH",
"27 156 OFFCURVE",
"-2 93 OFFCURVE",
"-2 46 CURVE SMOOTH",
"-2 12 OFFCURVE",
"12 -14 OFFCURVE",
"56 -14 CURVE SMOOTH",
"100 -14 OFFCURVE",
"180 61 OFFCURVE",
"205 90 CURVE",
"209 87 LINE",
"205 73 OFFCURVE",
"188 21 OFFCURVE",
"188 -15 CURVE SMOOTH",
"188 -36 OFFCURVE",
"193 -58 OFFCURVE",
"223 -62 CURVE SMOOTH"
);
},
{
closed = 1;
nodes = (
"40 16 OFFCURVE",
"33 31 OFFCURVE",
"33 50 CURVE SMOOTH",
"33 90 OFFCURVE",
"62 149 OFFCURVE",
"67 160 CURVE SMOOTH",
"88 200 OFFCURVE",
"119 240 OFFCURVE",
"149 270 CURVE SMOOTH",
"173 292 OFFCURVE",
"208 313 OFFCURVE",
"239 313 CURVE SMOOTH",
"265 313 OFFCURVE",
"294 301 OFFCURVE",
"294 265 CURVE SMOOTH",
"294 260 OFFCURVE",
"293 254 OFFCURVE",
"292 248 CURVE SMOOTH",
"290 239 OFFCURVE",
"285 229 OFFCURVE",
"282 220 CURVE SMOOTH",
"281 216 OFFCURVE",
"281 212 OFFCURVE",
"283 209 CURVE",
"271 184 LINE",
"266 188 OFFCURVE",
"259 190 OFFCURVE",
"252 190 CURVE SMOOTH",
"248 190 OFFCURVE",
"243 189 OFFCURVE",
"241 186 CURVE SMOOTH",
"233 175 OFFCURVE",
"226 162 OFFCURVE",
"218 151 CURVE SMOOTH",
"195 119 OFFCURVE",
"106 16 OFFCURVE",
"62 16 CURVE SMOOTH"
);
},
{
closed = 1;
nodes = (
"303 137 OFFCURVE",
"296 137 OFFCURVE",
"289 139 CURVE",
"305 186 OFFCURVE",
"365 297 OFFCURVE",
"435 297 CURVE SMOOTH",
"452 297 OFFCURVE",
"459 286 OFFCURVE",
"459 272 CURVE SMOOTH",
"459 208 OFFCURVE",
"386 137 OFFCURVE",
"311 137 CURVE SMOOTH"
);
}
);
width = 496;
}
);
note = ae;
unicode = 00E6;
},
{
glyphname = b;
lastChange = "2022-02-07 22:19:05 +0000";
layers = (
{
background = {
paths = (
{
closed = 1;
nodes = (
"373 202 OFFCURVE",
"349 202 OFFCURVE",
"342 201 CURVE",
"343 213 OFFCURVE",
"344 224 OFFCURVE",
"344 236 CURVE SMOOTH",
"344 297 OFFCURVE",
"324 328 OFFCURVE",
"291 328 CURVE SMOOTH",
"267 328 OFFCURVE",
"236 311 OFFCURVE",
"200 276 CURVE SMOOTH",
"154 231 OFFCURVE",
"108 171 OFFCURVE",
"77 126 CURVE",
"130 286 OFFCURVE",
"228 471 OFFCURVE",
"320 578 CURVE SMOOTH",
"322 581 OFFCURVE",
"323 583 OFFCURVE",
"323 587 CURVE SMOOTH",
"323 594 OFFCURVE",
"309 601 OFFCURVE",
"301 601 CURVE SMOOTH",
"295 601 OFFCURVE",
"291 598 OFFCURVE",
"287 595 CURVE",
"186 492 OFFCURVE",
"65 207 OFFCURVE",
"30 75 CURVE",
"4 49 OFFCURVE",
"-8 27 OFFCURVE",
"-8 9 CURVE SMOOTH",
"-8 -22 OFFCURVE",
"27 -40 OFFCURVE",
"72 -40 CURVE SMOOTH",
"104 -40 OFFCURVE",
"141 -31 OFFCURVE",
"176 -13 CURVE SMOOTH",
"255 28 OFFCURVE",
"315 104 OFFCURVE",
"333 170 CURVE",
"341 171 OFFCURVE",
"368 171 OFFCURVE",
"380 173 CURVE SMOOTH",
"393 175 OFFCURVE",
"398 181 OFFCURVE",
"398 187 CURVE SMOOTH",
"398 195 OFFCURVE",
"390 202 OFFCURVE",
"381 202 CURVE SMOOTH"
);
},
{
closed = 1;
nodes = (
"246 186 OFFCURVE",
"188 163 OFFCURVE",
"115 130 CURVE",
"149 174 OFFCURVE",
"185 220 OFFCURVE",
"222 255 CURVE SMOOTH",
"243 275 OFFCURVE",
"271 300 OFFCURVE",
"290 300 CURVE SMOOTH",
"303 300 OFFCURVE",
"313 287 OFFCURVE",
"313 251 CURVE SMOOTH",
"313 232 OFFCURVE",
"310 214 OFFCURVE",
"305 196 CURVE"
);
},
{
closed = 1;
nodes = (
"126 -7 OFFCURVE",
"101 -12 OFFCURVE",
"80 -12 CURVE SMOOTH",
"53 -12 OFFCURVE",
"34 -3 OFFCURVE",
"34 15 CURVE SMOOTH",
"34 31 OFFCURVE",
"50 54 OFFCURVE",
"89 81 CURVE SMOOTH",
"150 124 OFFCURVE",
"223 147 OFFCURVE",
"298 165 CURVE",
"274 109 OFFCURVE",
"221 39 OFFCURVE",
"151 5 CURVE SMOOTH"
);
}
);
};
layerId = "6A041D6C-A676-4DB4-A570-80A8F8AA896B";
paths = (
{
closed = 1;
nodes = (
"104 -40 OFFCURVE",
"141 -31 OFFCURVE",
"176 -13 CURVE SMOOTH",
"255 28 OFFCURVE",
"315 104 OFFCURVE",
"333 170 CURVE",
"341 171 OFFCURVE",
"368 171 OFFCURVE",
"380 173 CURVE SMOOTH",
"393 175 OFFCURVE",
"398 181 OFFCURVE",
"398 187 CURVE SMOOTH",
"398 195 OFFCURVE",
"390 202 OFFCURVE",
"381 202 CURVE SMOOTH",
"373 202 OFFCURVE",
"349 202 OFFCURVE",
"342 201 CURVE",
"343 213 OFFCURVE",
"344 224 OFFCURVE",
"344 236 CURVE SMOOTH",
"344 297 OFFCURVE",
"324 328 OFFCURVE",
"291 328 CURVE SMOOTH",
"267 328 OFFCURVE",
"236 311 OFFCURVE",
"200 276 CURVE SMOOTH",
"154 231 OFFCURVE",
"108 171 OFFCURVE",
"77 126 CURVE",
"130 286 OFFCURVE",
"228 471 OFFCURVE",
"320 578 CURVE SMOOTH",
"322 581 OFFCURVE",
"323 583 OFFCURVE",
"323 587 CURVE SMOOTH",
"323 594 OFFCURVE",
"309 601 OFFCURVE",
"301 601 CURVE SMOOTH",
"295 601 OFFCURVE",
"291 598 OFFCURVE",
"287 595 CURVE",
"186 492 OFFCURVE",
"65 207 OFFCURVE",
"30 75 CURVE",
"4 49 OFFCURVE",
"-8 27 OFFCURVE",
"-8 9 CURVE SMOOTH",
"-8 -22 OFFCURVE",
"27 -40 OFFCURVE",
"72 -40 CURVE SMOOTH"
);
},
{
closed = 1;
nodes = (
"53 -12 OFFCURVE",
"34 -3 OFFCURVE",
"34 15 CURVE SMOOTH",
"34 31 OFFCURVE",
"50 54 OFFCURVE",
"89 81 CURVE SMOOTH",
"150 124 OFFCURVE",
"223 147 OFFCURVE",
"298 165 CURVE",
"274 109 OFFCURVE",
"221 39 OFFCURVE",
"151 5 CURVE SMOOTH",
"126 -7 OFFCURVE",
"101 -12 OFFCURVE",
"80 -12 CURVE SMOOTH"
);
},
{
closed = 1;
nodes = (
"149 174 OFFCURVE",
"185 220 OFFCURVE",
"222 255 CURVE SMOOTH",
"243 275 OFFCURVE",
"271 300 OFFCURVE",
"290 300 CURVE SMOOTH",
"303 300 OFFCURVE",
"313 287 OFFCURVE",
"313 251 CURVE SMOOTH",
"313 232 OFFCURVE",
"310 214 OFFCURVE",
"305 196 CURVE",
"246 186 OFFCURVE",
"188 163 OFFCURVE",
"115 130 CURVE"
);
}
);
width = 369;
}
);
note = b;
unicode = 0062;
},
{
glyphname = c;
lastChange = "2022-02-07 22:19:05 +0000";
layers = (
{
background = {
paths = (
{
closed = 1;
nodes = (
"346 165 OFFCURVE",
"346 168 OFFCURVE",
"346 170 CURVE SMOOTH",
"346 178 OFFCURVE",
"340 185 OFFCURVE",
"332 185 CURVE SMOOTH",
"327 185 OFFCURVE",
"323 183 OFFCURVE",
"320 178 CURVE SMOOTH",
"277 114 OFFCURVE",
"266 96 OFFCURVE",
"227 58 CURVE SMOOTH",
"202 33 OFFCURVE",
"162 9 OFFCURVE",
"122 9 CURVE SMOOTH",
"67 9 OFFCURVE",
"53 54 OFFCURVE",
"53 95 CURVE SMOOTH",
"53 122 OFFCURVE",
"61 148 OFFCURVE",
"74 172 CURVE SMOOTH",
"99 216 OFFCURVE",
"169 314 OFFCURVE",
"237 314 CURVE SMOOTH",
"257 314 OFFCURVE",
"263 300 OFFCURVE",
"263 285 CURVE SMOOTH",
"263 249 OFFCURVE",
"231 215 OFFCURVE",
"231 210 CURVE SMOOTH",
"231 203 OFFCURVE",
"239 196 OFFCURVE",
"247 196 CURVE SMOOTH",
"275 196 OFFCURVE",
"297 270 OFFCURVE",
"297 288 CURVE SMOOTH",
"297 317 OFFCURVE",
"279 344 OFFCURVE",
"242 344 CURVE SMOOTH",
"154 344 OFFCURVE",
"78 245 OFFCURVE",
"45 186 CURVE SMOOTH",
"28 156 OFFCURVE",
"16 123 OFFCURVE",
"16 89 CURVE SMOOTH",
"16 34 OFFCURVE",
"50 -20 OFFCURVE",
"120 -20 CURVE SMOOTH",
"221 -20 OFFCURVE",
"290 75 OFFCURVE",
"344 162 CURVE SMOOTH"
);
}
);
};
layerId = "6A041D6C-A676-4DB4-A570-80A8F8AA896B";
paths = (
{
closed = 1;
nodes = (
"221 -20 OFFCURVE",
"290 75 OFFCURVE",
"344 162 CURVE SMOOTH",
"346 165 OFFCURVE",
"346 168 OFFCURVE",
"346 170 CURVE SMOOTH",
"346 178 OFFCURVE",
"340 185 OFFCURVE",
"332 185 CURVE SMOOTH",
"327 185 OFFCURVE",
"323 183 OFFCURVE",
"320 178 CURVE SMOOTH",
"277 114 OFFCURVE",
"266 96 OFFCURVE",
"227 58 CURVE SMOOTH",
"202 33 OFFCURVE",
"162 9 OFFCURVE",
"122 9 CURVE SMOOTH",
"67 9 OFFCURVE",
"53 54 OFFCURVE",
"53 95 CURVE SMOOTH",
"53 122 OFFCURVE",
"61 148 OFFCURVE",
"74 172 CURVE SMOOTH",
"99 216 OFFCURVE",
"169 314 OFFCURVE",
"237 314 CURVE SMOOTH",
"257 314 OFFCURVE",
"263 300 OFFCURVE",
"263 285 CURVE SMOOTH",
"263 249 OFFCURVE",
"231 215 OFFCURVE",
"231 210 CURVE SMOOTH",
"231 203 OFFCURVE",
"239 196 OFFCURVE",
"247 196 CURVE SMOOTH",
"275 196 OFFCURVE",
"297 270 OFFCURVE",
"297 288 CURVE SMOOTH",
"297 317 OFFCURVE",
"279 344 OFFCURVE",
"242 344 CURVE SMOOTH",
"154 344 OFFCURVE",
"78 245 OFFCURVE",
"45 186 CURVE SMOOTH",
"28 156 OFFCURVE",
"16 123 OFFCURVE",
"16 89 CURVE SMOOTH",
"16 34 OFFCURVE",
"50 -20 OFFCURVE",
"120 -20 CURVE SMOOTH"
);
}
);
width = 279;
}
);
note = c;
unicode = 0063;
},
{
glyphname = d;
lastChange = "2022-02-07 22:19:05 +0000";
layers = (
{
background = {
paths = (
{
closed = 1;
nodes = (
"395 182 OFFCURVE",
"391 179 OFFCURVE",
"388 174 CURVE SMOOTH",
"369 145 OFFCURVE",
"318 74 OFFCURVE",
"310 64 CURVE SMOOTH",
"301 52 OFFCURVE",
"272 18 OFFCURVE",
"251 18 CURVE SMOOTH",
"237 18 OFFCURVE",
"231 31 OFFCURVE",
"231 49 CURVE SMOOTH",
"231 114 OFFCURVE",
"307 262 OFFCURVE",
"335 306 CURVE SMOOTH",
"366 354 OFFCURVE",
"500 528 OFFCURVE",
"500 578 CURVE SMOOTH",
"500 588 OFFCURVE",
"492 592 OFFCURVE",
"482 592 CURVE SMOOTH",
"469 592 OFFCURVE",
"451 585 OFFCURVE",
"444 578 CURVE SMOOTH",
"392 523 OFFCURVE",
"305 332 OFFCURVE",
"291 297 CURVE",
"275 316 OFFCURVE",
"259 327 OFFCURVE",
"230 327 CURVE SMOOTH",
"109 327 OFFCURVE",
"-2 140 OFFCURVE",
"-2 44 CURVE SMOOTH",
"-2 11 OFFCURVE",
"13 -25 OFFCURVE",
"57 -25 CURVE SMOOTH",
"64 -25 OFFCURVE",
"72 -24 OFFCURVE",
"79 -22 CURVE SMOOTH",
"113 -14 OFFCURVE",
"168 52 OFFCURVE",
"206 98 CURVE",
"200 74 OFFCURVE",
"199 62 OFFCURVE",
"199 50 CURVE SMOOTH",
"199 24 OFFCURVE",
"207 -4 OFFCURVE",
"234 -9 CURVE SMOOTH",
"238 -10 OFFCURVE",
"243 -10 OFFCURVE",
"247 -10 CURVE SMOOTH",
"297 -10 OFFCURVE",
"337 43 OFFCURVE",
"401 142 CURVE SMOOTH",
"409 155 OFFCURVE",
"415 164 OFFCURVE",
"415 167 CURVE SMOOTH",
"415 175 OFFCURVE",
"411 182 OFFCURVE",
"402 182 CURVE SMOOTH"
);
},
{
closed = 1;
nodes = (
"214 156 OFFCURVE",
"112 6 OFFCURVE",
"61 6 CURVE SMOOTH",
"38 6 OFFCURVE",
"35 29 OFFCURVE",
"35 44 CURVE SMOOTH",
"35 124 OFFCURVE",
"125 298 OFFCURVE",
"229 298 CURVE SMOOTH",
"250 298 OFFCURVE",
"261 286 OFFCURVE",
"272 271 CURVE",
"234 196 LINE SMOOTH"
);
}
);
};
layerId = "6A041D6C-A676-4DB4-A570-80A8F8AA896B";
paths = (
{
closed = 1;
nodes = (
"64 -25 OFFCURVE",
"72 -24 OFFCURVE",
"79 -22 CURVE SMOOTH",
"113 -14 OFFCURVE",
"168 52 OFFCURVE",
"206 98 CURVE",
"200 74 OFFCURVE",
"199 62 OFFCURVE",
"199 50 CURVE SMOOTH",
"199 24 OFFCURVE",
"207 -4 OFFCURVE",
"234 -9 CURVE SMOOTH",
"238 -10 OFFCURVE",
"243 -10 OFFCURVE",
"247 -10 CURVE SMOOTH",
"297 -10 OFFCURVE",
"337 43 OFFCURVE",
"401 142 CURVE SMOOTH",
"409 155 OFFCURVE",
"415 164 OFFCURVE",
"415 167 CURVE SMOOTH",
"415 175 OFFCURVE",
"411 182 OFFCURVE",
"402 182 CURVE SMOOTH",
"395 182 OFFCURVE",
"391 179 OFFCURVE",
"388 174 CURVE SMOOTH",
"369 145 OFFCURVE",
"318 74 OFFCURVE",
"310 64 CURVE SMOOTH",
"301 52 OFFCURVE",
"272 18 OFFCURVE",
"251 18 CURVE SMOOTH",
"237 18 OFFCURVE",
"231 31 OFFCURVE",
"231 49 CURVE SMOOTH",
"231 114 OFFCURVE",
"307 262 OFFCURVE",
"335 306 CURVE SMOOTH",
"366 354 OFFCURVE",
"500 528 OFFCURVE",
"500 578 CURVE SMOOTH",
"500 588 OFFCURVE",
"492 592 OFFCURVE",
"482 592 CURVE SMOOTH",
"469 592 OFFCURVE",
"451 585 OFFCURVE",
"444 578 CURVE SMOOTH",
"392 523 OFFCURVE",
"305 332 OFFCURVE",
"291 297 CURVE",
"275 316 OFFCURVE",
"259 327 OFFCURVE",
"230 327 CURVE SMOOTH",
"109 327 OFFCURVE",
"-2 140 OFFCURVE",
"-2 44 CURVE SMOOTH",
"-2 11 OFFCURVE",
"13 -25 OFFCURVE",
"57 -25 CURVE SMOOTH"
);
},
{
closed = 1;
nodes = (
"38 6 OFFCURVE",
"35 29 OFFCURVE",
"35 44 CURVE SMOOTH",
"35 124 OFFCURVE",
"125 298 OFFCURVE",
"229 298 CURVE SMOOTH",
"250 298 OFFCURVE",
"261 286 OFFCURVE",
"272 271 CURVE",
"234 196 LINE SMOOTH",
"214 156 OFFCURVE",
"112 6 OFFCURVE",
"61 6 CURVE SMOOTH"
);
}
);
width = 349;
}
);
note = d;
unicode = 0064;
},
{
glyphname = e;
lastChange = "2022-02-07 22:19:05 +0000";
layers = (
{
background = {
paths = (
{
closed = 1;
nodes = (
"336 165 OFFCURVE",
"336 168 OFFCURVE",
"336 170 CURVE SMOOTH",
"336 178 OFFCURVE",
"330 185 OFFCURVE",
"322 185 CURVE SMOOTH",
"317 185 OFFCURVE",
"313 183 OFFCURVE",
"310 178 CURVE SMOOTH",
"267 114 OFFCURVE",
"254 96 OFFCURVE",
"216 58 CURVE SMOOTH",
"191 33 OFFCURVE",
"151 9 OFFCURVE",
"111 9 CURVE SMOOTH",
"63 9 OFFCURVE",
"50 44 OFFCURVE",
"50 79 CURVE SMOOTH",
"50 89 OFFCURVE",
"51 100 OFFCURVE",
"53 109 CURVE",
"61 108 OFFCURVE",
"69 107 OFFCURVE",
"77 107 CURVE SMOOTH",
"174 107 OFFCURVE",
"266 193 OFFCURVE",
"266 277 CURVE SMOOTH",
"266 306 OFFCURVE",
"243 328 OFFCURVE",
"209 328 CURVE SMOOTH",
"102 328 OFFCURVE",
"16 162 OFFCURVE",
"16 82 CURVE SMOOTH",
"16 27 OFFCURVE",
"40 -20 OFFCURVE",
"109 -20 CURVE SMOOTH",
"210 -20 OFFCURVE",
"279 71 OFFCURVE",
"334 162 CURVE SMOOTH"
);
},
{
closed = 1;
nodes = (
"232 209 OFFCURVE",
"159 138 OFFCURVE",
"84 138 CURVE SMOOTH",
"76 138 OFFCURVE",
"69 138 OFFCURVE",
"62 140 CURVE",
"78 187 OFFCURVE",
"138 298 OFFCURVE",
"208 298 CURVE SMOOTH",
"225 298 OFFCURVE",
"232 287 OFFCURVE",
"232 273 CURVE SMOOTH"
);
}
);
};
layerId = "6A041D6C-A676-4DB4-A570-80A8F8AA896B";
paths = (
{
closed = 1;
nodes = (
"210 -20 OFFCURVE",
"279 71 OFFCURVE",
"334 162 CURVE SMOOTH",
"336 165 OFFCURVE",
"336 168 OFFCURVE",
"336 170 CURVE SMOOTH",
"336 178 OFFCURVE",
"330 185 OFFCURVE",
"322 185 CURVE SMOOTH",
"317 185 OFFCURVE",
"313 183 OFFCURVE",
"310 178 CURVE SMOOTH",
"267 114 OFFCURVE",
"254 96 OFFCURVE",
"216 58 CURVE SMOOTH",
"191 33 OFFCURVE",
"151 9 OFFCURVE",
"111 9 CURVE SMOOTH",
"63 9 OFFCURVE",
"50 44 OFFCURVE",
"50 79 CURVE SMOOTH",
"50 89 OFFCURVE",
"51 100 OFFCURVE",
"53 109 CURVE",
"61 108 OFFCURVE",
"69 107 OFFCURVE",
"77 107 CURVE SMOOTH",
"174 107 OFFCURVE",
"266 193 OFFCURVE",
"266 277 CURVE SMOOTH",
"266 306 OFFCURVE",
"243 328 OFFCURVE",
"209 328 CURVE SMOOTH",
"102 328 OFFCURVE",
"16 162 OFFCURVE",
"16 82 CURVE SMOOTH",
"16 27 OFFCURVE",
"40 -20 OFFCURVE",
"109 -20 CURVE SMOOTH"
);
},
{
closed = 1;
nodes = (
"76 138 OFFCURVE",
"69 138 OFFCURVE",
"62 140 CURVE",
"78 187 OFFCURVE",
"138 298 OFFCURVE",
"208 298 CURVE SMOOTH",
"225 298 OFFCURVE",
"232 287 OFFCURVE",
"232 273 CURVE SMOOTH",
"232 209 OFFCURVE",
"159 138 OFFCURVE",
"84 138 CURVE SMOOTH"
);
}
);
width = 269;
}
);
note = e;
unicode = 0065;
},
